{"glyphs":{"0":{"ha":997,"x_min":57,"x_max":938,"o":"m 497 -14 q 185 85 296 -12 q 61 342 74 182 q 57 488 57 399 q 61 636 57 578 q 122 817 68 739 q 272 941 175 896 q 497 986 368 986 q 723 941 626 986 q 873 817 819 896 q 933 636 926 739 q 938 488 938 578 q 933 342 938 399 q 810 85 921 182 q 497 -14 699 -12 m 497 258 q 572 349 567 258 q 575 489 575 389 q 572 628 575 590 q 497 718 567 717 q 422 628 428 717 q 419 489 419 553 q 422 349 419 429 q 497 258 428 258 z "},"1":{"ha":774,"x_min":13,"x_max":696,"o":"m 386 0 q 360 11 371 0 q 349 38 349 22 l 349 599 l 193 479 q 172 472 185 472 q 140 490 154 472 l 18 649 q 13 669 13 663 q 17 688 13 679 q 31 703 22 697 l 365 963 q 396 972 379 972 l 658 972 q 685 961 674 972 q 696 935 696 950 l 696 38 q 685 11 696 22 q 658 0 674 0 l 386 0 z "},"2":{"ha":978,"x_min":49,"x_max":924,"o":"m 86 0 q 60 11 71 0 q 49 38 49 22 l 49 182 q 83 257 49 232 l 99 268 l 151 306 q 381 476 307 418 q 497 580 456 533 q 539 663 539 626 q 530 703 539 689 q 489 718 521 718 q 447 706 463 718 q 427 683 432 694 q 413 647 422 672 q 392 622 406 629 q 357 615 378 615 l 96 615 q 74 624 83 615 q 65 646 65 633 q 122 827 67 749 q 273 949 178 906 q 488 992 368 992 q 791 909 679 992 q 903 681 903 826 q 828 485 903 574 q 603 293 754 397 l 593 286 l 886 286 q 913 275 901 286 q 924 249 924 264 l 924 38 q 913 11 924 22 q 886 0 901 0 l 86 0 z "},"3":{"ha":985,"x_min":32,"x_max":938,"o":"m 483 -14 q 227 33 328 -14 q 81 146 126 79 q 32 275 35 213 q 41 297 32 288 q 63 306 50 306 l 342 306 q 368 300 358 306 q 389 283 378 294 q 424 263 403 269 q 485 256 444 256 q 553 276 531 256 q 576 329 576 297 q 485 390 576 390 l 311 390 q 285 401 296 390 q 274 428 274 413 l 274 540 q 282 574 274 560 q 301 596 290 589 l 494 701 l 129 701 q 103 713 114 701 q 92 739 92 724 l 92 935 q 103 961 92 950 q 129 972 114 972 l 840 972 q 867 961 856 972 q 878 935 878 950 l 878 758 q 869 726 878 740 q 850 703 861 711 l 688 594 l 688 590 q 938 304 938 531 q 879 138 938 210 q 717 26 821 65 q 483 -14 614 -14 z "},"4":{"ha":1021,"x_min":36,"x_max":982,"o":"m 526 0 q 500 11 511 0 q 489 38 489 22 l 489 156 l 74 156 q 47 167 58 156 q 36 193 36 178 l 36 392 q 51 435 36 415 l 444 949 q 496 972 464 972 l 785 972 q 811 961 800 972 q 822 935 822 950 l 822 438 l 943 438 q 971 426 960 438 q 982 400 982 415 l 982 193 q 971 167 982 178 q 944 156 960 156 l 822 156 l 822 38 q 811 11 822 22 q 785 0 800 0 l 526 0 m 353 422 l 499 422 l 499 622 l 353 422 z "},"5":{"ha":958,"x_min":32,"x_max":922,"o":"m 478 -17 q 236 25 336 -17 q 85 138 136 67 q 32 294 35 208 q 41 316 32 307 q 63 325 50 325 l 343 325 q 393 303 375 325 q 431 265 414 275 q 479 254 447 254 q 540 277 515 254 q 564 340 564 300 q 541 400 564 375 q 479 425 518 425 q 442 419 456 425 q 414 403 428 414 q 390 392 400 392 l 114 392 q 92 401 101 392 q 83 422 83 410 l 139 925 q 157 960 142 949 q 193 972 172 972 l 814 972 q 840 961 829 972 q 851 935 851 950 l 851 739 q 840 713 851 724 q 814 701 829 701 l 408 701 l 397 603 q 476 640 436 629 q 583 650 515 650 q 747 608 669 650 q 874 493 825 567 q 922 331 922 419 q 872 157 922 236 q 720 31 821 78 q 478 -17 619 -17 z "},"6":{"ha":961,"x_min":28,"x_max":932,"o":"m 486 -14 q 250 28 354 -14 q 87 153 146 71 q 28 346 28 235 q 71 505 28 424 q 163 649 114 586 l 389 944 q 443 972 408 972 l 722 972 q 744 963 735 972 q 753 942 753 954 q 747 924 753 932 l 572 692 l 582 692 q 738 644 657 685 q 876 528 819 603 q 932 353 932 454 q 875 165 932 249 q 716 34 818 82 q 486 -14 614 -14 m 482 257 q 551 281 524 257 q 578 347 578 306 q 551 414 578 390 q 482 438 524 438 q 413 414 440 438 q 386 347 386 390 q 413 281 386 306 q 482 257 440 257 z "},"7":{"ha":868,"x_min":39,"x_max":832,"o":"m 186 0 q 165 9 174 0 q 156 31 156 18 q 158 43 156 38 l 458 688 l 76 688 q 50 699 61 688 q 39 725 39 710 l 39 935 q 50 961 39 950 q 76 972 61 972 l 794 972 q 822 961 811 972 q 832 935 832 950 l 832 751 q 827 715 832 731 q 814 681 822 700 l 511 32 q 454 0 493 0 l 186 0 z "},"8":{"ha":989,"x_min":50,"x_max":939,"o":"m 493 -14 q 240 31 339 -14 q 95 147 140 75 q 50 303 50 218 q 83 426 50 369 q 171 514 117 483 q 85 694 85 576 q 125 840 85 774 q 257 946 165 906 q 493 986 349 986 q 800 903 703 986 q 897 697 897 821 q 815 514 897 578 q 906 428 872 486 q 939 300 939 369 q 893 145 939 217 q 747 30 847 74 q 493 -14 647 -14 m 493 601 q 558 623 533 601 q 582 676 582 644 q 558 730 582 708 q 493 751 533 751 q 429 730 453 751 q 406 676 406 708 q 429 623 406 644 q 493 601 453 601 m 493 219 q 563 242 536 219 q 590 301 590 264 q 563 361 590 339 q 493 383 536 383 q 423 361 450 383 q 396 301 396 339 q 423 242 396 264 q 493 219 450 219 z "},"9":{"ha":949,"x_min":29,"x_max":919,"o":"m 219 0 q 198 9 207 0 q 189 31 189 18 q 194 49 189 40 l 376 292 q 365 293 369 292 q 213 340 290 301 q 82 451 135 379 q 29 624 29 522 q 80 803 29 721 q 230 936 131 886 q 468 986 329 986 q 712 942 610 986 q 867 820 814 899 q 919 638 919 742 q 885 493 919 560 q 778 329 850 426 l 736 272 l 553 28 q 499 0 533 0 l 219 0 m 472 535 q 538 558 514 535 q 561 625 561 582 q 537 692 561 668 q 472 715 513 715 q 408 692 432 715 q 383 625 383 668 q 407 558 383 582 q 472 535 431 535 z "},"\u0000":{"ha":0,"x_min":0,"x_max":0,"o":""},"\r":{"ha":258,"x_min":0,"x_max":0,"o":""}," ":{"ha":258,"x_min":0,"x_max":0,"o":""},"A":{"ha":1049,"x_min":0,"x_max":1049,"o":"m 31 0 q 9 9 18 0 q 0 31 0 18 q 1 40 0 36 l 311 926 q 332 958 317 944 q 374 972 347 972 l 675 972 q 717 958 701 972 q 738 926 732 944 l 1047 40 q 1049 31 1049 36 q 1040 9 1049 18 q 1018 0 1031 0 l 761 0 q 707 35 719 0 l 674 126 l 375 126 l 342 35 q 288 0 329 0 l 31 0 m 446 397 l 603 397 l 524 656 l 446 397 z "},"Á":{"ha":1049,"x_min":0,"x_max":1049,"o":"m 31 0 q 9 9 18 0 q 0 31 0 18 q 1 40 0 36 l 311 926 q 332 958 317 944 q 374 972 347 972 l 675 972 q 717 958 701 972 q 738 926 732 944 l 1047 40 q 1049 31 1049 36 q 1040 9 1049 18 q 1018 0 1031 0 l 761 0 q 707 35 719 0 l 674 126 l 375 126 l 342 35 q 288 0 329 0 l 31 0 m 446 397 l 603 397 l 524 656 l 446 397 m 394 1042 q 372 1064 372 1042 q 379 1082 372 1075 l 518 1251 q 543 1273 533 1268 q 569 1278 553 1278 l 842 1278 q 861 1270 854 1278 q 868 1250 868 1263 q 861 1233 868 1240 l 657 1065 q 630 1047 642 1053 q 599 1042 618 1042 l 394 1042 z "},"Ă":{"ha":1049,"x_min":0,"x_max":1049,"o":"m 31 0 q 9 9 18 0 q 0 31 0 18 q 1 40 0 36 l 311 926 q 332 958 317 944 q 374 972 347 972 l 675 972 q 717 958 701 972 q 738 926 732 944 l 1047 40 q 1049 31 1049 36 q 1040 9 1049 18 q 1018 0 1031 0 l 761 0 q 707 35 719 0 l 674 126 l 375 126 l 342 35 q 288 0 329 0 l 31 0 m 446 397 l 603 397 l 524 656 l 446 397 m 525 1035 q 342 1094 404 1035 q 279 1251 279 1154 q 286 1270 279 1263 q 306 1278 293 1278 l 443 1278 q 463 1270 456 1278 q 469 1251 469 1263 q 525 1175 469 1175 q 581 1251 581 1175 q 588 1270 581 1263 q 607 1278 594 1278 l 744 1278 q 764 1270 757 1278 q 771 1251 771 1263 q 708 1094 771 1154 q 525 1035 646 1035 z "},"Â":{"ha":1049,"x_min":0,"x_max":1049,"o":"m 31 0 q 9 9 18 0 q 0 31 0 18 q 1 40 0 36 l 311 926 q 332 958 317 944 q 374 972 347 972 l 675 972 q 717 958 701 972 q 738 926 732 944 l 1047 40 q 1049 31 1049 36 q 1040 9 1049 18 q 1018 0 1031 0 l 761 0 q 707 35 719 0 l 674 126 l 375 126 l 342 35 q 288 0 329 0 l 31 0 m 446 397 l 603 397 l 524 656 l 446 397 m 243 1042 q 221 1064 221 1042 q 228 1082 221 1075 l 383 1251 q 408 1272 397 1267 q 435 1278 419 1278 l 615 1278 q 642 1272 631 1278 q 667 1251 653 1267 l 822 1082 q 829 1064 829 1075 q 807 1042 829 1042 l 708 1042 q 653 1051 672 1042 l 525 1110 l 397 1051 q 342 1042 378 1042 l 243 1042 z "},"Ä":{"ha":1049,"x_min":0,"x_max":1049,"o":"m 31 0 q 9 9 18 0 q 0 31 0 18 q 1 40 0 36 l 311 926 q 332 958 317 944 q 374 972 347 972 l 675 972 q 717 958 701 972 q 738 926 732 944 l 1047 40 q 1049 31 1049 36 q 1040 9 1049 18 q 1018 0 1031 0 l 761 0 q 707 35 719 0 l 674 126 l 375 126 l 342 35 q 288 0 329 0 l 31 0 m 446 397 l 603 397 l 524 656 l 446 397 m 251 1042 q 228 1051 238 1042 q 219 1074 219 1060 l 219 1246 q 228 1269 219 1260 q 251 1278 238 1278 l 424 1278 q 447 1269 438 1278 q 456 1246 456 1260 l 456 1074 q 447 1051 456 1060 q 424 1042 438 1042 l 251 1042 m 625 1042 q 602 1051 611 1042 q 593 1074 593 1060 l 593 1246 q 602 1269 593 1260 q 625 1278 611 1278 l 797 1278 q 820 1269 811 1278 q 829 1246 829 1260 l 829 1074 q 820 1051 829 1060 q 797 1042 811 1042 l 625 1042 z "},"À":{"ha":1049,"x_min":0,"x_max":1049,"o":"m 31 0 q 9 9 18 0 q 0 31 0 18 q 1 40 0 36 l 311 926 q 332 958 317 944 q 374 972 347 972 l 675 972 q 717 958 701 972 q 738 926 732 944 l 1047 40 q 1049 31 1049 36 q 1040 9 1049 18 q 1018 0 1031 0 l 761 0 q 707 35 719 0 l 674 126 l 375 126 l 342 35 q 288 0 329 0 l 31 0 m 446 397 l 603 397 l 524 656 l 446 397 m 447 1042 q 416 1047 428 1042 q 389 1065 404 1053 l 185 1233 q 178 1250 178 1240 q 185 1270 178 1263 q 204 1278 192 1278 l 476 1278 q 503 1273 493 1278 q 528 1251 513 1268 l 667 1082 q 674 1064 674 1075 q 651 1042 674 1042 l 447 1042 z "},"Ā":{"ha":1049,"x_min":0,"x_max":1049,"o":"m 31 0 q 9 9 18 0 q 0 31 0 18 q 1 40 0 36 l 311 926 q 332 958 317 944 q 374 972 347 972 l 675 972 q 717 958 701 972 q 738 926 732 944 l 1047 40 q 1049 31 1049 36 q 1040 9 1049 18 q 1018 0 1031 0 l 761 0 q 707 35 719 0 l 674 126 l 375 126 l 342 35 q 288 0 329 0 l 31 0 m 446 397 l 603 397 l 524 656 l 446 397 m 263 1042 q 240 1051 249 1042 q 231 1074 231 1060 l 231 1218 q 240 1241 231 1232 q 263 1250 249 1250 l 786 1250 q 809 1241 800 1250 q 818 1218 818 1232 l 818 1074 q 809 1051 818 1060 q 786 1042 800 1042 l 263 1042 z "},"Ą":{"ha":1049,"x_min":0,"x_max":1049,"o":"m 978 -306 q 799 -240 858 -306 q 739 -68 739 -174 q 746 0 739 -35 q 707 35 715 6 l 674 126 l 375 126 l 342 35 q 288 0 329 0 l 31 0 q 9 9 18 0 q 0 31 0 18 q 1 40 0 36 l 311 926 q 332 958 317 944 q 374 972 347 972 l 675 972 q 717 958 701 972 q 738 926 732 944 l 1047 40 q 1049 31 1049 36 q 1040 9 1049 18 q 1018 0 1031 0 l 975 0 q 928 -22 943 -1 q 914 -68 914 -43 q 931 -115 914 -94 q 983 -136 947 -136 l 997 -136 q 1024 -147 1013 -136 q 1035 -174 1035 -158 l 1035 -268 q 1024 -294 1035 -283 q 997 -306 1013 -306 l 978 -306 m 446 397 l 603 397 l 524 656 l 446 397 z "},"Å":{"ha":1049,"x_min":0,"x_max":1049,"o":"m 31 0 q 9 9 18 0 q 0 31 0 18 q 1 40 0 36 l 311 926 q 332 958 317 944 q 374 972 347 972 l 675 972 q 717 958 701 972 q 738 926 732 944 l 1047 40 q 1049 31 1049 36 q 1040 9 1049 18 q 1018 0 1031 0 l 761 0 q 707 35 719 0 l 674 126 l 375 126 l 342 35 q 288 0 329 0 l 31 0 m 446 397 l 603 397 l 524 656 l 446 397 m 525 1028 q 426 1065 467 1028 q 386 1160 386 1103 q 426 1254 386 1217 q 525 1292 467 1292 q 624 1254 583 1292 q 664 1160 664 1217 q 624 1065 664 1103 q 525 1028 583 1028 m 525 1118 q 555 1130 543 1118 q 567 1160 567 1142 q 555 1190 567 1178 q 525 1201 543 1201 q 495 1190 507 1201 q 483 1160 483 1178 q 495 1130 483 1142 q 525 1118 507 1118 z "},"Ã":{"ha":1049,"x_min":0,"x_max":1049,"o":"m 31 0 q 9 9 18 0 q 0 31 0 18 q 1 40 0 36 l 311 926 q 332 958 317 944 q 374 972 347 972 l 675 972 q 717 958 701 972 q 738 926 732 944 l 1047 40 q 1049 31 1049 36 q 1040 9 1049 18 q 1018 0 1031 0 l 761 0 q 707 35 719 0 l 674 126 l 375 126 l 342 35 q 288 0 329 0 l 31 0 m 446 397 l 603 397 l 524 656 l 446 397 m 618 1035 q 565 1042 588 1035 q 518 1064 543 1050 q 484 1079 499 1074 q 454 1085 469 1085 q 430 1078 439 1085 q 413 1061 421 1072 q 385 1042 400 1042 l 268 1042 q 249 1049 257 1042 q 242 1067 242 1057 q 259 1158 242 1107 q 319 1247 276 1208 q 431 1285 361 1285 q 483 1277 461 1285 q 531 1256 506 1269 q 565 1240 550 1246 q 594 1235 579 1235 q 618 1241 610 1235 q 635 1258 626 1247 q 647 1272 640 1265 q 664 1278 654 1278 l 781 1278 q 800 1270 793 1278 q 807 1251 807 1263 q 790 1160 807 1211 q 730 1072 772 1110 q 618 1035 688 1035 z "},"Æ":{"ha":1396,"x_min":6,"x_max":1344,"o":"m 36 0 q 15 9 24 0 q 6 31 6 18 q 7 40 6 36 l 317 926 q 338 958 322 944 q 379 972 353 972 l 1296 972 q 1322 961 1311 972 q 1333 935 1333 950 l 1333 739 q 1322 713 1333 724 q 1296 701 1311 701 l 921 701 l 921 614 l 1265 614 q 1292 603 1281 614 q 1303 576 1303 592 l 1303 396 q 1292 369 1303 381 q 1265 358 1281 358 l 921 358 l 921 271 l 1307 271 q 1333 260 1322 271 q 1344 233 1344 249 l 1344 38 q 1333 11 1344 22 q 1307 0 1322 0 l 625 0 q 599 11 610 0 q 588 38 588 22 l 588 126 l 381 126 l 347 35 q 293 0 335 0 l 36 0 m 451 397 l 588 397 l 588 701 l 543 701 l 451 397 z "},"Ǽ":{"ha":1396,"x_min":6,"x_max":1344,"o":"m 36 0 q 15 9 24 0 q 6 31 6 18 q 7 40 6 36 l 317 926 q 338 958 322 944 q 379 972 353 972 l 1296 972 q 1322 961 1311 972 q 1333 935 1333 950 l 1333 739 q 1322 713 1333 724 q 1296 701 1311 701 l 921 701 l 921 614 l 1265 614 q 1292 603 1281 614 q 1303 576 1303 592 l 1303 396 q 1292 369 1303 381 q 1265 358 1281 358 l 921 358 l 921 271 l 1307 271 q 1333 260 1322 271 q 1344 233 1344 249 l 1344 38 q 1333 11 1344 22 q 1307 0 1322 0 l 625 0 q 599 11 610 0 q 588 38 588 22 l 588 126 l 381 126 l 347 35 q 293 0 335 0 l 36 0 m 451 397 l 588 397 l 588 701 l 543 701 l 451 397 m 568 1042 q 546 1064 546 1042 q 553 1082 546 1075 l 692 1251 q 717 1273 707 1268 q 743 1278 726 1278 l 1015 1278 q 1035 1270 1028 1278 q 1042 1250 1042 1263 q 1035 1233 1042 1240 l 831 1065 q 803 1047 815 1053 q 772 1042 792 1042 l 568 1042 z "},"B":{"ha":1019,"x_min":76,"x_max":981,"o":"m 114 0 q 88 11 99 0 q 76 38 76 22 l 76 935 q 88 961 76 950 q 114 972 99 972 l 575 972 q 866 900 772 972 q 960 681 960 828 q 925 574 960 621 q 849 507 890 528 q 942 428 904 485 q 981 306 981 372 q 881 76 981 151 q 589 0 781 0 l 114 0 m 540 607 q 583 626 568 607 q 597 669 597 644 q 583 714 597 694 q 540 733 568 733 l 424 733 l 424 607 l 540 607 m 553 239 q 601 260 585 239 q 617 307 617 281 q 599 354 617 333 q 553 375 582 375 l 424 375 l 424 239 l 553 239 z "},"C":{"ha":1018,"x_min":50,"x_max":985,"o":"m 517 -14 q 183 78 307 -14 q 51 363 60 171 q 50 485 50 400 q 51 610 50 571 q 186 891 60 796 q 517 986 313 986 q 747 949 642 986 q 917 831 851 911 q 985 631 983 751 q 976 609 985 618 q 954 600 967 600 l 671 600 q 638 608 649 600 q 619 640 628 617 q 579 699 604 682 q 515 715 554 715 q 440 690 467 715 q 413 603 414 664 q 411 488 411 565 q 413 369 411 410 q 440 283 414 308 q 515 257 467 257 q 619 332 594 257 q 637 364 626 356 q 671 372 647 372 l 954 372 q 976 363 967 372 q 985 342 985 354 q 917 141 983 221 q 747 24 851 61 q 517 -14 642 -14 z "},"Ć":{"ha":1018,"x_min":50,"x_max":985,"o":"m 517 -14 q 183 78 307 -14 q 51 363 60 171 q 50 485 50 400 q 51 610 50 571 q 186 891 60 796 q 517 986 313 986 q 747 949 642 986 q 917 831 851 911 q 985 631 983 751 q 976 609 985 618 q 954 600 967 600 l 671 600 q 638 608 649 600 q 619 640 628 617 q 579 699 604 682 q 515 715 554 715 q 440 690 467 715 q 413 603 414 664 q 411 488 411 565 q 413 369 411 410 q 440 283 414 308 q 515 257 467 257 q 619 332 594 257 q 637 364 626 356 q 671 372 647 372 l 954 372 q 976 363 967 372 q 985 342 985 354 q 917 141 983 221 q 747 24 851 61 q 517 -14 642 -14 m 379 1042 q 357 1064 357 1042 q 364 1082 357 1075 l 503 1251 q 528 1273 518 1268 q 554 1278 538 1278 l 826 1278 q 846 1270 839 1278 q 853 1250 853 1263 q 846 1233 853 1240 l 642 1065 q 615 1047 626 1053 q 583 1042 603 1042 l 379 1042 z "},"Č":{"ha":1018,"x_min":50,"x_max":985,"o":"m 517 -14 q 183 78 307 -14 q 51 363 60 171 q 50 485 50 400 q 51 610 50 571 q 186 891 60 796 q 517 986 313 986 q 747 949 642 986 q 917 831 851 911 q 985 631 983 751 q 976 609 985 618 q 954 600 967 600 l 671 600 q 638 608 649 600 q 619 640 628 617 q 579 699 604 682 q 515 715 554 715 q 440 690 467 715 q 413 603 414 664 q 411 488 411 565 q 413 369 411 410 q 440 283 414 308 q 515 257 467 257 q 619 332 594 257 q 637 364 626 356 q 671 372 647 372 l 954 372 q 976 363 967 372 q 985 342 985 354 q 917 141 983 221 q 747 24 851 61 q 517 -14 642 -14 m 419 1042 q 393 1047 404 1042 q 368 1068 382 1053 l 213 1238 q 206 1256 206 1244 q 228 1278 206 1278 l 326 1278 q 382 1268 363 1278 l 510 1210 l 638 1268 q 693 1278 657 1278 l 792 1278 q 814 1256 814 1278 q 807 1238 814 1244 l 651 1068 q 626 1047 638 1053 q 600 1042 615 1042 l 419 1042 z "},"Ç":{"ha":1018,"x_min":50,"x_max":985,"o":"m 508 -306 q 428 -288 464 -306 q 393 -251 393 -271 q 401 -235 393 -243 l 431 -210 q 449 -201 442 -201 q 470 -208 453 -201 q 508 -214 488 -214 q 537 -204 526 -214 q 547 -181 547 -194 q 538 -157 547 -167 q 508 -147 528 -147 q 482 -151 500 -147 q 456 -156 464 -156 q 433 -147 442 -156 l 404 -118 q 393 -99 393 -107 q 401 -72 393 -89 l 429 -8 q 158 101 257 10 q 51 363 58 192 q 50 485 50 400 q 51 610 50 571 q 186 891 60 796 q 517 986 313 986 q 747 949 642 986 q 917 831 851 911 q 985 631 983 751 q 976 609 985 618 q 954 600 967 600 l 671 600 q 638 608 649 600 q 619 640 628 617 q 579 699 604 682 q 515 715 554 715 q 440 690 467 715 q 413 603 414 664 q 411 488 411 565 q 413 369 411 410 q 440 283 414 308 q 515 257 467 257 q 619 332 594 257 q 637 364 626 356 q 671 372 647 372 l 954 372 q 976 363 967 372 q 985 342 985 354 q 917 141 983 221 q 747 24 851 61 q 517 -14 642 -14 l 492 -62 q 513 -58 499 -60 q 533 -56 526 -56 q 616 -90 586 -56 q 646 -181 646 -125 q 608 -271 646 -236 q 508 -306 571 -306 z "},"Ĉ":{"ha":1018,"x_min":50,"x_max":985,"o":"m 517 -14 q 183 78 307 -14 q 51 363 60 171 q 50 485 50 400 q 51 610 50 571 q 186 891 60 796 q 517 986 313 986 q 747 949 642 986 q 917 831 851 911 q 985 631 983 751 q 976 609 985 618 q 954 600 967 600 l 671 600 q 638 608 649 600 q 619 640 628 617 q 579 699 604 682 q 515 715 554 715 q 440 690 467 715 q 413 603 414 664 q 411 488 411 565 q 413 369 411 410 q 440 283 414 308 q 515 257 467 257 q 619 332 594 257 q 637 364 626 356 q 671 372 647 372 l 954 372 q 976 363 967 372 q 985 342 985 354 q 917 141 983 221 q 747 24 851 61 q 517 -14 642 -14 m 228 1042 q 206 1064 206 1042 q 213 1082 206 1075 l 368 1251 q 393 1272 382 1267 q 419 1278 404 1278 l 600 1278 q 626 1272 615 1278 q 651 1251 638 1267 l 807 1082 q 814 1064 814 1075 q 792 1042 814 1042 l 693 1042 q 638 1051 657 1042 l 510 1110 l 382 1051 q 326 1042 363 1042 l 228 1042 z "},"Ċ":{"ha":1018,"x_min":50,"x_max":985,"o":"m 517 -14 q 183 78 307 -14 q 51 363 60 171 q 50 485 50 400 q 51 610 50 571 q 186 891 60 796 q 517 986 313 986 q 747 949 642 986 q 917 831 851 911 q 985 631 983 751 q 976 609 985 618 q 954 600 967 600 l 671 600 q 638 608 649 600 q 619 640 628 617 q 579 699 604 682 q 515 715 554 715 q 440 690 467 715 q 413 603 414 664 q 411 488 411 565 q 413 369 411 410 q 440 283 414 308 q 515 257 467 257 q 619 332 594 257 q 637 364 626 356 q 671 372 647 372 l 954 372 q 976 363 967 372 q 985 342 985 354 q 917 141 983 221 q 747 24 851 61 q 517 -14 642 -14 m 415 1042 q 392 1051 401 1042 q 383 1074 383 1060 l 383 1263 q 392 1285 383 1276 q 415 1294 401 1294 l 604 1294 q 627 1285 618 1294 q 636 1263 636 1276 l 636 1074 q 627 1051 636 1060 q 604 1042 618 1042 l 415 1042 z "},"D":{"ha":1028,"x_min":76,"x_max":981,"o":"m 114 0 q 88 11 99 0 q 76 38 76 22 l 76 935 q 88 961 76 950 q 114 972 99 972 l 514 972 q 749 928 646 972 q 913 797 851 883 q 978 590 974 711 q 981 485 981 513 q 978 383 981 458 q 848 96 969 192 q 521 0 726 0 l 114 0 m 514 271 q 592 299 563 271 q 625 383 622 328 q 628 488 628 424 q 625 590 628 553 q 590 674 622 646 q 507 701 557 701 l 424 701 l 424 271 l 514 271 z "},"Ð":{"ha":1064,"x_min":19,"x_max":1013,"o":"m 147 0 q 121 11 132 0 q 110 38 110 22 l 110 381 l 57 381 q 31 392 42 381 q 19 418 19 403 l 19 558 q 31 585 19 574 q 57 596 42 596 l 110 596 l 110 935 q 121 961 110 950 q 147 972 132 972 l 547 972 q 785 928 679 972 q 951 797 890 883 q 1013 590 1013 711 l 1013 383 q 885 97 1013 194 q 549 0 757 0 l 147 0 m 547 271 q 624 299 596 271 q 651 383 651 328 l 651 590 q 624 674 651 647 q 547 701 596 701 l 457 701 l 457 596 l 535 596 q 561 585 550 596 q 572 558 572 574 l 572 418 q 561 392 572 403 q 535 381 550 381 l 457 381 l 457 271 l 547 271 z "},"Ď":{"ha":1028,"x_min":76,"x_max":981,"o":"m 114 0 q 88 11 99 0 q 76 38 76 22 l 76 935 q 88 961 76 950 q 114 972 99 972 l 514 972 q 749 928 646 972 q 913 797 851 883 q 978 590 974 711 q 981 485 981 513 q 978 383 981 458 q 848 96 969 192 q 521 0 726 0 l 114 0 m 514 271 q 592 299 563 271 q 625 383 622 328 q 628 488 628 424 q 625 590 628 553 q 590 674 622 646 q 507 701 557 701 l 424 701 l 424 271 l 514 271 m 417 1042 q 390 1047 401 1042 q 365 1068 379 1053 l 210 1238 q 203 1256 203 1244 q 225 1278 203 1278 l 324 1278 q 379 1268 360 1278 l 507 1210 l 635 1268 q 690 1278 654 1278 l 789 1278 q 811 1256 811 1278 q 804 1238 811 1244 l 649 1068 q 624 1047 635 1053 q 597 1042 613 1042 l 417 1042 z "},"Đ":{"ha":1061,"x_min":19,"x_max":1014,"o":"m 147 0 q 121 11 132 0 q 110 38 110 22 l 110 382 l 57 382 q 31 393 42 382 q 19 419 19 404 l 19 560 q 31 586 19 575 q 57 597 42 597 l 110 597 l 110 935 q 121 961 110 950 q 147 972 132 972 l 547 972 q 782 928 679 972 q 946 797 885 883 q 1011 590 1007 711 q 1014 485 1014 513 q 1011 383 1014 458 q 879 97 1003 193 q 549 0 756 0 l 147 0 m 547 271 q 626 299 596 271 q 658 383 656 328 q 661 488 661 424 q 658 590 661 553 q 626 674 656 646 q 547 701 596 701 l 457 701 l 457 597 l 535 597 q 561 586 550 597 q 572 560 572 575 l 572 419 q 561 393 572 404 q 535 382 550 382 l 457 382 l 457 271 l 547 271 z "},"E":{"ha":926,"x_min":76,"x_max":875,"o":"m 114 0 q 88 11 99 0 q 76 38 76 22 l 76 935 q 88 961 76 950 q 114 972 99 972 l 826 972 q 853 961 842 972 q 864 935 864 950 l 864 739 q 853 713 864 724 q 826 701 842 701 l 410 701 l 410 614 l 796 614 q 822 603 811 614 q 833 576 833 592 l 833 396 q 822 369 833 381 q 796 358 811 358 l 410 358 l 410 271 l 838 271 q 864 260 853 271 q 875 233 875 249 l 875 38 q 864 11 875 22 q 838 0 853 0 l 114 0 z "},"É":{"ha":926,"x_min":76,"x_max":875,"o":"m 114 0 q 88 11 99 0 q 76 38 76 22 l 76 935 q 88 961 76 950 q 114 972 99 972 l 826 972 q 853 961 842 972 q 864 935 864 950 l 864 739 q 853 713 864 724 q 826 701 842 701 l 410 701 l 410 614 l 796 614 q 822 603 811 614 q 833 576 833 592 l 833 396 q 822 369 833 381 q 796 358 811 358 l 410 358 l 410 271 l 838 271 q 864 260 853 271 q 875 233 875 249 l 875 38 q 864 11 875 22 q 838 0 853 0 l 114 0 m 333 1042 q 311 1064 311 1042 q 318 1082 311 1075 l 457 1251 q 482 1273 472 1268 q 508 1278 492 1278 l 781 1278 q 800 1270 793 1278 q 807 1250 807 1263 q 800 1233 807 1240 l 596 1065 q 569 1047 581 1053 q 538 1042 557 1042 l 333 1042 z "},"Ĕ":{"ha":926,"x_min":76,"x_max":875,"o":"m 114 0 q 88 11 99 0 q 76 38 76 22 l 76 935 q 88 961 76 950 q 114 972 99 972 l 826 972 q 853 961 842 972 q 864 935 864 950 l 864 739 q 853 713 864 724 q 826 701 842 701 l 410 701 l 410 614 l 796 614 q 822 603 811 614 q 833 576 833 592 l 833 396 q 822 369 833 381 q 796 358 811 358 l 410 358 l 410 271 l 838 271 q 864 260 853 271 q 875 233 875 249 l 875 38 q 864 11 875 22 q 838 0 853 0 l 114 0 m 464 1035 q 281 1094 343 1035 q 218 1251 218 1154 q 225 1270 218 1263 q 244 1278 232 1278 l 382 1278 q 401 1270 394 1278 q 408 1251 408 1263 q 464 1175 408 1175 q 519 1251 519 1175 q 526 1270 519 1263 q 546 1278 533 1278 l 683 1278 q 703 1270 696 1278 q 710 1251 710 1263 q 647 1094 710 1154 q 464 1035 585 1035 z "},"Ě":{"ha":926,"x_min":76,"x_max":875,"o":"m 114 0 q 88 11 99 0 q 76 38 76 22 l 76 935 q 88 961 76 950 q 114 972 99 972 l 826 972 q 853 961 842 972 q 864 935 864 950 l 864 739 q 853 713 864 724 q 826 701 842 701 l 410 701 l 410 614 l 796 614 q 822 603 811 614 q 833 576 833 592 l 833 396 q 822 369 833 381 q 796 358 811 358 l 410 358 l 410 271 l 838 271 q 864 260 853 271 q 875 233 875 249 l 875 38 q 864 11 875 22 q 838 0 853 0 l 114 0 m 374 1042 q 347 1047 358 1042 q 322 1068 336 1053 l 167 1238 q 160 1256 160 1244 q 182 1278 160 1278 l 281 1278 q 336 1268 317 1278 l 464 1210 l 592 1268 q 647 1278 611 1278 l 746 1278 q 768 1256 768 1278 q 761 1238 768 1244 l 606 1068 q 581 1047 592 1053 q 554 1042 569 1042 l 374 1042 z "},"Ê":{"ha":926,"x_min":76,"x_max":875,"o":"m 114 0 q 88 11 99 0 q 76 38 76 22 l 76 935 q 88 961 76 950 q 114 972 99 972 l 826 972 q 853 961 842 972 q 864 935 864 950 l 864 739 q 853 713 864 724 q 826 701 842 701 l 410 701 l 410 614 l 796 614 q 822 603 811 614 q 833 576 833 592 l 833 396 q 822 369 833 381 q 796 358 811 358 l 410 358 l 410 271 l 838 271 q 864 260 853 271 q 875 233 875 249 l 875 38 q 864 11 875 22 q 838 0 853 0 l 114 0 m 182 1042 q 160 1064 160 1042 q 167 1082 160 1075 l 322 1251 q 347 1272 336 1267 q 374 1278 358 1278 l 554 1278 q 581 1272 569 1278 q 606 1251 592 1267 l 761 1082 q 768 1064 768 1075 q 746 1042 768 1042 l 647 1042 q 592 1051 611 1042 l 464 1110 l 336 1051 q 281 1042 317 1042 l 182 1042 z "},"Ë":{"ha":926,"x_min":76,"x_max":875,"o":"m 114 0 q 88 11 99 0 q 76 38 76 22 l 76 935 q 88 961 76 950 q 114 972 99 972 l 826 972 q 853 961 842 972 q 864 935 864 950 l 864 739 q 853 713 864 724 q 826 701 842 701 l 410 701 l 410 614 l 796 614 q 822 603 811 614 q 833 576 833 592 l 833 396 q 822 369 833 381 q 796 358 811 358 l 410 358 l 410 271 l 838 271 q 864 260 853 271 q 875 233 875 249 l 875 38 q 864 11 875 22 q 838 0 853 0 l 114 0 m 190 1042 q 167 1051 176 1042 q 158 1074 158 1060 l 158 1246 q 167 1269 158 1260 q 190 1278 176 1278 l 363 1278 q 385 1269 376 1278 q 394 1246 394 1260 l 394 1074 q 385 1051 394 1060 q 363 1042 376 1042 l 190 1042 m 564 1042 q 541 1051 550 1042 q 532 1074 532 1060 l 532 1246 q 541 1269 532 1260 q 564 1278 550 1278 l 736 1278 q 759 1269 750 1278 q 768 1246 768 1260 l 768 1074 q 759 1051 768 1060 q 736 1042 750 1042 l 564 1042 z "},"Ė":{"ha":926,"x_min":76,"x_max":875,"o":"m 114 0 q 88 11 99 0 q 76 38 76 22 l 76 935 q 88 961 76 950 q 114 972 99 972 l 826 972 q 853 961 842 972 q 864 935 864 950 l 864 739 q 853 713 864 724 q 826 701 842 701 l 410 701 l 410 614 l 796 614 q 822 603 811 614 q 833 576 833 592 l 833 396 q 822 369 833 381 q 796 358 811 358 l 410 358 l 410 271 l 838 271 q 864 260 853 271 q 875 233 875 249 l 875 38 q 864 11 875 22 q 838 0 853 0 l 114 0 m 369 1042 q 347 1051 356 1042 q 338 1074 338 1060 l 338 1263 q 347 1285 338 1276 q 369 1294 356 1294 l 558 1294 q 581 1285 572 1294 q 590 1263 590 1276 l 590 1074 q 581 1051 590 1060 q 558 1042 572 1042 l 369 1042 z "},"È":{"ha":926,"x_min":76,"x_max":875,"o":"m 114 0 q 88 11 99 0 q 76 38 76 22 l 76 935 q 88 961 76 950 q 114 972 99 972 l 826 972 q 853 961 842 972 q 864 935 864 950 l 864 739 q 853 713 864 724 q 826 701 842 701 l 410 701 l 410 614 l 796 614 q 822 603 811 614 q 833 576 833 592 l 833 396 q 822 369 833 381 q 796 358 811 358 l 410 358 l 410 271 l 838 271 q 864 260 853 271 q 875 233 875 249 l 875 38 q 864 11 875 22 q 838 0 853 0 l 114 0 m 386 1042 q 355 1047 367 1042 q 328 1065 343 1053 l 124 1233 q 117 1250 117 1240 q 124 1270 117 1263 q 143 1278 131 1278 l 415 1278 q 442 1273 432 1278 q 467 1251 451 1268 l 606 1082 q 613 1064 613 1075 q 590 1042 613 1042 l 386 1042 z "},"Ē":{"ha":926,"x_min":76,"x_max":875,"o":"m 114 0 q 88 11 99 0 q 76 38 76 22 l 76 935 q 88 961 76 950 q 114 972 99 972 l 826 972 q 853 961 842 972 q 864 935 864 950 l 864 739 q 853 713 864 724 q 826 701 842 701 l 410 701 l 410 614 l 796 614 q 822 603 811 614 q 833 576 833 592 l 833 396 q 822 369 833 381 q 796 358 811 358 l 410 358 l 410 271 l 838 271 q 864 260 853 271 q 875 233 875 249 l 875 38 q 864 11 875 22 q 838 0 853 0 l 114 0 m 201 1042 q 178 1051 188 1042 q 169 1074 169 1060 l 169 1218 q 178 1241 169 1232 q 201 1250 188 1250 l 725 1250 q 748 1241 739 1250 q 757 1218 757 1232 l 757 1074 q 748 1051 757 1060 q 725 1042 739 1042 l 201 1042 z "},"Ę":{"ha":926,"x_min":76,"x_max":875,"o":"m 818 -306 q 639 -240 699 -306 q 579 -68 579 -174 q 586 0 579 -37 l 114 0 q 88 11 99 0 q 76 38 76 22 l 76 935 q 88 961 76 950 q 114 972 99 972 l 826 972 q 853 961 842 972 q 864 935 864 950 l 864 739 q 853 713 864 724 q 826 701 842 701 l 410 701 l 410 614 l 796 614 q 822 603 811 614 q 833 576 833 592 l 833 396 q 822 369 833 381 q 796 358 811 358 l 410 358 l 410 271 l 838 271 q 864 260 853 271 q 875 233 875 249 l 875 38 q 864 11 875 22 q 838 0 853 0 l 824 0 q 771 -21 788 0 q 754 -68 754 -42 q 771 -115 754 -94 q 824 -136 788 -136 l 838 -136 q 864 -147 853 -136 q 875 -174 875 -158 l 875 -268 q 864 -294 875 -283 q 838 -306 853 -306 l 818 -306 z "},"F":{"ha":897,"x_min":76,"x_max":851,"o":"m 114 0 q 88 11 99 0 q 76 38 76 22 l 76 935 q 88 961 76 950 q 114 972 99 972 l 814 972 q 840 961 829 972 q 851 935 851 950 l 851 724 q 840 697 851 708 q 814 686 829 686 l 417 686 l 417 583 l 786 583 q 813 572 801 583 q 824 546 824 561 l 824 336 q 813 310 824 321 q 786 299 801 299 l 417 299 l 417 38 q 406 11 417 22 q 379 0 394 0 l 114 0 z "},"G":{"ha":1046,"x_min":50,"x_max":997,"o":"m 519 -14 q 182 82 304 -14 q 51 368 60 178 q 50 492 50 406 q 51 618 50 579 q 183 892 58 799 q 519 986 308 986 q 769 944 661 986 q 936 832 878 903 q 997 676 994 761 q 988 655 997 664 q 967 646 979 646 l 660 646 q 619 661 632 646 q 607 678 618 664 q 573 704 596 693 q 519 715 550 715 q 413 611 417 715 q 411 494 411 574 q 413 375 411 415 q 525 257 417 257 q 612 281 581 257 q 643 356 643 304 l 643 357 l 578 357 q 551 368 563 357 q 540 394 540 379 l 540 549 q 551 575 540 564 q 578 586 563 586 l 960 586 q 986 575 975 586 q 997 549 997 564 l 997 368 q 937 160 997 246 q 769 30 876 74 q 519 -14 661 -14 z "},"Ğ":{"ha":1046,"x_min":50,"x_max":997,"o":"m 519 -14 q 182 82 304 -14 q 51 368 60 178 q 50 492 50 406 q 51 618 50 579 q 183 892 58 799 q 519 986 308 986 q 769 944 661 986 q 936 832 878 903 q 997 676 994 761 q 988 655 997 664 q 967 646 979 646 l 660 646 q 619 661 632 646 q 607 678 618 664 q 573 704 596 693 q 519 715 550 715 q 413 611 417 715 q 411 494 411 574 q 413 375 411 415 q 525 257 417 257 q 612 281 581 257 q 643 356 643 304 l 643 357 l 578 357 q 551 368 563 357 q 540 394 540 379 l 540 549 q 551 575 540 564 q 578 586 563 586 l 960 586 q 986 575 975 586 q 997 549 997 564 l 997 368 q 937 160 997 246 q 769 30 876 74 q 519 -14 661 -14 m 522 1035 q 339 1094 401 1035 q 276 1251 276 1154 q 283 1270 276 1263 q 303 1278 290 1278 l 440 1278 q 460 1270 453 1278 q 467 1251 467 1263 q 522 1175 467 1175 q 578 1251 578 1175 q 585 1270 578 1263 q 604 1278 592 1278 l 742 1278 q 761 1270 754 1278 q 768 1251 768 1263 q 706 1094 768 1154 q 522 1035 643 1035 z "},"Ĝ":{"ha":1046,"x_min":50,"x_max":997,"o":"m 519 -14 q 182 82 304 -14 q 51 368 60 178 q 50 492 50 406 q 51 618 50 579 q 183 892 58 799 q 519 986 308 986 q 769 944 661 986 q 936 832 878 903 q 997 676 994 761 q 988 655 997 664 q 967 646 979 646 l 660 646 q 619 661 632 646 q 607 678 618 664 q 573 704 596 693 q 519 715 550 715 q 413 611 417 715 q 411 494 411 574 q 413 375 411 415 q 525 257 417 257 q 612 281 581 257 q 643 356 643 304 l 643 357 l 578 357 q 551 368 563 357 q 540 394 540 379 l 540 549 q 551 575 540 564 q 578 586 563 586 l 960 586 q 986 575 975 586 q 997 549 997 564 l 997 368 q 937 160 997 246 q 769 30 876 74 q 519 -14 661 -14 m 240 1042 q 218 1064 218 1042 q 225 1082 218 1075 l 381 1251 q 406 1272 394 1267 q 432 1278 417 1278 l 613 1278 q 639 1272 628 1278 q 664 1251 650 1267 l 819 1082 q 826 1064 826 1075 q 804 1042 826 1042 l 706 1042 q 650 1051 669 1042 l 522 1110 l 394 1051 q 339 1042 375 1042 l 240 1042 z "},"Ģ":{"ha":1046,"x_min":50,"x_max":997,"o":"m 519 -14 q 182 82 304 -14 q 51 368 60 178 q 50 492 50 406 q 51 618 50 579 q 183 892 58 799 q 519 986 308 986 q 769 944 661 986 q 936 832 878 903 q 997 676 994 761 q 988 655 997 664 q 967 646 979 646 l 660 646 q 619 661 632 646 q 607 678 618 664 q 573 704 596 693 q 519 715 550 715 q 413 611 417 715 q 411 494 411 574 q 413 375 411 415 q 525 257 417 257 q 612 281 581 257 q 643 356 643 304 l 643 357 l 578 357 q 551 368 563 357 q 540 394 540 379 l 540 549 q 551 575 540 564 q 578 586 563 586 l 960 586 q 986 575 975 586 q 997 549 997 564 l 997 368 q 937 160 997 246 q 769 30 876 74 q 519 -14 661 -14 m 369 -347 q 348 -338 357 -347 q 339 -317 339 -329 l 368 -124 q 387 -85 372 -101 q 428 -69 401 -69 l 638 -69 q 659 -78 650 -69 q 668 -100 668 -87 q 667 -110 668 -106 l 590 -303 q 531 -347 574 -347 l 369 -347 z "},"Ġ":{"ha":1046,"x_min":50,"x_max":997,"o":"m 519 -14 q 182 82 304 -14 q 51 368 60 178 q 50 492 50 406 q 51 618 50 579 q 183 892 58 799 q 519 986 308 986 q 769 944 661 986 q 936 832 878 903 q 997 676 994 761 q 988 655 997 664 q 967 646 979 646 l 660 646 q 619 661 632 646 q 607 678 618 664 q 573 704 596 693 q 519 715 550 715 q 413 611 417 715 q 411 494 411 574 q 413 375 411 415 q 525 257 417 257 q 612 281 581 257 q 643 356 643 304 l 643 357 l 578 357 q 551 368 563 357 q 540 394 540 379 l 540 549 q 551 575 540 564 q 578 586 563 586 l 960 586 q 986 575 975 586 q 997 549 997 564 l 997 368 q 937 160 997 246 q 769 30 876 74 q 519 -14 661 -14 m 428 1042 q 405 1051 414 1042 q 396 1074 396 1060 l 396 1263 q 405 1285 396 1276 q 428 1294 414 1294 l 617 1294 q 640 1285 631 1294 q 649 1263 649 1276 l 649 1074 q 640 1051 649 1060 q 617 1042 631 1042 l 428 1042 z "},"H":{"ha":1072,"x_min":76,"x_max":996,"o":"m 114 0 q 88 10 99 0 q 76 38 76 21 l 76 935 q 88 961 76 950 q 114 972 99 972 l 386 972 q 413 961 401 972 q 424 935 424 950 l 424 643 l 649 643 l 649 935 q 660 961 649 950 q 686 972 671 972 l 958 972 q 985 961 974 972 q 996 935 996 950 l 996 38 q 985 11 996 22 q 958 0 974 0 l 686 0 q 660 11 671 0 q 649 38 649 22 l 649 338 l 424 338 l 424 38 q 413 11 424 22 q 386 0 401 0 l 114 0 z "},"Ħ":{"ha":1072,"x_min":76,"x_max":996,"o":"m 958 972 q 985 961 974 972 q 996 935 996 950 l 996 38 q 985 11 996 22 q 958 0 974 0 l 686 0 q 660 11 671 0 q 649 38 649 22 l 649 338 l 424 338 l 424 38 q 413 11 424 22 q 386 0 401 0 l 114 0 q 88 10 99 0 q 76 38 76 21 l 76 935 q 88 961 76 950 q 114 972 99 972 l 386 972 q 413 961 401 972 q 424 935 424 950 l 424 893 l 649 893 l 649 935 q 660 961 649 950 q 686 972 671 972 l 958 972 m 424 643 l 649 643 l 649 724 l 424 724 l 424 643 z "},"Ĥ":{"ha":1072,"x_min":76,"x_max":996,"o":"m 114 0 q 88 10 99 0 q 76 38 76 21 l 76 935 q 88 961 76 950 q 114 972 99 972 l 386 972 q 413 961 401 972 q 424 935 424 950 l 424 643 l 649 643 l 649 935 q 660 961 649 950 q 686 972 671 972 l 958 972 q 985 961 974 972 q 996 935 996 950 l 996 38 q 985 11 996 22 q 958 0 974 0 l 686 0 q 660 11 671 0 q 649 38 649 22 l 649 338 l 424 338 l 424 38 q 413 11 424 22 q 386 0 401 0 l 114 0 m 254 1042 q 232 1064 232 1042 q 239 1082 232 1075 l 394 1251 q 419 1272 408 1267 q 446 1278 431 1278 l 626 1278 q 653 1272 642 1278 q 678 1251 664 1267 l 833 1082 q 840 1064 840 1075 q 818 1042 840 1042 l 719 1042 q 664 1051 683 1042 l 536 1110 l 408 1051 q 353 1042 389 1042 l 254 1042 z "},"I":{"ha":511,"x_min":76,"x_max":435,"o":"m 114 0 q 88 11 99 0 q 76 38 76 22 l 76 935 q 88 961 76 950 q 114 972 99 972 l 397 972 q 424 961 413 972 q 435 935 435 950 l 435 38 q 424 11 435 22 q 397 0 413 0 l 114 0 z "},"Ĳ":{"ha":1121,"x_min":76,"x_max":1053,"o":"m 114 0 q 88 11 99 0 q 76 38 76 22 l 76 935 q 88 961 76 950 q 114 972 99 972 l 397 972 q 424 961 413 972 q 435 935 435 950 l 435 38 q 424 11 435 22 q 397 0 413 0 l 114 0 m 583 -14 q 557 -3 568 -14 q 546 24 546 8 l 546 247 q 557 274 546 263 q 583 285 568 285 q 668 313 643 285 q 693 414 693 342 l 693 935 q 704 961 693 950 q 731 972 715 972 l 1015 972 q 1042 961 1031 972 q 1053 935 1053 950 l 1053 358 q 997 133 1053 215 q 840 19 942 51 q 583 -14 738 -14 z "},"Í":{"ha":511,"x_min":76,"x_max":599,"o":"m 114 0 q 88 11 99 0 q 76 38 76 22 l 76 935 q 88 961 76 950 q 114 972 99 972 l 397 972 q 424 961 413 972 q 435 935 435 950 l 435 38 q 424 11 435 22 q 397 0 413 0 l 114 0 m 125 1042 q 103 1064 103 1042 q 110 1082 103 1075 l 249 1251 q 274 1273 264 1268 q 300 1278 283 1278 l 572 1278 q 592 1270 585 1278 q 599 1250 599 1263 q 592 1233 599 1240 l 388 1065 q 360 1047 372 1053 q 329 1042 349 1042 l 125 1042 z "},"Ĭ":{"ha":511,"x_min":10,"x_max":501,"o":"m 114 0 q 88 11 99 0 q 76 38 76 22 l 76 935 q 88 961 76 950 q 114 972 99 972 l 397 972 q 424 961 413 972 q 435 935 435 950 l 435 38 q 424 11 435 22 q 397 0 413 0 l 114 0 m 256 1035 q 72 1094 135 1035 q 10 1251 10 1154 q 17 1270 10 1263 q 36 1278 24 1278 l 174 1278 q 193 1270 186 1278 q 200 1251 200 1263 q 256 1175 200 1175 q 311 1251 311 1175 q 318 1270 311 1263 q 338 1278 325 1278 l 475 1278 q 494 1270 488 1278 q 501 1251 501 1263 q 439 1094 501 1154 q 256 1035 376 1035 z "},"Î":{"ha":511,"x_min":-49,"x_max":560,"o":"m 114 0 q 88 11 99 0 q 76 38 76 22 l 76 935 q 88 961 76 950 q 114 972 99 972 l 397 972 q 424 961 413 972 q 435 935 435 950 l 435 38 q 424 11 435 22 q 397 0 413 0 l 114 0 m -26 1042 q -49 1064 -49 1042 q -42 1082 -49 1075 l 114 1251 q 139 1272 128 1267 q 165 1278 150 1278 l 346 1278 q 372 1272 361 1278 q 397 1251 383 1267 l 553 1082 q 560 1064 560 1075 q 538 1042 560 1042 l 439 1042 q 383 1051 403 1042 l 256 1110 l 128 1051 q 72 1042 108 1042 l -26 1042 z "},"Ï":{"ha":511,"x_min":-50,"x_max":560,"o":"m 114 0 q 88 11 99 0 q 76 38 76 22 l 76 935 q 88 961 76 950 q 114 972 99 972 l 397 972 q 424 961 413 972 q 435 935 435 950 l 435 38 q 424 11 435 22 q 397 0 413 0 l 114 0 m -18 1042 q -41 1051 -32 1042 q -50 1074 -50 1060 l -50 1246 q -41 1269 -50 1260 q -18 1278 -32 1278 l 154 1278 q 177 1269 168 1278 q 186 1246 186 1260 l 186 1074 q 177 1051 186 1060 q 154 1042 168 1042 l -18 1042 m 356 1042 q 333 1051 342 1042 q 324 1074 324 1060 l 324 1246 q 333 1269 324 1260 q 356 1278 342 1278 l 528 1278 q 551 1269 542 1278 q 560 1246 560 1260 l 560 1074 q 551 1051 560 1060 q 528 1042 542 1042 l 356 1042 z "},"İ":{"ha":511,"x_min":76,"x_max":435,"o":"m 114 0 q 88 11 99 0 q 76 38 76 22 l 76 935 q 88 961 76 950 q 114 972 99 972 l 397 972 q 424 961 413 972 q 435 935 435 950 l 435 38 q 424 11 435 22 q 397 0 413 0 l 114 0 m 161 1042 q 138 1051 147 1042 q 129 1074 129 1060 l 129 1263 q 138 1285 129 1276 q 161 1294 147 1294 l 350 1294 q 373 1285 364 1294 q 382 1263 382 1276 l 382 1074 q 373 1051 382 1060 q 350 1042 364 1042 l 161 1042 z "},"Ì":{"ha":511,"x_min":-92,"x_max":435,"o":"m 114 0 q 88 11 99 0 q 76 38 76 22 l 76 935 q 88 961 76 950 q 114 972 99 972 l 397 972 q 424 961 413 972 q 435 935 435 950 l 435 38 q 424 11 435 22 q 397 0 413 0 l 114 0 m 178 1042 q 147 1047 158 1042 q 119 1065 135 1053 l -85 1233 q -92 1250 -92 1240 q -85 1270 -92 1263 q -65 1278 -78 1278 l 207 1278 q 233 1273 224 1278 q 258 1251 243 1268 l 397 1082 q 404 1064 404 1075 q 382 1042 404 1042 l 178 1042 z "},"Ī":{"ha":511,"x_min":-39,"x_max":549,"o":"m 114 0 q 88 11 99 0 q 76 38 76 22 l 76 935 q 88 961 76 950 q 114 972 99 972 l 397 972 q 424 961 413 972 q 435 935 435 950 l 435 38 q 424 11 435 22 q 397 0 413 0 l 114 0 m -7 1042 q -30 1051 -21 1042 q -39 1074 -39 1060 l -39 1218 q -30 1241 -39 1232 q -7 1250 -21 1250 l 517 1250 q 540 1241 531 1250 q 549 1218 549 1232 l 549 1074 q 540 1051 549 1060 q 517 1042 531 1042 l -7 1042 z "},"Į":{"ha":511,"x_min":76,"x_max":435,"o":"m 378 -308 q 199 -242 258 -308 q 139 -69 139 -175 q 146 0 139 -37 l 114 0 q 88 11 99 0 q 76 38 76 22 l 76 935 q 88 961 76 950 q 114 972 99 972 l 397 972 q 424 961 413 972 q 435 935 435 950 l 435 38 q 424 11 435 22 q 397 0 413 0 l 383 0 q 331 -22 347 0 q 314 -69 314 -43 q 331 -117 314 -96 q 383 -139 347 -139 l 397 -139 q 424 -150 413 -139 q 435 -176 435 -161 l 435 -271 q 424 -297 435 -286 q 397 -308 413 -308 l 378 -308 z "},"Ĩ":{"ha":511,"x_min":-28,"x_max":538,"o":"m 114 0 q 88 11 99 0 q 76 38 76 22 l 76 935 q 88 961 76 950 q 114 972 99 972 l 397 972 q 424 961 413 972 q 435 935 435 950 l 435 38 q 424 11 435 22 q 397 0 413 0 l 114 0 m 349 1035 q 296 1042 318 1035 q 249 1064 274 1050 q 215 1079 229 1074 q 185 1085 200 1085 q 160 1078 169 1085 q 143 1061 151 1072 q 115 1042 131 1042 l -1 1042 q -20 1049 -12 1042 q -28 1067 -28 1057 q -10 1158 -28 1107 q 49 1247 7 1208 q 161 1285 92 1285 q 214 1277 192 1285 q 261 1256 236 1269 q 295 1240 281 1246 q 325 1235 310 1235 q 349 1241 340 1235 q 365 1258 357 1247 q 378 1272 371 1265 q 394 1278 385 1278 l 511 1278 q 531 1270 524 1278 q 538 1251 538 1263 q 520 1160 538 1211 q 460 1072 503 1110 q 349 1035 418 1035 z "},"J":{"ha":975,"x_min":14,"x_max":907,"o":"m 454 -14 q 238 26 338 -14 q 76 144 138 67 q 14 326 15 221 q 23 348 14 339 q 44 357 32 357 l 328 357 q 362 347 350 357 q 385 313 374 336 q 416 269 399 282 q 465 257 433 257 q 526 283 506 257 q 547 369 547 308 l 547 690 l 135 690 q 108 701 119 690 q 97 728 97 713 l 97 935 q 108 961 97 950 q 135 972 119 972 l 869 972 q 896 961 885 972 q 907 935 907 950 l 907 358 q 848 151 907 235 q 687 26 789 67 q 454 -14 585 -14 z "},"Ĵ":{"ha":975,"x_min":14,"x_max":907,"o":"m 454 -14 q 238 26 338 -14 q 76 144 138 67 q 14 326 15 221 q 23 348 14 339 q 44 357 32 357 l 328 357 q 362 347 350 357 q 385 313 374 336 q 416 269 399 282 q 465 257 433 257 q 526 283 506 257 q 547 369 547 308 l 547 690 l 135 690 q 108 701 119 690 q 97 728 97 713 l 97 935 q 108 961 97 950 q 135 972 119 972 l 869 972 q 896 961 885 972 q 907 935 907 950 l 907 358 q 848 151 907 235 q 687 26 789 67 q 454 -14 585 -14 m 233 1042 q 211 1064 211 1042 q 218 1082 211 1075 l 374 1251 q 399 1272 388 1267 q 425 1278 410 1278 l 606 1278 q 632 1272 621 1278 q 657 1251 643 1267 l 813 1082 q 819 1064 819 1075 q 797 1042 819 1042 l 699 1042 q 643 1051 663 1042 l 515 1110 l 388 1051 q 332 1042 368 1042 l 233 1042 z "},"K":{"ha":993,"x_min":76,"x_max":990,"o":"m 114 0 q 88 11 99 0 q 76 38 76 22 l 76 935 q 88 961 76 950 q 114 972 99 972 l 379 972 q 406 961 394 972 q 417 935 417 950 l 417 660 l 574 942 q 629 972 590 972 l 936 972 q 958 963 949 972 q 967 942 967 954 q 963 926 967 933 l 713 507 l 986 46 q 990 31 990 40 q 981 9 990 18 q 960 0 972 0 l 643 0 q 606 10 619 0 q 586 32 592 21 l 417 335 l 417 38 q 406 11 417 22 q 379 0 394 0 l 114 0 z "},"Ķ":{"ha":993,"x_min":76,"x_max":990,"o":"m 114 0 q 88 11 99 0 q 76 38 76 22 l 76 935 q 88 961 76 950 q 114 972 99 972 l 379 972 q 406 961 394 972 q 417 935 417 950 l 417 660 l 574 942 q 629 972 590 972 l 936 972 q 958 963 949 972 q 967 942 967 954 q 963 926 967 933 l 713 507 l 986 46 q 990 31 990 40 q 981 9 990 18 q 960 0 972 0 l 643 0 q 606 10 619 0 q 586 32 592 21 l 417 335 l 417 38 q 406 11 417 22 q 379 0 394 0 l 114 0 m 351 -347 q 330 -338 339 -347 q 321 -317 321 -329 l 350 -124 q 369 -85 354 -101 q 410 -69 383 -69 l 619 -69 q 641 -78 632 -69 q 650 -100 650 -87 q 649 -110 650 -106 l 572 -303 q 513 -347 556 -347 l 351 -347 z "},"L":{"ha":869,"x_min":76,"x_max":851,"o":"m 114 0 q 88 11 99 0 q 76 38 76 22 l 76 935 q 88 961 76 950 q 114 972 99 972 l 392 972 q 418 961 407 972 q 429 935 429 950 l 429 285 l 814 285 q 840 274 829 285 q 851 247 851 263 l 851 38 q 840 11 851 22 q 814 0 829 0 l 114 0 z "},"Ĺ":{"ha":869,"x_min":76,"x_max":851,"o":"m 114 0 q 88 11 99 0 q 76 38 76 22 l 76 935 q 88 961 76 950 q 114 972 99 972 l 392 972 q 418 961 407 972 q 429 935 429 950 l 429 285 l 814 285 q 840 274 829 285 q 851 247 851 263 l 851 38 q 840 11 851 22 q 814 0 829 0 l 114 0 m 110 1042 q 88 1064 88 1042 q 94 1082 88 1075 l 233 1251 q 258 1273 249 1268 q 285 1278 268 1278 l 557 1278 q 576 1270 569 1278 q 583 1250 583 1263 q 576 1233 583 1240 l 372 1065 q 345 1047 357 1053 q 314 1042 333 1042 l 110 1042 z "},"Ľ":{"ha":869,"x_min":76,"x_max":851,"o":"m 114 0 q 88 11 99 0 q 76 38 76 22 l 76 935 q 88 961 76 950 q 114 972 99 972 l 392 972 q 418 961 407 972 q 429 935 429 950 l 429 285 l 814 285 q 840 274 829 285 q 851 247 851 263 l 851 38 q 840 11 851 22 q 814 0 829 0 l 114 0 m 547 708 q 526 717 535 708 q 517 739 517 726 l 546 932 q 565 970 550 954 q 606 986 579 986 l 815 986 q 837 977 828 986 q 846 956 846 968 q 844 946 846 950 l 768 753 q 708 708 751 708 l 547 708 z "},"Ļ":{"ha":869,"x_min":76,"x_max":851,"o":"m 114 0 q 88 11 99 0 q 76 38 76 22 l 76 935 q 88 961 76 950 q 114 972 99 972 l 392 972 q 418 961 407 972 q 429 935 429 950 l 429 285 l 814 285 q 840 274 829 285 q 851 247 851 263 l 851 38 q 840 11 851 22 q 814 0 829 0 l 114 0 m 282 -347 q 260 -338 269 -347 q 251 -317 251 -329 l 281 -124 q 299 -85 285 -101 q 340 -69 314 -69 l 550 -69 q 572 -78 563 -69 q 581 -100 581 -87 q 579 -110 581 -106 l 503 -303 q 443 -347 486 -347 l 282 -347 z "},"Ŀ":{"ha":869,"x_min":76,"x_max":851,"o":"m 114 0 q 88 11 99 0 q 76 38 76 22 l 76 935 q 88 961 76 950 q 114 972 99 972 l 392 972 q 418 961 407 972 q 429 935 429 950 l 429 285 l 814 285 q 840 274 829 285 q 851 247 851 263 l 851 38 q 840 11 851 22 q 814 0 829 0 l 114 0 m 542 432 q 519 441 528 432 q 510 464 510 450 l 510 646 q 519 669 510 660 q 542 678 528 678 l 724 678 q 747 669 738 678 q 756 646 756 660 l 756 464 q 747 441 756 450 q 724 432 738 432 l 542 432 z "},"Ł":{"ha":881,"x_min":18,"x_max":863,"o":"m 125 0 q 99 11 110 0 q 88 38 88 22 l 88 313 l 63 303 q 47 299 53 299 q 26 307 35 299 q 18 328 18 315 l 18 478 q 25 508 18 497 q 49 524 32 518 l 88 539 l 88 935 q 99 961 88 950 q 125 972 110 972 l 403 972 q 429 961 418 972 q 440 935 440 950 l 440 678 l 642 757 q 657 761 653 761 q 678 753 669 761 q 686 732 686 744 l 686 582 q 679 553 686 564 q 656 536 672 543 l 440 451 l 440 285 l 825 285 q 851 274 840 285 q 863 247 863 263 l 863 38 q 851 11 863 22 q 825 0 840 0 l 125 0 z "},"M":{"ha":1189,"x_min":76,"x_max":1113,"o":"m 114 0 q 88 11 99 0 q 76 38 76 22 l 76 935 q 88 961 76 950 q 114 972 99 972 l 333 972 q 393 935 372 972 l 594 601 l 796 935 q 856 972 817 972 l 1075 972 q 1101 961 1090 972 q 1113 935 1113 950 l 1113 38 q 1101 11 1113 22 q 1075 0 1090 0 l 824 0 q 797 11 808 0 q 786 38 786 22 l 786 418 l 694 268 q 673 243 685 253 q 643 233 661 233 l 546 233 q 516 243 528 233 q 494 268 504 253 l 403 418 l 403 38 q 392 11 403 22 q 365 0 381 0 l 114 0 z "},"N":{"ha":1028,"x_min":76,"x_max":951,"o":"m 114 0 q 88 11 99 0 q 76 38 76 22 l 76 935 q 88 961 76 950 q 114 972 99 972 l 333 972 q 390 940 372 972 l 625 556 l 625 935 q 636 961 625 950 q 663 972 647 972 l 914 972 q 940 961 929 972 q 951 935 951 950 l 951 38 q 940 11 951 22 q 914 0 929 0 l 694 0 q 658 10 671 0 q 638 32 646 19 l 403 386 l 403 38 q 392 11 403 22 q 365 0 381 0 l 114 0 z "},"Ń":{"ha":1028,"x_min":76,"x_max":951,"o":"m 114 0 q 88 11 99 0 q 76 38 76 22 l 76 935 q 88 961 76 950 q 114 972 99 972 l 333 972 q 390 940 372 972 l 625 556 l 625 935 q 636 961 625 950 q 663 972 647 972 l 914 972 q 940 961 929 972 q 951 935 951 950 l 951 38 q 940 11 951 22 q 914 0 929 0 l 694 0 q 658 10 671 0 q 638 32 646 19 l 403 386 l 403 38 q 392 11 403 22 q 365 0 381 0 l 114 0 m 383 1042 q 361 1064 361 1042 q 368 1082 361 1075 l 507 1251 q 532 1273 522 1268 q 558 1278 542 1278 l 831 1278 q 850 1270 843 1278 q 857 1250 857 1263 q 850 1233 857 1240 l 646 1065 q 619 1047 631 1053 q 588 1042 607 1042 l 383 1042 z "},"Ň":{"ha":1028,"x_min":76,"x_max":951,"o":"m 114 0 q 88 11 99 0 q 76 38 76 22 l 76 935 q 88 961 76 950 q 114 972 99 972 l 333 972 q 390 940 372 972 l 625 556 l 625 935 q 636 961 625 950 q 663 972 647 972 l 914 972 q 940 961 929 972 q 951 935 951 950 l 951 38 q 940 11 951 22 q 914 0 929 0 l 694 0 q 658 10 671 0 q 638 32 646 19 l 403 386 l 403 38 q 392 11 403 22 q 365 0 381 0 l 114 0 m 424 1042 q 397 1047 408 1042 q 372 1068 386 1053 l 217 1238 q 210 1256 210 1244 q 232 1278 210 1278 l 331 1278 q 386 1268 367 1278 l 514 1210 l 642 1268 q 697 1278 661 1278 l 796 1278 q 818 1256 818 1278 q 811 1238 818 1244 l 656 1068 q 631 1047 642 1053 q 604 1042 619 1042 l 424 1042 z "},"Ņ":{"ha":1028,"x_min":76,"x_max":951,"o":"m 114 0 q 88 11 99 0 q 76 38 76 22 l 76 935 q 88 961 76 950 q 114 972 99 972 l 333 972 q 390 940 372 972 l 625 556 l 625 935 q 636 961 625 950 q 663 972 647 972 l 914 972 q 940 961 929 972 q 951 935 951 950 l 951 38 q 940 11 951 22 q 914 0 929 0 l 694 0 q 658 10 671 0 q 638 32 646 19 l 403 386 l 403 38 q 392 11 403 22 q 365 0 381 0 l 114 0 m 365 -347 q 344 -338 353 -347 q 335 -317 335 -329 l 364 -124 q 383 -85 368 -101 q 424 -69 397 -69 l 633 -69 q 655 -78 646 -69 q 664 -100 664 -87 q 663 -110 664 -106 l 586 -303 q 526 -347 569 -347 l 365 -347 z "},"Ŋ":{"ha":1028,"x_min":76,"x_max":951,"o":"m 476 -312 q 450 -301 461 -312 q 439 -275 439 -290 l 439 -68 q 450 -42 439 -53 q 476 -31 461 -31 l 532 -31 q 601 -8 576 -31 q 625 50 625 14 l 625 53 l 403 386 l 403 38 q 392 11 403 22 q 365 0 381 0 l 114 0 q 88 11 99 0 q 76 38 76 22 l 76 935 q 88 961 76 950 q 114 972 99 972 l 333 972 q 390 940 372 972 l 625 556 l 625 935 q 636 961 625 950 q 663 972 647 972 l 914 972 q 940 961 929 972 q 951 935 951 950 l 951 36 q 892 -158 951 -79 q 731 -274 833 -236 q 499 -312 629 -312 l 476 -312 z "},"Ñ":{"ha":1028,"x_min":76,"x_max":951,"o":"m 114 0 q 88 11 99 0 q 76 38 76 22 l 76 935 q 88 961 76 950 q 114 972 99 972 l 333 972 q 390 940 372 972 l 625 556 l 625 935 q 636 961 625 950 q 663 972 647 972 l 914 972 q 940 961 929 972 q 951 935 951 950 l 951 38 q 940 11 951 22 q 914 0 929 0 l 694 0 q 658 10 671 0 q 638 32 646 19 l 403 386 l 403 38 q 392 11 403 22 q 365 0 381 0 l 114 0 m 607 1035 q 554 1042 576 1035 q 507 1064 532 1050 q 473 1079 488 1074 q 443 1085 458 1085 q 419 1078 428 1085 q 401 1061 410 1072 q 374 1042 389 1042 l 257 1042 q 238 1049 246 1042 q 231 1067 231 1057 q 248 1158 231 1107 q 308 1247 265 1208 q 419 1285 350 1285 q 472 1277 450 1285 q 519 1256 494 1269 q 553 1240 539 1246 q 583 1235 568 1235 q 607 1241 599 1235 q 624 1258 615 1247 q 636 1272 629 1265 q 653 1278 643 1278 l 769 1278 q 789 1270 782 1278 q 796 1251 796 1263 q 778 1160 796 1211 q 719 1072 761 1110 q 607 1035 676 1035 z "},"O":{"ha":1031,"x_min":50,"x_max":982,"o":"m 515 -14 q 183 82 307 -14 q 51 361 60 178 q 50 482 50 399 q 51 606 50 567 q 115 811 56 725 q 276 942 174 897 q 515 986 379 986 q 754 942 651 986 q 916 811 857 897 q 979 606 975 725 q 982 482 982 528 q 979 361 982 436 q 847 82 971 178 q 515 -14 724 -14 m 515 257 q 590 285 563 257 q 618 369 617 313 q 621 488 621 450 q 618 603 621 528 q 589 688 617 660 q 515 715 561 715 q 442 688 469 715 q 413 603 414 660 q 411 488 411 565 q 413 369 411 410 q 441 285 414 313 q 515 257 468 257 z "},"Ó":{"ha":1031,"x_min":50,"x_max":982,"o":"m 515 -14 q 183 82 307 -14 q 51 361 60 178 q 50 482 50 399 q 51 606 50 567 q 115 811 56 725 q 276 942 174 897 q 515 986 379 986 q 754 942 651 986 q 916 811 857 897 q 979 606 975 725 q 982 482 982 528 q 979 361 982 436 q 847 82 971 178 q 515 -14 724 -14 m 515 257 q 590 285 563 257 q 618 369 617 313 q 621 488 621 450 q 618 603 621 528 q 589 688 617 660 q 515 715 561 715 q 442 688 469 715 q 413 603 414 660 q 411 488 411 565 q 413 369 411 410 q 441 285 414 313 q 515 257 468 257 m 385 1042 q 363 1064 363 1042 q 369 1082 363 1075 l 508 1251 q 533 1273 524 1268 q 560 1278 543 1278 l 832 1278 q 851 1270 844 1278 q 858 1250 858 1263 q 851 1233 858 1240 l 647 1065 q 620 1047 632 1053 q 589 1042 608 1042 l 385 1042 z "},"Ŏ":{"ha":1031,"x_min":50,"x_max":982,"o":"m 515 -14 q 183 82 307 -14 q 51 361 60 178 q 50 482 50 399 q 51 606 50 567 q 115 811 56 725 q 276 942 174 897 q 515 986 379 986 q 754 942 651 986 q 916 811 857 897 q 979 606 975 725 q 982 482 982 528 q 979 361 982 436 q 847 82 971 178 q 515 -14 724 -14 m 515 257 q 590 285 563 257 q 618 369 617 313 q 621 488 621 450 q 618 603 621 528 q 589 688 617 660 q 515 715 561 715 q 442 688 469 715 q 413 603 414 660 q 411 488 411 565 q 413 369 411 410 q 441 285 414 313 q 515 257 468 257 m 515 1035 q 332 1094 394 1035 q 269 1251 269 1154 q 276 1270 269 1263 q 296 1278 283 1278 l 433 1278 q 453 1270 446 1278 q 460 1251 460 1263 q 515 1175 460 1175 q 571 1251 571 1175 q 578 1270 571 1263 q 597 1278 585 1278 l 735 1278 q 754 1270 747 1278 q 761 1251 761 1263 q 699 1094 761 1154 q 515 1035 636 1035 z "},"Ô":{"ha":1031,"x_min":50,"x_max":982,"o":"m 515 -14 q 183 82 307 -14 q 51 361 60 178 q 50 482 50 399 q 51 606 50 567 q 115 811 56 725 q 276 942 174 897 q 515 986 379 986 q 754 942 651 986 q 916 811 857 897 q 979 606 975 725 q 982 482 982 528 q 979 361 982 436 q 847 82 971 178 q 515 -14 724 -14 m 515 257 q 590 285 563 257 q 618 369 617 313 q 621 488 621 450 q 618 603 621 528 q 589 688 617 660 q 515 715 561 715 q 442 688 469 715 q 413 603 414 660 q 411 488 411 565 q 413 369 411 410 q 441 285 414 313 q 515 257 468 257 m 233 1042 q 211 1064 211 1042 q 218 1082 211 1075 l 374 1251 q 399 1272 388 1267 q 425 1278 410 1278 l 606 1278 q 632 1272 621 1278 q 657 1251 643 1267 l 813 1082 q 819 1064 819 1075 q 797 1042 819 1042 l 699 1042 q 643 1051 663 1042 l 515 1110 l 388 1051 q 332 1042 368 1042 l 233 1042 z "},"Ö":{"ha":1031,"x_min":50,"x_max":982,"o":"m 515 -14 q 183 82 307 -14 q 51 361 60 178 q 50 482 50 399 q 51 606 50 567 q 115 811 56 725 q 276 942 174 897 q 515 986 379 986 q 754 942 651 986 q 916 811 857 897 q 979 606 975 725 q 982 482 982 528 q 979 361 982 436 q 847 82 971 178 q 515 -14 724 -14 m 515 257 q 590 285 563 257 q 618 369 617 313 q 621 488 621 450 q 618 603 621 528 q 589 688 617 660 q 515 715 561 715 q 442 688 469 715 q 413 603 414 660 q 411 488 411 565 q 413 369 411 410 q 441 285 414 313 q 515 257 468 257 m 242 1042 q 219 1051 228 1042 q 210 1074 210 1060 l 210 1246 q 219 1269 210 1260 q 242 1278 228 1278 l 414 1278 q 437 1269 428 1278 q 446 1246 446 1260 l 446 1074 q 437 1051 446 1060 q 414 1042 428 1042 l 242 1042 m 615 1042 q 592 1051 601 1042 q 583 1074 583 1060 l 583 1246 q 592 1269 583 1260 q 615 1278 601 1278 l 788 1278 q 810 1269 801 1278 q 819 1246 819 1260 l 819 1074 q 810 1051 819 1060 q 788 1042 801 1042 l 615 1042 z "},"Ò":{"ha":1031,"x_min":50,"x_max":982,"o":"m 515 -14 q 183 82 307 -14 q 51 361 60 178 q 50 482 50 399 q 51 606 50 567 q 115 811 56 725 q 276 942 174 897 q 515 986 379 986 q 754 942 651 986 q 916 811 857 897 q 979 606 975 725 q 982 482 982 528 q 979 361 982 436 q 847 82 971 178 q 515 -14 724 -14 m 515 257 q 590 285 563 257 q 618 369 617 313 q 621 488 621 450 q 618 603 621 528 q 589 688 617 660 q 515 715 561 715 q 442 688 469 715 q 413 603 414 660 q 411 488 411 565 q 413 369 411 410 q 441 285 414 313 q 515 257 468 257 m 438 1042 q 406 1047 418 1042 q 379 1065 394 1053 l 175 1233 q 168 1250 168 1240 q 175 1270 168 1263 q 194 1278 182 1278 l 467 1278 q 493 1273 483 1278 q 518 1251 503 1268 l 657 1082 q 664 1064 664 1075 q 642 1042 664 1042 l 438 1042 z "},"Ő":{"ha":1031,"x_min":50,"x_max":982,"o":"m 515 -14 q 183 82 307 -14 q 51 361 60 178 q 50 482 50 399 q 51 606 50 567 q 115 811 56 725 q 276 942 174 897 q 515 986 379 986 q 754 942 651 986 q 916 811 857 897 q 979 606 975 725 q 982 482 982 528 q 979 361 982 436 q 847 82 971 178 q 515 -14 724 -14 m 515 257 q 590 285 563 257 q 618 369 617 313 q 621 488 621 450 q 618 603 621 528 q 589 688 617 660 q 515 715 561 715 q 442 688 469 715 q 413 603 414 660 q 411 488 411 565 q 413 369 411 410 q 441 285 414 313 q 515 257 468 257 m 275 1042 q 253 1064 253 1042 q 260 1085 253 1071 l 335 1251 q 353 1272 342 1265 q 386 1278 365 1278 l 604 1278 q 624 1271 617 1278 q 632 1251 632 1264 q 624 1233 632 1242 l 465 1061 q 418 1042 449 1042 l 275 1042 m 615 1042 q 593 1064 593 1042 q 600 1085 593 1071 l 675 1251 q 694 1272 682 1265 q 726 1278 706 1278 l 944 1278 q 965 1271 957 1278 q 972 1251 972 1264 q 964 1233 972 1242 l 806 1061 q 758 1042 789 1042 l 615 1042 z "},"Ō":{"ha":1031,"x_min":50,"x_max":982,"o":"m 515 -14 q 183 82 307 -14 q 51 361 60 178 q 50 482 50 399 q 51 606 50 567 q 115 811 56 725 q 276 942 174 897 q 515 986 379 986 q 754 942 651 986 q 916 811 857 897 q 979 606 975 725 q 982 482 982 528 q 979 361 982 436 q 847 82 971 178 q 515 -14 724 -14 m 515 257 q 590 285 563 257 q 618 369 617 313 q 621 488 621 450 q 618 603 621 528 q 589 688 617 660 q 515 715 561 715 q 442 688 469 715 q 413 603 414 660 q 411 488 411 565 q 413 369 411 410 q 441 285 414 313 q 515 257 468 257 m 253 1042 q 230 1051 239 1042 q 221 1074 221 1060 l 221 1218 q 230 1241 221 1232 q 253 1250 239 1250 l 776 1250 q 799 1241 790 1250 q 808 1218 808 1232 l 808 1074 q 799 1051 808 1060 q 776 1042 790 1042 l 253 1042 z "},"Ø":{"ha":1083,"x_min":17,"x_max":1069,"o":"m 546 -14 q 271 44 383 -14 q 113 215 158 103 l 61 196 q 46 192 50 192 q 25 200 33 192 q 17 221 17 208 l 17 371 q 24 401 17 390 q 47 417 31 411 l 79 429 q 82 606 79 549 q 145 811 86 725 q 307 942 204 897 q 546 986 410 986 q 804 932 694 986 q 967 776 914 878 l 1025 800 q 1040 804 1035 804 q 1061 796 1053 804 q 1069 775 1069 788 l 1069 625 q 1063 597 1069 607 q 1039 579 1056 586 l 1011 568 l 1011 506 q 1010 361 1011 406 q 878 82 1001 178 q 546 -14 754 -14 m 640 649 q 546 715 619 715 q 472 688 500 715 q 443 603 444 660 q 442 571 442 592 l 640 649 m 546 257 q 620 285 593 257 q 649 369 647 313 l 650 426 l 444 346 q 546 257 458 257 z "},"Ǿ":{"ha":1083,"x_min":17,"x_max":1069,"o":"m 546 -14 q 271 44 383 -14 q 113 215 158 103 l 61 196 q 46 192 50 192 q 25 200 33 192 q 17 221 17 208 l 17 371 q 24 401 17 390 q 47 417 31 411 l 79 429 q 82 606 79 549 q 145 811 86 725 q 307 942 204 897 q 546 986 410 986 q 804 932 694 986 q 967 776 914 878 l 1025 800 q 1040 804 1035 804 q 1061 796 1053 804 q 1069 775 1069 788 l 1069 625 q 1063 597 1069 607 q 1039 579 1056 586 l 1011 568 l 1011 506 q 1010 361 1011 406 q 878 82 1001 178 q 546 -14 754 -14 m 640 649 q 546 715 619 715 q 472 688 500 715 q 443 603 444 660 q 442 571 442 592 l 640 649 m 546 257 q 620 285 593 257 q 649 369 647 313 l 650 426 l 444 346 q 546 257 458 257 m 411 1042 q 389 1064 389 1042 q 396 1082 389 1075 l 535 1251 q 560 1273 550 1268 q 586 1278 569 1278 l 858 1278 q 878 1270 871 1278 q 885 1250 885 1263 q 878 1233 885 1240 l 674 1065 q 647 1047 658 1053 q 615 1042 635 1042 l 411 1042 z "},"Õ":{"ha":1031,"x_min":50,"x_max":982,"o":"m 515 -14 q 183 82 307 -14 q 51 361 60 178 q 50 482 50 399 q 51 606 50 567 q 115 811 56 725 q 276 942 174 897 q 515 986 379 986 q 754 942 651 986 q 916 811 857 897 q 979 606 975 725 q 982 482 982 528 q 979 361 982 436 q 847 82 971 178 q 515 -14 724 -14 m 515 257 q 590 285 563 257 q 618 369 617 313 q 621 488 621 450 q 618 603 621 528 q 589 688 617 660 q 515 715 561 715 q 442 688 469 715 q 413 603 414 660 q 411 488 411 565 q 413 369 411 410 q 441 285 414 313 q 515 257 468 257 m 608 1035 q 556 1042 578 1035 q 508 1064 533 1050 q 474 1079 489 1074 q 444 1085 460 1085 q 420 1078 429 1085 q 403 1061 411 1072 q 375 1042 390 1042 l 258 1042 q 240 1049 247 1042 q 232 1067 232 1057 q 249 1158 232 1107 q 309 1247 267 1208 q 421 1285 351 1285 q 474 1277 451 1285 q 521 1256 496 1269 q 555 1240 540 1246 q 585 1235 569 1235 q 608 1241 600 1235 q 625 1258 617 1247 q 638 1272 631 1265 q 654 1278 644 1278 l 771 1278 q 790 1270 783 1278 q 797 1251 797 1263 q 780 1160 797 1211 q 720 1072 763 1110 q 608 1035 678 1035 z "},"Œ":{"ha":1392,"x_min":47,"x_max":1339,"o":"m 506 0 q 178 96 300 0 q 49 383 57 192 q 47 485 47 421 q 49 590 47 551 q 114 797 53 711 q 278 928 175 883 q 513 972 381 972 l 1290 972 q 1317 961 1306 972 q 1328 935 1328 950 l 1328 739 q 1317 713 1328 724 q 1290 701 1306 701 l 901 701 l 901 614 l 1260 614 q 1286 603 1275 614 q 1297 576 1297 592 l 1297 396 q 1286 369 1297 381 q 1260 358 1275 358 l 901 358 l 901 271 l 1301 271 q 1328 260 1317 271 q 1339 233 1339 249 l 1339 38 q 1328 11 1339 22 q 1301 0 1317 0 l 506 0 m 569 271 l 569 701 l 519 701 q 437 674 469 701 q 401 590 404 646 q 399 488 399 515 q 401 383 399 464 q 434 299 404 328 q 513 271 464 271 l 569 271 z "},"P":{"ha":979,"x_min":76,"x_max":953,"o":"m 114 0 q 88 11 99 0 q 76 38 76 22 l 76 935 q 88 961 76 950 q 114 972 99 972 l 535 972 q 841 886 729 972 q 953 632 953 800 q 842 384 953 465 q 535 303 731 303 l 438 303 l 438 38 q 426 11 438 22 q 400 0 415 0 l 114 0 m 528 560 q 572 578 553 560 q 592 635 592 597 q 576 690 592 667 q 528 714 561 714 l 431 714 l 431 560 l 528 560 z "},"Þ":{"ha":979,"x_min":76,"x_max":953,"o":"m 114 0 q 88 11 99 0 q 76 38 76 22 l 76 935 q 88 961 76 950 q 114 972 99 972 l 400 972 q 426 961 415 972 q 438 935 438 950 l 438 835 l 528 835 q 840 749 728 835 q 953 494 953 663 q 841 246 953 326 q 528 165 729 165 l 438 165 l 438 38 q 426 11 438 22 q 400 0 415 0 l 114 0 m 528 422 q 572 441 553 422 q 592 497 592 460 q 576 553 592 529 q 528 576 561 576 l 431 576 l 431 422 l 528 422 z "},"Q":{"ha":1031,"x_min":49,"x_max":992,"o":"m 692 -90 q 656 -81 669 -90 q 633 -58 643 -72 l 594 -10 q 514 -14 557 -14 q 182 82 306 -14 q 50 361 58 178 q 49 482 49 399 q 50 606 49 567 q 113 811 54 725 q 275 942 172 897 q 514 986 378 986 q 753 942 650 986 q 915 811 856 897 q 978 606 974 725 q 981 482 981 528 q 978 361 981 436 q 878 110 969 204 l 988 -47 q 992 -60 992 -56 l 992 -64 q 983 -83 992 -75 q 964 -90 975 -90 l 692 -90 m 514 257 q 588 285 561 257 q 617 369 615 313 q 619 488 619 450 q 617 603 619 528 q 588 688 615 660 q 514 715 560 715 q 440 688 468 715 q 411 603 413 660 q 410 488 410 565 q 411 369 410 410 q 440 285 413 313 q 514 257 467 257 z "},"R":{"ha":1003,"x_min":76,"x_max":975,"o":"m 114 0 q 88 11 99 0 q 76 38 76 22 l 76 935 q 88 961 76 950 q 114 972 99 972 l 525 972 q 838 883 725 972 q 950 635 950 793 q 910 476 950 544 q 800 363 869 407 l 971 46 q 975 31 975 38 q 966 9 975 18 q 944 0 957 0 l 660 0 q 620 12 635 0 q 600 38 606 24 l 481 303 l 424 303 l 424 38 q 413 11 424 22 q 386 0 401 0 l 114 0 m 525 567 q 572 587 556 567 q 589 638 589 607 q 573 691 589 668 q 525 714 557 714 l 424 714 l 424 567 l 525 567 z "},"Ŕ":{"ha":1003,"x_min":76,"x_max":975,"o":"m 114 0 q 88 11 99 0 q 76 38 76 22 l 76 935 q 88 961 76 950 q 114 972 99 972 l 525 972 q 838 883 725 972 q 950 635 950 793 q 910 476 950 544 q 800 363 869 407 l 971 46 q 975 31 975 38 q 966 9 975 18 q 944 0 957 0 l 660 0 q 620 12 635 0 q 600 38 606 24 l 481 303 l 424 303 l 424 38 q 413 11 424 22 q 386 0 401 0 l 114 0 m 525 567 q 572 587 556 567 q 589 638 589 607 q 573 691 589 668 q 525 714 557 714 l 424 714 l 424 567 l 525 567 m 343 1042 q 321 1064 321 1042 q 328 1082 321 1075 l 467 1251 q 492 1273 482 1268 q 518 1278 501 1278 l 790 1278 q 810 1270 803 1278 q 817 1250 817 1263 q 810 1233 817 1240 l 606 1065 q 578 1047 590 1053 q 547 1042 567 1042 l 343 1042 z "},"Ř":{"ha":1003,"x_min":76,"x_max":975,"o":"m 114 0 q 88 11 99 0 q 76 38 76 22 l 76 935 q 88 961 76 950 q 114 972 99 972 l 525 972 q 838 883 725 972 q 950 635 950 793 q 910 476 950 544 q 800 363 869 407 l 971 46 q 975 31 975 38 q 966 9 975 18 q 944 0 957 0 l 660 0 q 620 12 635 0 q 600 38 606 24 l 481 303 l 424 303 l 424 38 q 413 11 424 22 q 386 0 401 0 l 114 0 m 525 567 q 572 587 556 567 q 589 638 589 607 q 573 691 589 668 q 525 714 557 714 l 424 714 l 424 567 l 525 567 m 383 1042 q 357 1047 368 1042 q 332 1068 346 1053 l 176 1238 q 169 1256 169 1244 q 192 1278 169 1278 l 290 1278 q 346 1268 326 1278 l 474 1210 l 601 1268 q 657 1278 621 1278 l 756 1278 q 778 1256 778 1278 q 771 1238 778 1244 l 615 1068 q 590 1047 601 1053 q 564 1042 579 1042 l 383 1042 z "},"Ŗ":{"ha":1003,"x_min":76,"x_max":975,"o":"m 114 0 q 88 11 99 0 q 76 38 76 22 l 76 935 q 88 961 76 950 q 114 972 99 972 l 525 972 q 838 883 725 972 q 950 635 950 793 q 910 476 950 544 q 800 363 869 407 l 971 46 q 975 31 975 38 q 966 9 975 18 q 944 0 957 0 l 660 0 q 620 12 635 0 q 600 38 606 24 l 481 303 l 424 303 l 424 38 q 413 11 424 22 q 386 0 401 0 l 114 0 m 525 567 q 572 587 556 567 q 589 638 589 607 q 573 691 589 668 q 525 714 557 714 l 424 714 l 424 567 l 525 567 m 358 -347 q 337 -338 346 -347 q 328 -317 328 -329 l 357 -124 q 376 -85 361 -101 q 417 -69 390 -69 l 626 -69 q 648 -78 639 -69 q 657 -100 657 -87 q 656 -110 657 -106 l 579 -303 q 519 -347 563 -347 l 358 -347 z "},"S":{"ha":968,"x_min":25,"x_max":943,"o":"m 482 -14 q 233 26 335 -14 q 79 134 131 67 q 25 282 28 201 q 34 303 25 294 q 56 313 43 313 l 319 313 q 351 308 339 313 q 379 289 363 303 q 482 257 419 257 q 558 267 529 257 q 586 296 586 278 q 549 334 586 321 q 407 361 511 347 q 49 667 49 408 q 102 833 49 760 q 251 946 156 906 q 472 986 347 986 q 701 942 603 986 q 853 830 800 897 q 908 699 906 763 q 899 677 908 686 q 879 668 890 668 l 601 668 q 571 673 582 668 q 546 690 560 678 q 472 715 517 715 q 406 676 406 715 q 438 642 406 656 q 560 617 471 628 q 783 563 699 599 q 905 466 867 526 q 943 314 943 406 q 883 141 943 215 q 719 26 824 67 q 482 -14 614 -14 z "},"Ś":{"ha":968,"x_min":25,"x_max":943,"o":"m 482 -14 q 233 26 335 -14 q 79 134 131 67 q 25 282 28 201 q 34 303 25 294 q 56 313 43 313 l 319 313 q 351 308 339 313 q 379 289 363 303 q 482 257 419 257 q 558 267 529 257 q 586 296 586 278 q 549 334 586 321 q 407 361 511 347 q 49 667 49 408 q 102 833 49 760 q 251 946 156 906 q 472 986 347 986 q 701 942 603 986 q 853 830 800 897 q 908 699 906 763 q 899 677 908 686 q 879 668 890 668 l 601 668 q 571 673 582 668 q 546 690 560 678 q 472 715 517 715 q 406 676 406 715 q 438 642 406 656 q 560 617 471 628 q 783 563 699 599 q 905 466 867 526 q 943 314 943 406 q 883 141 943 215 q 719 26 824 67 q 482 -14 614 -14 m 354 1042 q 332 1064 332 1042 q 339 1082 332 1075 l 478 1251 q 503 1273 493 1268 q 529 1278 513 1278 l 801 1278 q 821 1270 814 1278 q 828 1250 828 1263 q 821 1233 828 1240 l 617 1065 q 590 1047 601 1053 q 558 1042 578 1042 l 354 1042 z "},"Š":{"ha":968,"x_min":25,"x_max":943,"o":"m 482 -14 q 233 26 335 -14 q 79 134 131 67 q 25 282 28 201 q 34 303 25 294 q 56 313 43 313 l 319 313 q 351 308 339 313 q 379 289 363 303 q 482 257 419 257 q 558 267 529 257 q 586 296 586 278 q 549 334 586 321 q 407 361 511 347 q 49 667 49 408 q 102 833 49 760 q 251 946 156 906 q 472 986 347 986 q 701 942 603 986 q 853 830 800 897 q 908 699 906 763 q 899 677 908 686 q 879 668 890 668 l 601 668 q 571 673 582 668 q 546 690 560 678 q 472 715 517 715 q 406 676 406 715 q 438 642 406 656 q 560 617 471 628 q 783 563 699 599 q 905 466 867 526 q 943 314 943 406 q 883 141 943 215 q 719 26 824 67 q 482 -14 614 -14 m 394 1042 q 368 1047 379 1042 q 343 1068 357 1053 l 188 1238 q 181 1256 181 1244 q 203 1278 181 1278 l 301 1278 q 357 1268 338 1278 l 485 1210 l 613 1268 q 668 1278 632 1278 l 767 1278 q 789 1256 789 1278 q 782 1238 789 1244 l 626 1068 q 601 1047 613 1053 q 575 1042 590 1042 l 394 1042 z "},"Ş":{"ha":968,"x_min":25,"x_max":943,"o":"m 479 -306 q 399 -288 435 -306 q 364 -251 364 -271 q 372 -235 364 -243 l 401 -210 q 419 -201 413 -201 q 441 -208 424 -201 q 479 -214 458 -214 q 508 -204 497 -214 q 518 -181 518 -194 q 508 -157 518 -167 q 479 -147 499 -147 q 453 -151 471 -147 q 426 -156 435 -156 q 404 -147 413 -156 l 375 -118 q 364 -99 364 -107 q 372 -72 364 -89 l 400 -10 q 195 43 279 1 q 69 147 111 85 q 25 282 26 210 q 34 303 25 294 q 56 313 43 313 l 319 313 q 351 308 339 313 q 379 289 363 303 q 482 257 419 257 q 558 267 529 257 q 586 296 586 278 q 549 334 586 321 q 407 361 511 347 q 49 667 49 408 q 102 833 49 760 q 251 946 156 906 q 472 986 347 986 q 701 942 603 986 q 853 830 800 897 q 908 699 906 763 q 899 677 908 686 q 879 668 890 668 l 601 668 q 571 673 582 668 q 546 690 560 678 q 472 715 517 715 q 406 676 406 715 q 438 642 406 656 q 560 617 471 628 q 783 563 699 599 q 905 466 867 526 q 943 314 943 406 q 884 142 943 215 q 722 28 825 68 q 488 -14 618 -12 l 463 -62 q 483 -58 469 -60 q 504 -56 497 -56 q 587 -90 557 -56 q 617 -181 617 -125 q 579 -271 617 -236 q 479 -306 542 -306 z "},"Ŝ":{"ha":968,"x_min":25,"x_max":943,"o":"m 482 -14 q 233 26 335 -14 q 79 134 131 67 q 25 282 28 201 q 34 303 25 294 q 56 313 43 313 l 319 313 q 351 308 339 313 q 379 289 363 303 q 482 257 419 257 q 558 267 529 257 q 586 296 586 278 q 549 334 586 321 q 407 361 511 347 q 49 667 49 408 q 102 833 49 760 q 251 946 156 906 q 472 986 347 986 q 701 942 603 986 q 853 830 800 897 q 908 699 906 763 q 899 677 908 686 q 879 668 890 668 l 601 668 q 571 673 582 668 q 546 690 560 678 q 472 715 517 715 q 406 676 406 715 q 438 642 406 656 q 560 617 471 628 q 783 563 699 599 q 905 466 867 526 q 943 314 943 406 q 883 141 943 215 q 719 26 824 67 q 482 -14 614 -14 m 203 1042 q 181 1064 181 1042 q 188 1082 181 1075 l 343 1251 q 368 1272 357 1267 q 394 1278 379 1278 l 575 1278 q 601 1272 590 1278 q 626 1251 613 1267 l 782 1082 q 789 1064 789 1075 q 767 1042 789 1042 l 668 1042 q 613 1051 632 1042 l 485 1110 l 357 1051 q 301 1042 338 1042 l 203 1042 z "},"Ș":{"ha":968,"x_min":25,"x_max":943,"o":"m 482 -14 q 233 26 335 -14 q 79 134 131 67 q 25 282 28 201 q 34 303 25 294 q 56 313 43 313 l 319 313 q 351 308 339 313 q 379 289 363 303 q 482 257 419 257 q 558 267 529 257 q 586 296 586 278 q 549 334 586 321 q 407 361 511 347 q 49 667 49 408 q 102 833 49 760 q 251 946 156 906 q 472 986 347 986 q 701 942 603 986 q 853 830 800 897 q 908 699 906 763 q 899 677 908 686 q 879 668 890 668 l 601 668 q 571 673 582 668 q 546 690 560 678 q 472 715 517 715 q 406 676 406 715 q 438 642 406 656 q 560 617 471 628 q 783 563 699 599 q 905 466 867 526 q 943 314 943 406 q 883 141 943 215 q 719 26 824 67 q 482 -14 614 -14 m 329 -347 q 308 -338 317 -347 q 299 -317 299 -329 l 328 -124 q 347 -85 332 -101 q 388 -69 361 -69 l 597 -69 q 619 -78 610 -69 q 628 -100 628 -87 q 626 -110 628 -106 l 550 -303 q 490 -347 533 -347 l 329 -347 z "},"T":{"ha":936,"x_min":24,"x_max":913,"o":"m 329 0 q 303 11 314 0 q 292 38 292 22 l 292 674 l 61 674 q 35 685 46 674 q 24 711 24 696 l 24 935 q 35 961 24 950 q 61 972 46 972 l 875 972 q 901 961 890 972 q 913 935 913 950 l 913 711 q 901 685 913 696 q 875 674 890 674 l 644 674 l 644 38 q 633 11 644 22 q 607 0 622 0 l 329 0 z "},"Ŧ":{"ha":947,"x_min":29,"x_max":918,"o":"m 335 0 q 308 11 319 0 q 297 38 297 22 l 297 358 l 172 358 q 146 369 157 358 q 135 396 135 381 l 135 494 q 146 521 135 510 q 172 532 157 532 l 297 532 l 297 674 l 67 674 q 40 685 51 674 q 29 711 29 696 l 29 935 q 40 961 29 950 q 67 972 51 972 l 881 972 q 907 961 896 972 q 918 935 918 950 l 918 711 q 907 685 918 696 q 881 674 896 674 l 650 674 l 650 532 l 775 532 q 801 521 790 532 q 813 494 813 510 l 813 396 q 801 369 813 381 q 775 358 790 358 l 650 358 l 650 38 q 639 11 650 22 q 613 0 628 0 l 335 0 z "},"Ť":{"ha":936,"x_min":24,"x_max":913,"o":"m 329 0 q 303 11 314 0 q 292 38 292 22 l 292 674 l 61 674 q 35 685 46 674 q 24 711 24 696 l 24 935 q 35 961 24 950 q 61 972 46 972 l 875 972 q 901 961 890 972 q 913 935 913 950 l 913 711 q 901 685 913 696 q 875 674 890 674 l 644 674 l 644 38 q 633 11 644 22 q 607 0 622 0 l 329 0 m 378 1042 q 351 1047 363 1042 q 326 1068 340 1053 l 171 1238 q 164 1256 164 1244 q 186 1278 164 1278 l 285 1278 q 340 1268 321 1278 l 468 1210 l 596 1268 q 651 1278 615 1278 l 750 1278 q 772 1256 772 1278 q 765 1238 772 1244 l 610 1068 q 585 1047 596 1053 q 558 1042 574 1042 l 378 1042 z "},"Ț":{"ha":936,"x_min":24,"x_max":913,"o":"m 329 0 q 303 11 314 0 q 292 38 292 22 l 292 674 l 61 674 q 35 685 46 674 q 24 711 24 696 l 24 935 q 35 961 24 950 q 61 972 46 972 l 875 972 q 901 961 890 972 q 913 935 913 950 l 913 711 q 901 685 913 696 q 875 674 890 674 l 644 674 l 644 38 q 633 11 644 22 q 607 0 622 0 l 329 0 m 313 -347 q 291 -338 300 -347 q 282 -317 282 -329 l 311 -124 q 330 -85 315 -101 q 371 -69 344 -69 l 581 -69 q 602 -78 593 -69 q 611 -100 611 -87 q 610 -110 611 -106 l 533 -303 q 474 -347 517 -347 l 313 -347 z "},"U":{"ha":1036,"x_min":68,"x_max":968,"o":"m 519 -14 q 190 81 311 -14 q 68 367 68 176 l 68 935 q 79 961 68 950 q 106 972 90 972 l 378 972 q 404 961 393 972 q 415 935 415 950 l 415 372 q 441 292 415 319 q 518 265 467 265 q 595 292 569 265 q 621 372 621 319 l 621 935 q 632 961 621 950 q 658 972 643 972 l 931 972 q 957 961 946 972 q 968 935 968 950 l 968 367 q 847 81 968 176 q 519 -14 726 -14 z "},"Ú":{"ha":1036,"x_min":68,"x_max":968,"o":"m 519 -14 q 190 81 311 -14 q 68 367 68 176 l 68 935 q 79 961 68 950 q 106 972 90 972 l 378 972 q 404 961 393 972 q 415 935 415 950 l 415 372 q 441 292 415 319 q 518 265 467 265 q 595 292 569 265 q 621 372 621 319 l 621 935 q 632 961 621 950 q 658 972 643 972 l 931 972 q 957 961 946 972 q 968 935 968 950 l 968 367 q 847 81 968 176 q 519 -14 726 -14 m 388 1042 q 365 1064 365 1042 q 372 1082 365 1075 l 511 1251 q 536 1273 526 1268 q 563 1278 546 1278 l 835 1278 q 854 1270 847 1278 q 861 1250 861 1263 q 854 1233 861 1240 l 650 1065 q 623 1047 635 1053 q 592 1042 611 1042 l 388 1042 z "},"Ŭ":{"ha":1036,"x_min":68,"x_max":968,"o":"m 519 -14 q 190 81 311 -14 q 68 367 68 176 l 68 935 q 79 961 68 950 q 106 972 90 972 l 378 972 q 404 961 393 972 q 415 935 415 950 l 415 372 q 441 292 415 319 q 518 265 467 265 q 595 292 569 265 q 621 372 621 319 l 621 935 q 632 961 621 950 q 658 972 643 972 l 931 972 q 957 961 946 972 q 968 935 968 950 l 968 367 q 847 81 968 176 q 519 -14 726 -14 m 518 1035 q 335 1094 397 1035 q 272 1251 272 1154 q 279 1270 272 1263 q 299 1278 286 1278 l 436 1278 q 456 1270 449 1278 q 463 1251 463 1263 q 518 1175 463 1175 q 574 1251 574 1175 q 581 1270 574 1263 q 600 1278 588 1278 l 738 1278 q 757 1270 750 1278 q 764 1251 764 1263 q 701 1094 764 1154 q 518 1035 639 1035 z "},"Û":{"ha":1036,"x_min":68,"x_max":968,"o":"m 519 -14 q 190 81 311 -14 q 68 367 68 176 l 68 935 q 79 961 68 950 q 106 972 90 972 l 378 972 q 404 961 393 972 q 415 935 415 950 l 415 372 q 441 292 415 319 q 518 265 467 265 q 595 292 569 265 q 621 372 621 319 l 621 935 q 632 961 621 950 q 658 972 643 972 l 931 972 q 957 961 946 972 q 968 935 968 950 l 968 367 q 847 81 968 176 q 519 -14 726 -14 m 236 1042 q 214 1064 214 1042 q 221 1082 214 1075 l 376 1251 q 401 1272 390 1267 q 428 1278 413 1278 l 608 1278 q 635 1272 624 1278 q 660 1251 646 1267 l 815 1082 q 822 1064 822 1075 q 800 1042 822 1042 l 701 1042 q 646 1051 665 1042 l 518 1110 l 390 1051 q 335 1042 371 1042 l 236 1042 z "},"Ü":{"ha":1036,"x_min":68,"x_max":968,"o":"m 519 -14 q 190 81 311 -14 q 68 367 68 176 l 68 935 q 79 961 68 950 q 106 972 90 972 l 378 972 q 404 961 393 972 q 415 935 415 950 l 415 372 q 441 292 415 319 q 518 265 467 265 q 595 292 569 265 q 621 372 621 319 l 621 935 q 632 961 621 950 q 658 972 643 972 l 931 972 q 957 961 946 972 q 968 935 968 950 l 968 367 q 847 81 968 176 q 519 -14 726 -14 m 244 1042 q 222 1051 231 1042 q 213 1074 213 1060 l 213 1246 q 222 1269 213 1260 q 244 1278 231 1278 l 417 1278 q 440 1269 431 1278 q 449 1246 449 1260 l 449 1074 q 440 1051 449 1060 q 417 1042 431 1042 l 244 1042 m 618 1042 q 595 1051 604 1042 q 586 1074 586 1060 l 586 1246 q 595 1269 586 1260 q 618 1278 604 1278 l 790 1278 q 813 1269 804 1278 q 822 1246 822 1260 l 822 1074 q 813 1051 822 1060 q 790 1042 804 1042 l 618 1042 z "},"Ù":{"ha":1036,"x_min":68,"x_max":968,"o":"m 519 -14 q 190 81 311 -14 q 68 367 68 176 l 68 935 q 79 961 68 950 q 106 972 90 972 l 378 972 q 404 961 393 972 q 415 935 415 950 l 415 372 q 441 292 415 319 q 518 265 467 265 q 595 292 569 265 q 621 372 621 319 l 621 935 q 632 961 621 950 q 658 972 643 972 l 931 972 q 957 961 946 972 q 968 935 968 950 l 968 367 q 847 81 968 176 q 519 -14 726 -14 m 440 1042 q 409 1047 421 1042 q 382 1065 397 1053 l 178 1233 q 171 1250 171 1240 q 178 1270 171 1263 q 197 1278 185 1278 l 469 1278 q 496 1273 486 1278 q 521 1251 506 1268 l 660 1082 q 667 1064 667 1075 q 644 1042 667 1042 l 440 1042 z "},"Ű":{"ha":1036,"x_min":68,"x_max":975,"o":"m 519 -14 q 190 81 311 -14 q 68 367 68 176 l 68 935 q 79 961 68 950 q 106 972 90 972 l 378 972 q 404 961 393 972 q 415 935 415 950 l 415 372 q 441 292 415 319 q 518 265 467 265 q 595 292 569 265 q 621 372 621 319 l 621 935 q 632 961 621 950 q 658 972 643 972 l 931 972 q 957 961 946 972 q 968 935 968 950 l 968 367 q 847 81 968 176 q 519 -14 726 -14 m 278 1042 q 256 1064 256 1042 q 263 1085 256 1071 l 338 1251 q 356 1272 344 1265 q 389 1278 368 1278 l 607 1278 q 627 1271 619 1278 q 635 1251 635 1264 q 626 1233 635 1242 l 468 1061 q 421 1042 451 1042 l 278 1042 m 618 1042 q 596 1064 596 1042 q 603 1085 596 1071 l 678 1251 q 697 1272 685 1265 q 729 1278 708 1278 l 947 1278 q 967 1271 960 1278 q 975 1251 975 1264 q 967 1233 975 1242 l 808 1061 q 761 1042 792 1042 l 618 1042 z "},"Ū":{"ha":1036,"x_min":68,"x_max":968,"o":"m 519 -14 q 190 81 311 -14 q 68 367 68 176 l 68 935 q 79 961 68 950 q 106 972 90 972 l 378 972 q 404 961 393 972 q 415 935 415 950 l 415 372 q 441 292 415 319 q 518 265 467 265 q 595 292 569 265 q 621 372 621 319 l 621 935 q 632 961 621 950 q 658 972 643 972 l 931 972 q 957 961 946 972 q 968 935 968 950 l 968 367 q 847 81 968 176 q 519 -14 726 -14 m 256 1042 q 233 1051 242 1042 q 224 1074 224 1060 l 224 1218 q 233 1241 224 1232 q 256 1250 242 1250 l 779 1250 q 802 1241 793 1250 q 811 1218 811 1232 l 811 1074 q 802 1051 811 1060 q 779 1042 793 1042 l 256 1042 z "},"Ų":{"ha":1036,"x_min":68,"x_max":968,"o":"m 635 -306 q 456 -240 515 -306 q 396 -68 396 -174 q 401 -4 396 -32 q 156 113 244 19 q 68 367 68 206 l 68 935 q 79 961 68 950 q 106 972 90 972 l 378 972 q 404 961 393 972 q 415 935 415 950 l 415 372 q 441 292 415 319 q 518 265 467 265 q 595 292 569 265 q 621 372 621 319 l 621 935 q 632 961 621 950 q 658 972 643 972 l 931 972 q 957 961 946 972 q 968 935 968 950 l 968 367 q 877 113 968 203 q 622 -7 786 22 q 581 -28 592 -12 q 571 -68 571 -44 q 588 -115 571 -94 q 640 -136 604 -136 l 654 -136 q 681 -147 669 -136 q 692 -174 692 -158 l 692 -268 q 681 -294 692 -283 q 654 -306 669 -306 l 635 -306 z "},"Ů":{"ha":1036,"x_min":68,"x_max":968,"o":"m 519 -14 q 190 81 311 -14 q 68 367 68 176 l 68 935 q 79 961 68 950 q 106 972 90 972 l 378 972 q 404 961 393 972 q 415 935 415 950 l 415 372 q 441 292 415 319 q 518 265 467 265 q 595 292 569 265 q 621 372 621 319 l 621 935 q 632 961 621 950 q 658 972 643 972 l 931 972 q 957 961 946 972 q 968 935 968 950 l 968 367 q 847 81 968 176 q 519 -14 726 -14 m 518 1028 q 419 1065 460 1028 q 379 1160 379 1103 q 419 1254 379 1217 q 518 1292 460 1292 q 617 1254 576 1292 q 657 1160 657 1217 q 617 1065 657 1103 q 518 1028 576 1028 m 518 1118 q 548 1130 536 1118 q 560 1160 560 1142 q 548 1190 560 1178 q 518 1201 536 1201 q 488 1190 500 1201 q 476 1160 476 1178 q 488 1130 476 1142 q 518 1118 500 1118 z "},"Ũ":{"ha":1036,"x_min":68,"x_max":968,"o":"m 519 -14 q 190 81 311 -14 q 68 367 68 176 l 68 935 q 79 961 68 950 q 106 972 90 972 l 378 972 q 404 961 393 972 q 415 935 415 950 l 415 372 q 441 292 415 319 q 518 265 467 265 q 595 292 569 265 q 621 372 621 319 l 621 935 q 632 961 621 950 q 658 972 643 972 l 931 972 q 957 961 946 972 q 968 935 968 950 l 968 367 q 847 81 968 176 q 519 -14 726 -14 m 611 1035 q 558 1042 581 1035 q 511 1064 536 1050 q 477 1079 492 1074 q 447 1085 463 1085 q 423 1078 432 1085 q 406 1061 414 1072 q 378 1042 393 1042 l 261 1042 q 242 1049 250 1042 q 235 1067 235 1057 q 252 1158 235 1107 q 312 1247 269 1208 q 424 1285 354 1285 q 476 1277 454 1285 q 524 1256 499 1269 q 558 1240 543 1246 q 588 1235 572 1235 q 611 1241 603 1235 q 628 1258 619 1247 q 640 1272 633 1265 q 657 1278 647 1278 l 774 1278 q 793 1270 786 1278 q 800 1251 800 1263 q 783 1160 800 1211 q 723 1072 765 1110 q 611 1035 681 1035 z "},"V":{"ha":1008,"x_min":21,"x_max":988,"o":"m 346 0 q 304 14 319 0 q 283 46 289 28 l 22 932 l 21 942 q 30 963 21 954 q 51 972 39 972 l 310 972 q 351 958 336 972 q 372 926 367 944 l 504 410 l 636 926 q 657 958 642 944 q 699 972 672 972 l 957 972 q 978 963 969 972 q 988 942 988 954 l 986 932 l 725 46 q 704 14 719 28 q 663 0 689 0 l 346 0 z "},"W":{"ha":1189,"x_min":33,"x_max":1156,"o":"m 225 0 q 181 16 199 0 q 161 53 164 32 l 33 938 l 33 942 q 42 963 33 954 q 64 972 51 972 l 322 972 q 359 964 347 972 q 372 935 371 956 l 419 543 l 476 717 q 524 757 490 757 l 665 757 q 713 717 699 757 l 769 544 l 817 935 q 830 964 818 956 q 867 972 842 972 l 1125 972 q 1147 963 1138 972 q 1156 942 1156 954 l 1156 938 l 1028 53 q 1008 16 1025 32 q 964 0 990 0 l 765 0 q 727 13 740 0 q 708 38 714 25 l 594 322 l 481 38 q 462 13 475 25 q 424 0 449 0 l 225 0 z "},"Ẃ":{"ha":1189,"x_min":33,"x_max":1156,"o":"m 225 0 q 181 16 199 0 q 161 53 164 32 l 33 938 l 33 942 q 42 963 33 954 q 64 972 51 972 l 322 972 q 359 964 347 972 q 372 935 371 956 l 419 543 l 476 717 q 524 757 490 757 l 665 757 q 713 717 699 757 l 769 544 l 817 935 q 830 964 818 956 q 867 972 842 972 l 1125 972 q 1147 963 1138 972 q 1156 942 1156 954 l 1156 938 l 1028 53 q 1008 16 1025 32 q 964 0 990 0 l 765 0 q 727 13 740 0 q 708 38 714 25 l 594 322 l 481 38 q 462 13 475 25 q 424 0 449 0 l 225 0 m 464 1042 q 442 1064 442 1042 q 449 1082 442 1075 l 588 1251 q 613 1273 603 1268 q 639 1278 622 1278 l 911 1278 q 931 1270 924 1278 q 938 1250 938 1263 q 931 1233 938 1240 l 726 1065 q 699 1047 711 1053 q 668 1042 688 1042 l 464 1042 z "},"Ŵ":{"ha":1189,"x_min":33,"x_max":1156,"o":"m 225 0 q 181 16 199 0 q 161 53 164 32 l 33 938 l 33 942 q 42 963 33 954 q 64 972 51 972 l 322 972 q 359 964 347 972 q 372 935 371 956 l 419 543 l 476 717 q 524 757 490 757 l 665 757 q 713 717 699 757 l 769 544 l 817 935 q 830 964 818 956 q 867 972 842 972 l 1125 972 q 1147 963 1138 972 q 1156 942 1156 954 l 1156 938 l 1028 53 q 1008 16 1025 32 q 964 0 990 0 l 765 0 q 727 13 740 0 q 708 38 714 25 l 594 322 l 481 38 q 462 13 475 25 q 424 0 449 0 l 225 0 m 313 1042 q 290 1064 290 1042 q 297 1082 290 1075 l 453 1251 q 478 1272 467 1267 q 504 1278 489 1278 l 685 1278 q 711 1272 700 1278 q 736 1251 722 1267 l 892 1082 q 899 1064 899 1075 q 876 1042 899 1042 l 778 1042 q 722 1051 742 1042 l 594 1110 l 467 1051 q 411 1042 447 1042 l 313 1042 z "},"Ẅ":{"ha":1189,"x_min":33,"x_max":1156,"o":"m 225 0 q 181 16 199 0 q 161 53 164 32 l 33 938 l 33 942 q 42 963 33 954 q 64 972 51 972 l 322 972 q 359 964 347 972 q 372 935 371 956 l 419 543 l 476 717 q 524 757 490 757 l 665 757 q 713 717 699 757 l 769 544 l 817 935 q 830 964 818 956 q 867 972 842 972 l 1125 972 q 1147 963 1138 972 q 1156 942 1156 954 l 1156 938 l 1028 53 q 1008 16 1025 32 q 964 0 990 0 l 765 0 q 727 13 740 0 q 708 38 714 25 l 594 322 l 481 38 q 462 13 475 25 q 424 0 449 0 l 225 0 m 321 1042 q 298 1051 307 1042 q 289 1074 289 1060 l 289 1246 q 298 1269 289 1260 q 321 1278 307 1278 l 493 1278 q 516 1269 507 1278 q 525 1246 525 1260 l 525 1074 q 516 1051 525 1060 q 493 1042 507 1042 l 321 1042 m 694 1042 q 672 1051 681 1042 q 663 1074 663 1060 l 663 1246 q 672 1269 663 1260 q 694 1278 681 1278 l 867 1278 q 890 1269 881 1278 q 899 1246 899 1260 l 899 1074 q 890 1051 899 1060 q 867 1042 881 1042 l 694 1042 z "},"Ẁ":{"ha":1189,"x_min":33,"x_max":1156,"o":"m 225 0 q 181 16 199 0 q 161 53 164 32 l 33 938 l 33 942 q 42 963 33 954 q 64 972 51 972 l 322 972 q 359 964 347 972 q 372 935 371 956 l 419 543 l 476 717 q 524 757 490 757 l 665 757 q 713 717 699 757 l 769 544 l 817 935 q 830 964 818 956 q 867 972 842 972 l 1125 972 q 1147 963 1138 972 q 1156 942 1156 954 l 1156 938 l 1028 53 q 1008 16 1025 32 q 964 0 990 0 l 765 0 q 727 13 740 0 q 708 38 714 25 l 594 322 l 481 38 q 462 13 475 25 q 424 0 449 0 l 225 0 m 517 1042 q 485 1047 497 1042 q 458 1065 474 1053 l 254 1233 q 247 1250 247 1240 q 254 1270 247 1263 q 274 1278 261 1278 l 546 1278 q 572 1273 563 1278 q 597 1251 582 1268 l 736 1082 q 743 1064 743 1075 q 721 1042 743 1042 l 517 1042 z "},"X":{"ha":1026,"x_min":0,"x_max":1026,"o":"m 31 0 q 9 9 18 0 q 0 31 0 18 q 4 46 0 39 l 296 497 l 33 926 q 29 942 29 935 q 38 963 29 954 q 60 972 47 972 l 361 972 q 419 938 400 972 l 517 768 l 622 938 q 681 972 642 972 l 968 972 q 990 963 981 972 q 999 942 999 954 q 994 926 999 933 l 726 501 l 1022 46 q 1026 31 1026 39 q 1017 9 1026 18 q 996 0 1008 0 l 683 0 q 626 32 646 0 l 506 218 l 390 32 q 333 0 371 0 l 31 0 z "},"Y":{"ha":986,"x_min":4,"x_max":982,"o":"m 357 0 q 331 11 342 0 q 319 38 319 22 l 319 311 l 7 929 q 4 942 4 935 q 13 963 4 954 q 35 972 22 972 l 296 972 q 334 960 319 972 q 354 938 349 949 l 493 658 l 632 938 q 652 960 638 949 q 690 972 667 972 l 951 972 q 973 963 964 972 q 982 942 982 954 q 979 929 982 935 l 667 311 l 667 38 q 656 11 667 22 q 629 0 644 0 l 357 0 z "},"Ý":{"ha":986,"x_min":4,"x_max":982,"o":"m 357 0 q 331 11 342 0 q 319 38 319 22 l 319 311 l 7 929 q 4 942 4 935 q 13 963 4 954 q 35 972 22 972 l 296 972 q 334 960 319 972 q 354 938 349 949 l 493 658 l 632 938 q 652 960 638 949 q 690 972 667 972 l 951 972 q 973 963 964 972 q 982 942 982 954 q 979 929 982 935 l 667 311 l 667 38 q 656 11 667 22 q 629 0 644 0 l 357 0 m 363 1042 q 340 1064 340 1042 q 347 1082 340 1075 l 486 1251 q 511 1273 501 1268 q 538 1278 521 1278 l 810 1278 q 829 1270 822 1278 q 836 1250 836 1263 q 829 1233 836 1240 l 625 1065 q 598 1047 610 1053 q 567 1042 586 1042 l 363 1042 z "},"Ŷ":{"ha":986,"x_min":4,"x_max":982,"o":"m 357 0 q 331 11 342 0 q 319 38 319 22 l 319 311 l 7 929 q 4 942 4 935 q 13 963 4 954 q 35 972 22 972 l 296 972 q 334 960 319 972 q 354 938 349 949 l 493 658 l 632 938 q 652 960 638 949 q 690 972 667 972 l 951 972 q 973 963 964 972 q 982 942 982 954 q 979 929 982 935 l 667 311 l 667 38 q 656 11 667 22 q 629 0 644 0 l 357 0 m 211 1042 q 189 1064 189 1042 q 196 1082 189 1075 l 351 1251 q 376 1272 365 1267 q 403 1278 388 1278 l 583 1278 q 610 1272 599 1278 q 635 1251 621 1267 l 790 1082 q 797 1064 797 1075 q 775 1042 797 1042 l 676 1042 q 621 1051 640 1042 l 493 1110 l 365 1051 q 310 1042 346 1042 l 211 1042 z "},"Ÿ":{"ha":986,"x_min":4,"x_max":982,"o":"m 357 0 q 331 11 342 0 q 319 38 319 22 l 319 311 l 7 929 q 4 942 4 935 q 13 963 4 954 q 35 972 22 972 l 296 972 q 334 960 319 972 q 354 938 349 949 l 493 658 l 632 938 q 652 960 638 949 q 690 972 667 972 l 951 972 q 973 963 964 972 q 982 942 982 954 q 979 929 982 935 l 667 311 l 667 38 q 656 11 667 22 q 629 0 644 0 l 357 0 m 219 1042 q 197 1051 206 1042 q 188 1074 188 1060 l 188 1246 q 197 1269 188 1260 q 219 1278 206 1278 l 392 1278 q 415 1269 406 1278 q 424 1246 424 1260 l 424 1074 q 415 1051 424 1060 q 392 1042 406 1042 l 219 1042 m 593 1042 q 570 1051 579 1042 q 561 1074 561 1060 l 561 1246 q 570 1269 561 1260 q 593 1278 579 1278 l 765 1278 q 788 1269 779 1278 q 797 1246 797 1260 l 797 1074 q 788 1051 797 1060 q 765 1042 779 1042 l 593 1042 z "},"Ỳ":{"ha":986,"x_min":4,"x_max":982,"o":"m 357 0 q 331 11 342 0 q 319 38 319 22 l 319 311 l 7 929 q 4 942 4 935 q 13 963 4 954 q 35 972 22 972 l 296 972 q 334 960 319 972 q 354 938 349 949 l 493 658 l 632 938 q 652 960 638 949 q 690 972 667 972 l 951 972 q 973 963 964 972 q 982 942 982 954 q 979 929 982 935 l 667 311 l 667 38 q 656 11 667 22 q 629 0 644 0 l 357 0 m 415 1042 q 384 1047 396 1042 q 357 1065 372 1053 l 153 1233 q 146 1250 146 1240 q 153 1270 146 1263 q 172 1278 160 1278 l 444 1278 q 471 1273 461 1278 q 496 1251 481 1268 l 635 1082 q 642 1064 642 1075 q 619 1042 642 1042 l 415 1042 z "},"Z":{"ha":963,"x_min":49,"x_max":917,"o":"m 86 0 q 60 11 71 0 q 49 38 49 22 l 49 238 q 69 286 49 265 l 458 690 l 100 690 q 74 701 85 690 q 63 728 63 713 l 63 935 q 74 961 63 950 q 100 972 85 972 l 861 972 q 888 961 876 972 q 899 935 899 950 l 899 738 q 881 692 899 710 l 513 285 l 879 285 q 906 274 894 285 q 917 247 917 263 l 917 38 q 906 11 917 22 q 879 0 894 0 l 86 0 z "},"Ź":{"ha":963,"x_min":49,"x_max":917,"o":"m 86 0 q 60 11 71 0 q 49 38 49 22 l 49 238 q 69 286 49 265 l 458 690 l 100 690 q 74 701 85 690 q 63 728 63 713 l 63 935 q 74 961 63 950 q 100 972 85 972 l 861 972 q 888 961 876 972 q 899 935 899 950 l 899 738 q 881 692 899 710 l 513 285 l 879 285 q 906 274 894 285 q 917 247 917 263 l 917 38 q 906 11 917 22 q 879 0 894 0 l 86 0 m 338 1042 q 315 1064 315 1042 q 322 1082 315 1075 l 461 1251 q 486 1273 476 1268 q 513 1278 496 1278 l 785 1278 q 804 1270 797 1278 q 811 1250 811 1263 q 804 1233 811 1240 l 600 1065 q 573 1047 585 1053 q 542 1042 561 1042 l 338 1042 z "},"Ž":{"ha":963,"x_min":49,"x_max":917,"o":"m 86 0 q 60 11 71 0 q 49 38 49 22 l 49 238 q 69 286 49 265 l 458 690 l 100 690 q 74 701 85 690 q 63 728 63 713 l 63 935 q 74 961 63 950 q 100 972 85 972 l 861 972 q 888 961 876 972 q 899 935 899 950 l 899 738 q 881 692 899 710 l 513 285 l 879 285 q 906 274 894 285 q 917 247 917 263 l 917 38 q 906 11 917 22 q 879 0 894 0 l 86 0 m 378 1042 q 351 1047 363 1042 q 326 1068 340 1053 l 171 1238 q 164 1256 164 1244 q 186 1278 164 1278 l 285 1278 q 340 1268 321 1278 l 468 1210 l 596 1268 q 651 1278 615 1278 l 750 1278 q 772 1256 772 1278 q 765 1238 772 1244 l 610 1068 q 585 1047 596 1053 q 558 1042 574 1042 l 378 1042 z "},"Ż":{"ha":963,"x_min":49,"x_max":917,"o":"m 86 0 q 60 11 71 0 q 49 38 49 22 l 49 238 q 69 286 49 265 l 458 690 l 100 690 q 74 701 85 690 q 63 728 63 713 l 63 935 q 74 961 63 950 q 100 972 85 972 l 861 972 q 888 961 876 972 q 899 935 899 950 l 899 738 q 881 692 899 710 l 513 285 l 879 285 q 906 274 894 285 q 917 247 917 263 l 917 38 q 906 11 917 22 q 879 0 894 0 l 86 0 m 374 1042 q 351 1051 360 1042 q 342 1074 342 1060 l 342 1263 q 351 1285 342 1276 q 374 1294 360 1294 l 563 1294 q 585 1285 576 1294 q 594 1263 594 1276 l 594 1074 q 585 1051 594 1060 q 563 1042 576 1042 l 374 1042 z "},"a":{"ha":864,"x_min":24,"x_max":808,"o":"m 293 -14 q 153 15 215 -14 q 58 94 92 44 q 24 207 24 144 q 328 447 24 394 l 475 471 l 475 472 q 468 527 475 513 q 433 542 461 542 q 407 536 418 542 q 383 519 396 531 q 362 503 371 508 q 338 497 353 497 l 333 497 l 101 497 q 80 505 89 497 q 71 525 71 513 q 110 615 71 565 q 233 701 150 665 q 436 736 315 736 q 715 658 622 736 q 808 436 808 581 l 808 38 q 797 11 808 22 q 771 0 786 0 l 528 0 q 501 11 513 0 q 490 38 490 22 l 490 76 q 408 10 460 35 q 293 -14 357 -14 m 389 192 q 455 218 431 192 q 479 299 479 244 l 479 300 l 397 282 q 336 231 336 268 q 350 203 336 214 q 389 192 364 192 z "},"á":{"ha":864,"x_min":24,"x_max":808,"o":"m 293 -14 q 153 15 215 -14 q 58 94 92 44 q 24 207 24 144 q 328 447 24 394 l 475 471 l 475 472 q 468 527 475 513 q 433 542 461 542 q 407 536 418 542 q 383 519 396 531 q 362 503 371 508 q 338 497 353 497 l 333 497 l 101 497 q 80 505 89 497 q 71 525 71 513 q 110 615 71 565 q 233 701 150 665 q 436 736 315 736 q 715 658 622 736 q 808 436 808 581 l 808 38 q 797 11 808 22 q 771 0 786 0 l 528 0 q 501 11 513 0 q 490 38 490 22 l 490 76 q 408 10 460 35 q 293 -14 357 -14 m 389 192 q 455 218 431 192 q 479 299 479 244 l 479 300 l 397 282 q 336 231 336 268 q 350 203 336 214 q 389 192 364 192 m 319 826 q 297 849 297 826 q 304 867 297 860 l 443 1036 q 468 1058 458 1053 q 494 1063 478 1063 l 753 1063 q 772 1055 765 1063 q 779 1035 779 1047 q 772 1018 779 1025 l 568 850 q 541 832 553 838 q 510 826 529 826 l 319 826 z "},"ă":{"ha":864,"x_min":24,"x_max":808,"o":"m 293 -14 q 153 15 215 -14 q 58 94 92 44 q 24 207 24 144 q 328 447 24 394 l 475 471 l 475 472 q 468 527 475 513 q 433 542 461 542 q 407 536 418 542 q 383 519 396 531 q 362 503 371 508 q 338 497 353 497 l 333 497 l 101 497 q 80 505 89 497 q 71 525 71 513 q 110 615 71 565 q 233 701 150 665 q 436 736 315 736 q 715 658 622 736 q 808 436 808 581 l 808 38 q 797 11 808 22 q 771 0 786 0 l 528 0 q 501 11 513 0 q 490 38 490 22 l 490 76 q 408 10 460 35 q 293 -14 357 -14 m 389 192 q 455 218 431 192 q 479 299 479 244 l 479 300 l 397 282 q 336 231 336 268 q 350 203 336 214 q 389 192 364 192 m 429 819 q 253 880 317 819 q 190 1036 190 940 q 197 1055 190 1047 q 217 1063 204 1063 l 347 1063 q 367 1055 360 1063 q 374 1036 374 1047 q 429 960 374 960 q 485 1036 485 960 q 492 1055 485 1047 q 511 1063 499 1063 l 642 1063 q 661 1055 654 1063 q 668 1036 668 1047 q 605 880 668 940 q 429 819 542 819 z "},"â":{"ha":864,"x_min":24,"x_max":808,"o":"m 293 -14 q 153 15 215 -14 q 58 94 92 44 q 24 207 24 144 q 328 447 24 394 l 475 471 l 475 472 q 468 527 475 513 q 433 542 461 542 q 407 536 418 542 q 383 519 396 531 q 362 503 371 508 q 338 497 353 497 l 333 497 l 101 497 q 80 505 89 497 q 71 525 71 513 q 110 615 71 565 q 233 701 150 665 q 436 736 315 736 q 715 658 622 736 q 808 436 808 581 l 808 38 q 797 11 808 22 q 771 0 786 0 l 528 0 q 501 11 513 0 q 490 38 490 22 l 490 76 q 408 10 460 35 q 293 -14 357 -14 m 389 192 q 455 218 431 192 q 479 299 479 244 l 479 300 l 397 282 q 336 231 336 268 q 350 203 336 214 q 389 192 364 192 m 154 826 q 132 849 132 826 q 139 867 132 860 l 294 1036 q 319 1057 308 1051 q 346 1063 331 1063 l 513 1063 q 539 1057 528 1063 q 564 1036 550 1051 l 719 867 q 726 849 726 860 q 704 826 726 826 l 613 826 q 557 836 576 826 l 429 894 l 301 836 q 246 826 282 826 l 154 826 z "},"ä":{"ha":864,"x_min":24,"x_max":808,"o":"m 293 -14 q 153 15 215 -14 q 58 94 92 44 q 24 207 24 144 q 328 447 24 394 l 475 471 l 475 472 q 468 527 475 513 q 433 542 461 542 q 407 536 418 542 q 383 519 396 531 q 362 503 371 508 q 338 497 353 497 l 333 497 l 101 497 q 80 505 89 497 q 71 525 71 513 q 110 615 71 565 q 233 701 150 665 q 436 736 315 736 q 715 658 622 736 q 808 436 808 581 l 808 38 q 797 11 808 22 q 771 0 786 0 l 528 0 q 501 11 513 0 q 490 38 490 22 l 490 76 q 408 10 460 35 q 293 -14 357 -14 m 389 192 q 455 218 431 192 q 479 299 479 244 l 479 300 l 397 282 q 336 231 336 268 q 350 203 336 214 q 389 192 364 192 m 178 826 q 155 835 164 826 q 146 858 146 844 l 146 1031 q 155 1053 146 1044 q 178 1063 164 1063 l 350 1063 q 373 1053 364 1063 q 382 1031 382 1044 l 382 858 q 373 835 382 844 q 350 826 364 826 l 178 826 m 510 826 q 487 835 496 826 q 478 858 478 844 l 478 1031 q 487 1053 478 1044 q 510 1063 496 1063 l 682 1063 q 705 1053 696 1063 q 714 1031 714 1044 l 714 858 q 705 835 714 844 q 682 826 696 826 l 510 826 z "},"à":{"ha":864,"x_min":24,"x_max":808,"o":"m 293 -14 q 153 15 215 -14 q 58 94 92 44 q 24 207 24 144 q 328 447 24 394 l 475 471 l 475 472 q 468 527 475 513 q 433 542 461 542 q 407 536 418 542 q 383 519 396 531 q 362 503 371 508 q 338 497 353 497 l 333 497 l 101 497 q 80 505 89 497 q 71 525 71 513 q 110 615 71 565 q 233 701 150 665 q 436 736 315 736 q 715 658 622 736 q 808 436 808 581 l 808 38 q 797 11 808 22 q 771 0 786 0 l 528 0 q 501 11 513 0 q 490 38 490 22 l 490 76 q 408 10 460 35 q 293 -14 357 -14 m 389 192 q 455 218 431 192 q 479 299 479 244 l 479 300 l 397 282 q 336 231 336 268 q 350 203 336 214 q 389 192 364 192 m 356 826 q 324 832 336 826 q 297 850 313 838 l 93 1018 q 86 1035 86 1025 q 93 1055 86 1047 q 113 1063 100 1063 l 371 1063 q 397 1058 388 1063 q 422 1036 407 1053 l 561 867 q 568 849 568 860 q 546 826 568 826 l 356 826 z "},"ā":{"ha":864,"x_min":24,"x_max":808,"o":"m 293 -14 q 153 15 215 -14 q 58 94 92 44 q 24 207 24 144 q 328 447 24 394 l 475 471 l 475 472 q 468 527 475 513 q 433 542 461 542 q 407 536 418 542 q 383 519 396 531 q 362 503 371 508 q 338 497 353 497 l 333 497 l 101 497 q 80 505 89 497 q 71 525 71 513 q 110 615 71 565 q 233 701 150 665 q 436 736 315 736 q 715 658 622 736 q 808 436 808 581 l 808 38 q 797 11 808 22 q 771 0 786 0 l 528 0 q 501 11 513 0 q 490 38 490 22 l 490 76 q 408 10 460 35 q 293 -14 357 -14 m 389 192 q 455 218 431 192 q 479 299 479 244 l 479 300 l 397 282 q 336 231 336 268 q 350 203 336 214 q 389 192 364 192 m 203 826 q 180 835 189 826 q 171 858 171 844 l 171 1003 q 180 1026 171 1017 q 203 1035 189 1035 l 657 1035 q 680 1026 671 1035 q 689 1003 689 1017 l 689 858 q 680 835 689 844 q 657 826 671 826 l 203 826 z "},"ą":{"ha":864,"x_min":24,"x_max":808,"o":"m 751 -306 q 572 -240 632 -306 q 513 -68 513 -174 q 518 0 513 -26 q 498 13 506 3 q 490 38 490 24 l 490 76 q 408 10 460 35 q 293 -14 357 -14 q 153 15 215 -14 q 58 94 92 44 q 24 207 24 144 q 328 447 24 394 l 475 471 l 475 472 q 468 527 475 513 q 433 542 461 542 q 407 536 418 542 q 383 519 396 531 q 362 503 371 508 q 338 497 353 497 l 333 497 l 101 497 q 80 505 89 497 q 71 525 71 513 q 110 615 71 565 q 233 701 150 665 q 436 736 315 736 q 715 658 622 736 q 808 436 808 581 l 808 38 q 797 11 808 22 q 771 0 786 0 l 749 0 q 702 -22 717 -1 q 688 -68 688 -43 q 704 -115 688 -94 q 757 -136 721 -136 l 771 -136 q 797 -147 786 -136 q 808 -174 808 -158 l 808 -268 q 797 -294 808 -283 q 771 -306 786 -306 l 751 -306 m 389 192 q 455 218 431 192 q 479 299 479 244 l 479 300 l 397 282 q 336 231 336 268 q 350 203 336 214 q 389 192 364 192 z "},"å":{"ha":864,"x_min":24,"x_max":808,"o":"m 293 -14 q 153 15 215 -14 q 58 94 92 44 q 24 207 24 144 q 328 447 24 394 l 475 471 l 475 472 q 468 527 475 513 q 433 542 461 542 q 407 536 418 542 q 383 519 396 531 q 362 503 371 508 q 338 497 353 497 l 333 497 l 101 497 q 80 505 89 497 q 71 525 71 513 q 110 615 71 565 q 233 701 150 665 q 436 736 315 736 q 715 658 622 736 q 808 436 808 581 l 808 38 q 797 11 808 22 q 771 0 786 0 l 528 0 q 501 11 513 0 q 490 38 490 22 l 490 76 q 408 10 460 35 q 293 -14 357 -14 m 389 192 q 455 218 431 192 q 479 299 479 244 l 479 300 l 397 282 q 336 231 336 268 q 350 203 336 214 q 389 192 364 192 m 429 819 q 331 857 371 819 q 290 951 290 894 q 331 1046 290 1008 q 429 1083 371 1083 q 528 1046 488 1083 q 568 951 568 1008 q 528 857 568 894 q 429 819 488 819 m 429 910 q 459 922 447 910 q 471 951 471 933 q 459 981 471 969 q 429 993 447 993 q 399 981 411 993 q 388 951 388 969 q 399 922 388 933 q 429 910 411 910 z "},"ã":{"ha":864,"x_min":24,"x_max":808,"o":"m 293 -14 q 153 15 215 -14 q 58 94 92 44 q 24 207 24 144 q 328 447 24 394 l 475 471 l 475 472 q 468 527 475 513 q 433 542 461 542 q 407 536 418 542 q 383 519 396 531 q 362 503 371 508 q 338 497 353 497 l 333 497 l 101 497 q 80 505 89 497 q 71 525 71 513 q 110 615 71 565 q 233 701 150 665 q 436 736 315 736 q 715 658 622 736 q 808 436 808 581 l 808 38 q 797 11 808 22 q 771 0 786 0 l 528 0 q 501 11 513 0 q 490 38 490 22 l 490 76 q 408 10 460 35 q 293 -14 357 -14 m 389 192 q 455 218 431 192 q 479 299 479 244 l 479 300 l 397 282 q 336 231 336 268 q 350 203 336 214 q 389 192 364 192 m 524 819 q 471 827 493 819 q 424 849 449 835 q 390 864 404 858 q 360 869 375 869 q 335 863 344 869 q 318 846 326 857 q 290 826 306 826 l 174 826 q 155 834 163 826 q 147 851 147 842 q 165 942 147 892 q 224 1031 182 993 q 336 1069 267 1069 q 389 1062 367 1069 q 436 1040 411 1054 q 470 1025 456 1031 q 500 1019 485 1019 q 524 1026 515 1019 q 540 1043 532 1032 q 553 1056 546 1050 q 569 1063 560 1063 l 686 1063 q 706 1055 699 1063 q 713 1036 713 1047 q 695 945 713 996 q 635 857 678 894 q 524 819 593 819 z "},"æ":{"ha":1299,"x_min":24,"x_max":1263,"o":"m 321 -14 q 162 15 229 -14 q 59 94 94 43 q 24 207 24 144 q 328 447 24 394 l 475 471 l 475 475 q 467 528 475 514 q 433 542 460 542 q 407 536 418 542 q 383 519 396 531 q 362 503 371 508 q 338 497 353 497 l 333 497 l 101 497 q 79 506 88 497 q 71 528 71 514 q 111 617 71 568 q 234 701 151 665 q 436 736 317 736 q 654 685 583 736 q 867 736 750 736 q 1087 685 997 736 q 1219 549 1176 635 q 1263 358 1263 464 l 1263 317 q 1251 290 1263 301 q 1225 279 1240 279 l 811 279 l 811 272 q 824 208 811 229 q 865 188 836 188 q 883 192 876 188 q 906 213 890 197 q 926 228 918 225 q 951 232 935 232 l 1214 232 q 1236 224 1228 232 q 1244 201 1244 215 q 1201 110 1244 161 q 1072 23 1157 60 q 868 -14 988 -14 q 594 71 696 -14 q 321 -14 494 -14 m 922 453 l 922 458 q 867 542 922 542 q 811 458 811 542 l 811 453 l 922 453 m 389 192 q 455 218 431 192 q 479 299 479 244 l 479 300 l 397 282 q 336 231 336 268 q 350 203 336 214 q 389 192 364 192 z "},"ǽ":{"ha":1299,"x_min":24,"x_max":1263,"o":"m 543 826 q 521 849 521 826 q 528 867 521 860 l 667 1036 q 692 1058 682 1053 q 718 1063 701 1063 l 976 1063 q 996 1055 989 1063 q 1003 1035 1003 1047 q 996 1018 1003 1025 l 792 850 q 765 832 776 838 q 733 826 753 826 l 543 826 m 321 -14 q 162 15 229 -14 q 59 94 94 43 q 24 207 24 144 q 328 447 24 394 l 475 471 l 475 475 q 467 528 475 514 q 433 542 460 542 q 407 536 418 542 q 383 519 396 531 q 362 503 371 508 q 338 497 353 497 l 333 497 l 101 497 q 79 506 88 497 q 71 528 71 514 q 111 617 71 568 q 234 701 151 665 q 436 736 317 736 q 654 685 583 736 q 867 736 750 736 q 1087 685 997 736 q 1219 549 1176 635 q 1263 358 1263 464 l 1263 317 q 1251 290 1263 301 q 1225 279 1240 279 l 811 279 l 811 272 q 824 208 811 229 q 865 188 836 188 q 883 192 876 188 q 906 213 890 197 q 926 228 918 225 q 951 232 935 232 l 1214 232 q 1236 224 1228 232 q 1244 201 1244 215 q 1201 110 1244 161 q 1072 23 1157 60 q 868 -14 988 -14 q 594 71 696 -14 q 321 -14 494 -14 m 922 453 l 922 458 q 867 542 922 542 q 811 458 811 542 l 811 453 l 922 453 m 389 192 q 455 218 431 192 q 479 299 479 244 l 479 300 l 397 282 q 336 231 336 268 q 350 203 336 214 q 389 192 364 192 z "},"b":{"ha":918,"x_min":63,"x_max":875,"o":"m 579 -14 q 374 69 447 -14 l 374 38 q 363 11 374 22 q 336 0 351 0 l 100 0 q 74 11 85 0 q 63 38 63 22 l 63 949 q 74 975 63 964 q 100 986 85 986 l 357 986 q 383 975 372 986 q 394 949 394 964 l 394 671 q 579 736 467 736 q 787 655 706 736 q 874 417 868 574 q 875 363 875 396 q 874 307 875 328 q 788 64 867 142 q 579 -14 708 -14 m 464 235 q 515 254 500 235 q 533 315 529 274 q 536 361 536 343 q 533 407 536 379 q 515 468 529 449 q 464 488 500 488 q 413 470 429 488 q 394 418 397 453 q 393 367 393 397 q 394 315 393 336 q 413 255 397 275 q 464 235 428 235 z "},"c":{"ha":864,"x_min":40,"x_max":838,"o":"m 431 -14 q 237 23 324 -14 q 99 132 150 60 q 42 304 47 204 l 40 360 l 42 417 q 98 589 46 517 q 237 699 150 661 q 431 736 324 736 q 658 687 567 736 q 794 572 750 638 q 838 464 838 507 q 826 440 838 450 q 800 429 815 429 l 529 429 q 489 457 503 429 q 467 489 478 479 q 438 499 457 499 q 395 476 407 499 q 382 410 383 454 l 381 356 l 382 311 q 396 244 385 264 q 438 224 407 224 q 469 233 460 224 q 489 265 479 242 q 529 293 500 293 l 800 293 q 826 283 815 293 q 838 258 838 272 q 796 154 838 219 q 663 38 754 89 q 431 -14 572 -14 z "},"ć":{"ha":864,"x_min":40,"x_max":838,"o":"m 431 -14 q 237 23 324 -14 q 99 132 150 60 q 42 304 47 204 l 40 360 l 42 417 q 98 589 46 517 q 237 699 150 661 q 431 736 324 736 q 658 687 567 736 q 794 572 750 638 q 838 464 838 507 q 826 440 838 450 q 800 429 815 429 l 529 429 q 489 457 503 429 q 467 489 478 479 q 438 499 457 499 q 395 476 407 499 q 382 410 383 454 l 381 356 l 382 311 q 396 244 385 264 q 438 224 407 224 q 469 233 460 224 q 489 265 479 242 q 529 293 500 293 l 800 293 q 826 283 815 293 q 838 258 838 272 q 796 154 838 219 q 663 38 754 89 q 431 -14 572 -14 m 322 826 q 300 849 300 826 q 307 867 300 860 l 446 1036 q 471 1058 461 1053 q 497 1063 481 1063 l 756 1063 q 775 1055 768 1063 q 782 1035 782 1047 q 775 1018 782 1025 l 571 850 q 544 832 556 838 q 513 826 532 826 l 322 826 z "},"č":{"ha":864,"x_min":40,"x_max":838,"o":"m 431 -14 q 237 23 324 -14 q 99 132 150 60 q 42 304 47 204 l 40 360 l 42 417 q 98 589 46 517 q 237 699 150 661 q 431 736 324 736 q 658 687 567 736 q 794 572 750 638 q 838 464 838 507 q 826 440 838 450 q 800 429 815 429 l 529 429 q 489 457 503 429 q 467 489 478 479 q 438 499 457 499 q 395 476 407 499 q 382 410 383 454 l 381 356 l 382 311 q 396 244 385 264 q 438 224 407 224 q 469 233 460 224 q 489 265 479 242 q 529 293 500 293 l 800 293 q 826 283 815 293 q 838 258 838 272 q 796 154 838 219 q 663 38 754 89 q 431 -14 572 -14 m 356 826 q 329 832 340 826 q 304 853 318 838 l 149 1022 q 142 1040 142 1029 q 164 1063 142 1063 l 256 1063 q 311 1053 292 1063 l 439 994 l 567 1053 q 622 1063 586 1063 l 714 1063 q 736 1040 736 1063 q 729 1022 736 1029 l 574 853 q 549 832 560 838 q 522 826 538 826 l 356 826 z "},"ç":{"ha":864,"x_min":40,"x_max":838,"o":"m 432 -306 q 352 -288 388 -306 q 317 -251 317 -271 q 325 -235 317 -243 l 354 -210 q 372 -201 365 -201 q 394 -208 376 -201 q 432 -214 411 -214 q 460 -204 450 -214 q 471 -181 471 -194 q 461 -157 471 -167 q 432 -147 451 -147 q 406 -151 424 -147 q 379 -156 388 -156 q 357 -147 365 -156 l 328 -118 q 317 -99 317 -107 q 325 -72 317 -89 l 353 -8 q 133 91 218 10 q 42 304 49 172 l 40 360 l 42 417 q 98 589 46 517 q 237 699 150 661 q 431 736 324 736 q 658 687 567 736 q 794 572 750 638 q 838 464 838 507 q 826 440 838 450 q 800 429 815 429 l 529 429 q 489 457 503 429 q 467 489 478 479 q 438 499 457 499 q 395 476 407 499 q 382 410 383 454 l 381 356 l 382 311 q 396 244 385 264 q 438 224 407 224 q 469 233 460 224 q 489 265 479 242 q 529 293 500 293 l 800 293 q 826 283 815 293 q 838 258 838 272 q 797 156 838 219 q 667 40 756 92 q 440 -14 578 -12 l 415 -62 q 436 -58 422 -60 q 457 -56 450 -56 q 540 -90 510 -56 q 569 -181 569 -125 q 532 -271 569 -236 q 432 -306 494 -306 z "},"ĉ":{"ha":864,"x_min":40,"x_max":838,"o":"m 431 -14 q 237 23 324 -14 q 99 132 150 60 q 42 304 47 204 l 40 360 l 42 417 q 98 589 46 517 q 237 699 150 661 q 431 736 324 736 q 658 687 567 736 q 794 572 750 638 q 838 464 838 507 q 826 440 838 450 q 800 429 815 429 l 529 429 q 489 457 503 429 q 467 489 478 479 q 438 499 457 499 q 395 476 407 499 q 382 410 383 454 l 381 356 l 382 311 q 396 244 385 264 q 438 224 407 224 q 469 233 460 224 q 489 265 479 242 q 529 293 500 293 l 800 293 q 826 283 815 293 q 838 258 838 272 q 796 154 838 219 q 663 38 754 89 q 431 -14 572 -14 m 164 826 q 142 849 142 826 q 149 867 142 860 l 304 1036 q 329 1057 318 1051 q 356 1063 340 1063 l 522 1063 q 549 1057 538 1063 q 574 1036 560 1051 l 729 867 q 736 849 736 860 q 714 826 736 826 l 622 826 q 567 836 586 826 l 439 894 l 311 836 q 256 826 292 826 l 164 826 z "},"ċ":{"ha":864,"x_min":40,"x_max":838,"o":"m 431 -14 q 237 23 324 -14 q 99 132 150 60 q 42 304 47 204 l 40 360 l 42 417 q 98 589 46 517 q 237 699 150 661 q 431 736 324 736 q 658 687 567 736 q 794 572 750 638 q 838 464 838 507 q 826 440 838 450 q 800 429 815 429 l 529 429 q 489 457 503 429 q 467 489 478 479 q 438 499 457 499 q 395 476 407 499 q 382 410 383 454 l 381 356 l 382 311 q 396 244 385 264 q 438 224 407 224 q 469 233 460 224 q 489 265 479 242 q 529 293 500 293 l 800 293 q 826 283 815 293 q 838 258 838 272 q 796 154 838 219 q 663 38 754 89 q 431 -14 572 -14 m 349 826 q 326 835 335 826 q 317 858 317 844 l 317 1040 q 326 1063 317 1054 q 349 1072 335 1072 l 531 1072 q 553 1063 544 1072 q 563 1040 563 1054 l 563 858 q 553 835 563 844 q 531 826 544 826 l 349 826 z "},"d":{"ha":918,"x_min":43,"x_max":856,"o":"m 339 -14 q 131 64 210 -14 q 44 307 51 142 l 43 363 l 44 417 q 131 655 50 574 q 339 736 213 736 q 524 671 451 736 l 524 949 q 535 975 524 964 q 561 986 546 986 l 818 986 q 844 975 833 986 q 856 949 856 964 l 856 38 q 844 11 856 22 q 818 0 833 0 l 582 0 q 556 11 567 0 q 544 38 544 22 l 544 69 q 339 -14 471 -14 m 454 235 q 506 255 490 235 q 524 315 521 275 q 526 367 526 357 q 524 418 526 376 q 505 470 521 453 q 454 488 489 488 q 403 468 418 488 q 385 407 389 449 q 383 361 383 393 q 385 315 383 329 q 403 254 389 274 q 454 235 418 235 z "},"ð":{"ha":886,"x_min":36,"x_max":843,"o":"m 439 -14 q 144 71 251 -14 q 36 319 36 156 q 88 503 36 428 q 232 615 140 578 q 439 653 324 653 l 458 653 q 417 728 442 690 l 253 664 q 238 660 243 660 q 217 668 225 660 q 208 689 208 676 l 208 728 q 215 758 208 747 q 239 774 222 768 l 342 814 q 217 915 292 864 q 199 942 199 928 q 208 963 199 954 q 229 972 217 972 l 490 972 q 564 954 538 972 q 585 938 574 946 q 610 918 597 929 l 735 967 q 750 971 746 971 q 771 963 763 971 q 779 942 779 954 l 779 903 q 772 874 779 885 q 749 857 765 864 l 692 835 q 842 400 828 665 q 843 357 843 386 q 842 313 843 326 q 727 69 832 151 q 439 -14 622 -14 m 439 208 q 486 227 472 208 q 501 282 500 246 q 503 326 503 299 q 492 406 503 382 q 439 431 481 431 q 391 413 403 431 q 376 356 379 394 l 375 319 q 378 256 375 278 q 394 222 381 235 q 439 208 408 208 z "},"ď":{"ha":918,"x_min":43,"x_max":1239,"o":"m 339 -14 q 131 64 210 -14 q 44 307 51 142 l 43 363 l 44 417 q 131 655 50 574 q 339 736 213 736 q 524 671 451 736 l 524 949 q 535 975 524 964 q 561 986 546 986 l 818 986 q 844 975 833 986 q 856 949 856 964 l 856 38 q 844 11 856 22 q 818 0 833 0 l 582 0 q 556 11 567 0 q 544 38 544 22 l 544 69 q 339 -14 471 -14 m 454 235 q 506 255 490 235 q 524 315 521 275 q 526 367 526 357 q 524 418 526 376 q 505 470 521 453 q 454 488 489 488 q 403 468 418 488 q 385 407 389 449 q 383 361 383 393 q 385 315 383 329 q 403 254 389 274 q 454 235 418 235 m 956 708 q 934 717 943 708 q 925 739 925 726 l 954 932 q 973 970 958 954 q 1014 986 988 986 l 1208 986 q 1230 977 1221 986 q 1239 956 1239 968 q 1238 946 1239 950 l 1161 753 q 1101 708 1144 708 l 956 708 z "},"đ":{"ha":919,"x_min":43,"x_max":935,"o":"m 339 -14 q 131 64 210 -14 q 44 307 51 142 l 43 363 l 44 417 q 131 655 50 574 q 339 736 213 736 q 524 671 451 736 l 524 761 l 482 761 q 456 772 467 761 q 444 799 444 783 l 444 869 q 456 896 444 885 q 482 907 467 907 l 524 907 l 524 949 q 535 975 524 964 q 561 986 546 986 l 818 986 q 844 975 833 986 q 856 949 856 964 l 856 907 l 897 907 q 924 896 913 907 q 935 869 935 885 l 935 799 q 924 772 935 783 q 897 761 913 761 l 856 761 l 856 38 q 844 11 856 22 q 818 0 833 0 l 582 0 q 556 11 567 0 q 544 38 544 22 l 544 79 q 459 11 511 36 q 339 -14 407 -14 m 454 235 q 506 255 490 235 q 524 315 521 275 q 526 367 526 357 q 524 418 526 376 q 505 470 521 453 q 454 488 489 488 q 403 468 418 488 q 385 407 389 449 q 383 361 383 393 q 385 315 383 329 q 403 254 389 274 q 454 235 418 235 z "},"e":{"ha":865,"x_min":39,"x_max":831,"o":"m 436 -14 q 143 78 247 -14 q 39 360 39 171 l 39 369 q 148 641 42 546 q 435 736 254 736 q 655 685 565 736 q 788 549 744 635 q 831 358 831 464 l 831 317 q 819 290 831 301 q 793 279 808 279 l 379 279 l 379 272 q 392 208 379 229 q 433 188 404 188 q 451 192 444 188 q 474 213 458 197 q 494 228 486 225 q 519 232 503 232 l 782 232 q 803 224 794 232 q 813 204 813 217 q 769 113 813 165 q 641 24 726 61 q 436 -14 556 -14 m 490 453 l 490 454 q 435 542 490 542 q 379 454 379 542 l 379 453 l 490 453 z "},"é":{"ha":865,"x_min":39,"x_max":831,"o":"m 436 -14 q 143 78 247 -14 q 39 360 39 171 l 39 369 q 148 641 42 546 q 435 736 254 736 q 655 685 565 736 q 788 549 744 635 q 831 358 831 464 l 831 317 q 819 290 831 301 q 793 279 808 279 l 379 279 l 379 272 q 392 208 379 229 q 433 188 404 188 q 451 192 444 188 q 474 213 458 197 q 494 228 486 225 q 519 232 503 232 l 782 232 q 803 224 794 232 q 813 204 813 217 q 769 113 813 165 q 641 24 726 61 q 436 -14 556 -14 m 490 453 l 490 454 q 435 542 490 542 q 379 454 379 542 l 379 453 l 490 453 m 322 826 q 300 849 300 826 q 307 867 300 860 l 446 1036 q 471 1058 461 1053 q 497 1063 481 1063 l 756 1063 q 775 1055 768 1063 q 782 1035 782 1047 q 775 1018 782 1025 l 571 850 q 544 832 556 838 q 513 826 532 826 l 322 826 z "},"ĕ":{"ha":865,"x_min":39,"x_max":831,"o":"m 436 -14 q 143 78 247 -14 q 39 360 39 171 l 39 369 q 148 641 42 546 q 435 736 254 736 q 655 685 565 736 q 788 549 744 635 q 831 358 831 464 l 831 317 q 819 290 831 301 q 793 279 808 279 l 379 279 l 379 272 q 392 208 379 229 q 433 188 404 188 q 451 192 444 188 q 474 213 458 197 q 494 228 486 225 q 519 232 503 232 l 782 232 q 803 224 794 232 q 813 204 813 217 q 769 113 813 165 q 641 24 726 61 q 436 -14 556 -14 m 490 453 l 490 454 q 435 542 490 542 q 379 454 379 542 l 379 453 l 490 453 m 435 819 q 259 880 322 819 q 196 1036 196 940 q 203 1055 196 1047 q 222 1063 210 1063 l 353 1063 q 372 1055 365 1063 q 379 1036 379 1047 q 435 960 379 960 q 490 1036 490 960 q 497 1055 490 1047 q 517 1063 504 1063 l 647 1063 q 667 1055 660 1063 q 674 1036 674 1047 q 610 880 674 940 q 435 819 547 819 z "},"ě":{"ha":865,"x_min":39,"x_max":831,"o":"m 436 -14 q 143 78 247 -14 q 39 360 39 171 l 39 369 q 148 641 42 546 q 435 736 254 736 q 655 685 565 736 q 788 549 744 635 q 831 358 831 464 l 831 317 q 819 290 831 301 q 793 279 808 279 l 379 279 l 379 272 q 392 208 379 229 q 433 188 404 188 q 451 192 444 188 q 474 213 458 197 q 494 228 486 225 q 519 232 503 232 l 782 232 q 803 224 794 232 q 813 204 813 217 q 769 113 813 165 q 641 24 726 61 q 436 -14 556 -14 m 490 453 l 490 454 q 435 542 490 542 q 379 454 379 542 l 379 453 l 490 453 m 351 826 q 325 832 336 826 q 300 853 314 838 l 144 1022 q 138 1040 138 1029 q 160 1063 138 1063 l 251 1063 q 307 1053 288 1063 l 435 994 l 563 1053 q 618 1063 582 1063 l 710 1063 q 732 1040 732 1063 q 725 1022 732 1029 l 569 853 q 544 832 556 838 q 518 826 533 826 l 351 826 z "},"ê":{"ha":865,"x_min":39,"x_max":831,"o":"m 436 -14 q 143 78 247 -14 q 39 360 39 171 l 39 369 q 148 641 42 546 q 435 736 254 736 q 655 685 565 736 q 788 549 744 635 q 831 358 831 464 l 831 317 q 819 290 831 301 q 793 279 808 279 l 379 279 l 379 272 q 392 208 379 229 q 433 188 404 188 q 451 192 444 188 q 474 213 458 197 q 494 228 486 225 q 519 232 503 232 l 782 232 q 803 224 794 232 q 813 204 813 217 q 769 113 813 165 q 641 24 726 61 q 436 -14 556 -14 m 490 453 l 490 454 q 435 542 490 542 q 379 454 379 542 l 379 453 l 490 453 m 160 826 q 138 849 138 826 q 144 867 138 860 l 300 1036 q 325 1057 314 1051 q 351 1063 336 1063 l 518 1063 q 544 1057 533 1063 q 569 1036 556 1051 l 725 867 q 732 849 732 860 q 710 826 732 826 l 618 826 q 563 836 582 826 l 435 894 l 307 836 q 251 826 288 826 l 160 826 z "},"ë":{"ha":865,"x_min":39,"x_max":831,"o":"m 436 -14 q 143 78 247 -14 q 39 360 39 171 l 39 369 q 148 641 42 546 q 435 736 254 736 q 655 685 565 736 q 788 549 744 635 q 831 358 831 464 l 831 317 q 819 290 831 301 q 793 279 808 279 l 379 279 l 379 272 q 392 208 379 229 q 433 188 404 188 q 451 192 444 188 q 474 213 458 197 q 494 228 486 225 q 519 232 503 232 l 782 232 q 803 224 794 232 q 813 204 813 217 q 769 113 813 165 q 641 24 726 61 q 436 -14 556 -14 m 490 453 l 490 454 q 435 542 490 542 q 379 454 379 542 l 379 453 l 490 453 m 183 826 q 160 835 169 826 q 151 858 151 844 l 151 1031 q 160 1053 151 1044 q 183 1063 169 1063 l 356 1063 q 378 1053 369 1063 q 388 1031 388 1044 l 388 858 q 378 835 388 844 q 356 826 369 826 l 183 826 m 515 826 q 492 835 501 826 q 483 858 483 844 l 483 1031 q 492 1053 483 1044 q 515 1063 501 1063 l 688 1063 q 710 1053 701 1063 q 719 1031 719 1044 l 719 858 q 710 835 719 844 q 688 826 701 826 l 515 826 z "},"ė":{"ha":865,"x_min":39,"x_max":831,"o":"m 436 -14 q 143 78 247 -14 q 39 360 39 171 l 39 369 q 148 641 42 546 q 435 736 254 736 q 655 685 565 736 q 788 549 744 635 q 831 358 831 464 l 831 317 q 819 290 831 301 q 793 279 808 279 l 379 279 l 379 272 q 392 208 379 229 q 433 188 404 188 q 451 192 444 188 q 474 213 458 197 q 494 228 486 225 q 519 232 503 232 l 782 232 q 803 224 794 232 q 813 204 813 217 q 769 113 813 165 q 641 24 726 61 q 436 -14 556 -14 m 490 453 l 490 454 q 435 542 490 542 q 379 454 379 542 l 379 453 l 490 453 m 344 826 q 322 835 331 826 q 313 858 313 844 l 313 1040 q 322 1063 313 1054 q 344 1072 331 1072 l 526 1072 q 549 1063 540 1072 q 558 1040 558 1054 l 558 858 q 549 835 558 844 q 526 826 540 826 l 344 826 z "},"è":{"ha":865,"x_min":39,"x_max":831,"o":"m 436 -14 q 143 78 247 -14 q 39 360 39 171 l 39 369 q 148 641 42 546 q 435 736 254 736 q 655 685 565 736 q 788 549 744 635 q 831 358 831 464 l 831 317 q 819 290 831 301 q 793 279 808 279 l 379 279 l 379 272 q 392 208 379 229 q 433 188 404 188 q 451 192 444 188 q 474 213 458 197 q 494 228 486 225 q 519 232 503 232 l 782 232 q 803 224 794 232 q 813 204 813 217 q 769 113 813 165 q 641 24 726 61 q 436 -14 556 -14 m 490 453 l 490 454 q 435 542 490 542 q 379 454 379 542 l 379 453 l 490 453 m 364 826 q 333 832 344 826 q 306 850 321 838 l 101 1018 q 94 1035 94 1025 q 101 1055 94 1047 q 121 1063 108 1063 l 379 1063 q 406 1058 396 1063 q 431 1036 415 1053 l 569 867 q 576 849 576 860 q 554 826 576 826 l 364 826 z "},"ē":{"ha":865,"x_min":39,"x_max":831,"o":"m 436 -14 q 143 78 247 -14 q 39 360 39 171 l 39 369 q 148 641 42 546 q 435 736 254 736 q 655 685 565 736 q 788 549 744 635 q 831 358 831 464 l 831 317 q 819 290 831 301 q 793 279 808 279 l 379 279 l 379 272 q 392 208 379 229 q 433 188 404 188 q 451 192 444 188 q 474 213 458 197 q 494 228 486 225 q 519 232 503 232 l 782 232 q 803 224 794 232 q 813 204 813 217 q 769 113 813 165 q 641 24 726 61 q 436 -14 556 -14 m 490 453 l 490 454 q 435 542 490 542 q 379 454 379 542 l 379 453 l 490 453 m 208 826 q 185 835 194 826 q 176 858 176 844 l 176 1003 q 185 1026 176 1017 q 208 1035 194 1035 l 663 1035 q 685 1026 676 1035 q 694 1003 694 1017 l 694 858 q 685 835 694 844 q 663 826 676 826 l 208 826 z "},"ę":{"ha":865,"x_min":39,"x_max":831,"o":"m 511 -306 q 332 -240 392 -306 q 272 -68 272 -174 q 281 4 272 -29 q 101 126 164 38 q 39 360 39 214 l 39 367 q 147 640 40 544 q 435 736 253 736 q 655 685 565 736 q 788 549 744 635 q 831 358 831 464 l 831 317 q 819 290 831 301 q 793 279 808 279 l 379 279 l 379 272 q 392 208 379 229 q 433 188 404 188 q 451 192 444 188 q 474 213 458 197 q 494 228 486 225 q 519 232 503 232 l 782 232 q 803 224 794 232 q 813 204 813 217 q 780 125 813 169 q 683 43 747 81 q 528 -7 619 6 q 447 -68 447 -21 q 464 -115 447 -94 q 517 -136 481 -136 l 531 -136 q 557 -147 546 -136 q 568 -174 568 -158 l 568 -268 q 557 -294 568 -283 q 531 -306 546 -306 l 511 -306 m 490 453 l 490 454 q 435 542 490 542 q 379 454 379 542 l 379 453 l 490 453 z "},"f":{"ha":683,"x_min":21,"x_max":682,"o":"m 192 0 q 165 11 176 0 q 154 38 154 22 l 154 479 l 58 479 q 32 490 43 479 q 21 517 21 501 l 21 685 q 32 711 21 700 q 58 722 43 722 l 154 722 l 154 746 q 250 966 154 904 q 515 1028 346 1028 l 644 1028 q 671 1017 660 1028 q 682 990 682 1006 l 682 822 q 671 796 682 807 q 644 785 660 785 l 532 785 q 472 739 472 785 l 472 722 l 631 722 q 657 711 646 722 q 668 685 668 700 l 668 517 q 657 490 668 501 q 631 479 646 479 l 472 479 l 472 38 q 461 11 472 22 q 435 0 450 0 l 192 0 z "},"g":{"ha":925,"x_min":42,"x_max":863,"o":"m 469 -306 q 233 -259 325 -306 q 99 -153 140 -212 q 57 -54 57 -93 q 68 -30 57 -40 q 94 -19 79 -19 l 365 -19 q 389 -26 381 -19 q 404 -47 397 -33 q 426 -74 414 -67 q 463 -82 439 -82 q 522 0 522 -82 l 522 92 q 338 32 454 32 q 126 105 200 32 q 43 346 53 178 l 42 382 q 119 648 42 560 q 338 736 196 736 q 456 710 403 736 q 543 642 508 685 l 543 685 q 554 711 543 700 q 581 722 565 722 l 824 722 q 850 711 839 722 q 861 685 861 700 l 863 24 q 754 -224 863 -143 q 469 -306 646 -306 m 453 274 q 503 291 488 274 q 522 343 519 308 q 524 381 524 350 q 509 462 524 436 q 453 488 494 488 q 401 467 417 488 q 383 407 386 447 l 382 381 q 397 300 382 326 q 453 274 411 274 z "},"ğ":{"ha":925,"x_min":42,"x_max":863,"o":"m 469 -306 q 233 -259 325 -306 q 99 -153 140 -212 q 57 -54 57 -93 q 68 -30 57 -40 q 94 -19 79 -19 l 365 -19 q 389 -26 381 -19 q 404 -47 397 -33 q 426 -74 414 -67 q 463 -82 439 -82 q 522 0 522 -82 l 522 92 q 338 32 454 32 q 126 105 200 32 q 43 346 53 178 l 42 382 q 119 648 42 560 q 338 736 196 736 q 456 710 403 736 q 543 642 508 685 l 543 685 q 554 711 543 700 q 581 722 565 722 l 824 722 q 850 711 839 722 q 861 685 861 700 l 863 24 q 754 -224 863 -143 q 469 -306 646 -306 m 453 274 q 503 291 488 274 q 522 343 519 308 q 524 381 524 350 q 509 462 524 436 q 453 488 494 488 q 401 467 417 488 q 383 407 386 447 l 382 381 q 397 300 382 326 q 453 274 411 274 m 451 819 q 276 880 339 819 q 213 1036 213 940 q 219 1055 213 1047 q 239 1063 226 1063 l 369 1063 q 389 1055 382 1063 q 396 1036 396 1047 q 451 960 396 960 q 507 1036 507 960 q 514 1055 507 1047 q 533 1063 521 1063 l 664 1063 q 683 1055 676 1063 q 690 1036 690 1047 q 627 880 690 940 q 451 819 564 819 z "},"ĝ":{"ha":925,"x_min":42,"x_max":863,"o":"m 469 -306 q 233 -259 325 -306 q 99 -153 140 -212 q 57 -54 57 -93 q 68 -30 57 -40 q 94 -19 79 -19 l 365 -19 q 389 -26 381 -19 q 404 -47 397 -33 q 426 -74 414 -67 q 463 -82 439 -82 q 522 0 522 -82 l 522 92 q 338 32 454 32 q 126 105 200 32 q 43 346 53 178 l 42 382 q 119 648 42 560 q 338 736 196 736 q 456 710 403 736 q 543 642 508 685 l 543 685 q 554 711 543 700 q 581 722 565 722 l 824 722 q 850 711 839 722 q 861 685 861 700 l 863 24 q 754 -224 863 -143 q 469 -306 646 -306 m 453 274 q 503 291 488 274 q 522 343 519 308 q 524 381 524 350 q 509 462 524 436 q 453 488 494 488 q 401 467 417 488 q 383 407 386 447 l 382 381 q 397 300 382 326 q 453 274 411 274 m 176 826 q 154 849 154 826 q 161 867 154 860 l 317 1036 q 342 1057 331 1051 q 368 1063 353 1063 l 535 1063 q 561 1057 550 1063 q 586 1036 572 1051 l 742 867 q 749 849 749 860 q 726 826 749 826 l 635 826 q 579 836 599 826 l 451 894 l 324 836 q 268 826 304 826 l 176 826 z "},"ģ":{"ha":925,"x_min":42,"x_max":863,"o":"m 624 1104 q 645 1095 636 1104 q 654 1074 654 1086 l 625 881 q 606 842 621 858 q 565 826 592 826 l 371 826 q 349 835 358 826 q 340 857 340 844 q 342 867 340 863 l 418 1060 q 478 1104 435 1104 l 624 1104 m 469 -306 q 233 -259 325 -306 q 99 -153 140 -212 q 57 -54 57 -93 q 68 -30 57 -40 q 94 -19 79 -19 l 365 -19 q 389 -26 381 -19 q 404 -47 397 -33 q 426 -74 414 -67 q 463 -82 439 -82 q 522 0 522 -82 l 522 92 q 338 32 454 32 q 126 105 200 32 q 43 346 53 178 l 42 382 q 119 648 42 560 q 338 736 196 736 q 456 710 403 736 q 543 642 508 685 l 543 685 q 554 711 543 700 q 581 722 565 722 l 824 722 q 850 711 839 722 q 861 685 861 700 l 863 24 q 754 -224 863 -143 q 469 -306 646 -306 m 453 274 q 503 291 488 274 q 522 343 519 308 q 524 381 524 350 q 509 462 524 436 q 453 488 494 488 q 401 467 417 488 q 383 407 386 447 l 382 381 q 397 300 382 326 q 453 274 411 274 z "},"ġ":{"ha":925,"x_min":42,"x_max":863,"o":"m 469 -306 q 233 -259 325 -306 q 99 -153 140 -212 q 57 -54 57 -93 q 68 -30 57 -40 q 94 -19 79 -19 l 365 -19 q 389 -26 381 -19 q 404 -47 397 -33 q 426 -74 414 -67 q 463 -82 439 -82 q 522 0 522 -82 l 522 92 q 338 32 454 32 q 126 105 200 32 q 43 346 53 178 l 42 382 q 119 648 42 560 q 338 736 196 736 q 456 710 403 736 q 543 642 508 685 l 543 685 q 554 711 543 700 q 581 722 565 722 l 824 722 q 850 711 839 722 q 861 685 861 700 l 863 24 q 754 -224 863 -143 q 469 -306 646 -306 m 453 274 q 503 291 488 274 q 522 343 519 308 q 524 381 524 350 q 509 462 524 436 q 453 488 494 488 q 401 467 417 488 q 383 407 386 447 l 382 381 q 397 300 382 326 q 453 274 411 274 m 361 826 q 338 835 347 826 q 329 858 329 844 l 329 1040 q 338 1063 329 1054 q 361 1072 347 1072 l 543 1072 q 566 1063 557 1072 q 575 1040 575 1054 l 575 858 q 566 835 575 844 q 543 826 557 826 l 361 826 z "},"h":{"ha":951,"x_min":63,"x_max":896,"o":"m 100 0 q 74 11 85 0 q 63 38 63 22 l 63 949 q 74 975 63 964 q 100 986 85 986 l 371 986 q 397 975 386 986 q 408 949 408 964 l 408 650 q 501 713 446 690 q 619 736 556 736 q 756 702 693 736 q 857 597 818 668 q 896 421 896 525 l 896 38 q 885 11 896 22 q 858 0 874 0 l 586 0 q 560 11 571 0 q 549 38 549 22 l 549 411 q 531 468 549 449 q 479 488 513 488 q 427 468 446 488 q 408 411 408 449 l 408 38 q 397 11 408 22 q 371 0 386 0 l 100 0 z "},"ħ":{"ha":953,"x_min":-10,"x_max":897,"o":"m 101 0 q 75 11 86 0 q 64 38 64 22 l 64 747 l 28 747 q 1 758 13 747 q -10 785 -10 769 l -10 856 q 1 882 -10 871 q 28 893 13 893 l 64 893 l 64 949 q 75 975 64 964 q 101 986 86 986 l 372 986 q 399 975 388 986 q 410 949 410 964 l 410 893 l 443 893 q 469 882 458 893 q 481 856 481 871 l 481 785 q 469 758 481 769 q 443 747 458 747 l 410 747 l 410 650 q 502 713 447 690 q 621 736 557 736 q 757 702 694 736 q 858 597 819 668 q 897 421 897 525 l 897 39 q 886 13 897 24 q 860 1 875 1 l 588 1 q 561 13 572 1 q 550 39 550 24 l 550 411 q 532 468 550 449 q 481 488 514 488 q 428 468 447 488 q 410 411 410 449 l 410 38 q 399 11 410 22 q 372 0 388 0 l 101 0 z "},"ĥ":{"ha":951,"x_min":63,"x_max":896,"o":"m 100 0 q 74 11 85 0 q 63 38 63 22 l 63 949 q 74 975 63 964 q 100 986 85 986 l 371 986 q 397 975 386 986 q 408 949 408 964 l 408 650 q 501 713 446 690 q 619 736 556 736 q 756 702 693 736 q 857 597 818 668 q 896 421 896 525 l 896 38 q 885 11 896 22 q 858 0 874 0 l 586 0 q 560 11 571 0 q 549 38 549 22 l 549 411 q 531 468 549 449 q 479 488 513 488 q 427 468 446 488 q 408 411 408 449 l 408 38 q 397 11 408 22 q 371 0 386 0 l 100 0 m 204 1042 q 182 1064 182 1042 q 189 1082 182 1075 l 344 1251 q 369 1272 358 1267 q 396 1278 381 1278 l 563 1278 q 589 1272 578 1278 q 614 1251 600 1267 l 769 1082 q 776 1064 776 1075 q 754 1042 776 1042 l 663 1042 q 607 1051 626 1042 l 479 1110 l 351 1051 q 296 1042 332 1042 l 204 1042 z "},"i":{"ha":449,"x_min":63,"x_max":386,"o":"m 107 799 q 81 810 92 799 q 69 836 69 821 l 69 1004 q 81 1031 69 1019 q 107 1042 92 1042 l 342 1042 q 368 1031 357 1042 q 379 1004 379 1019 l 379 836 q 368 810 379 821 q 342 799 357 799 l 107 799 m 100 0 q 74 11 85 0 q 63 38 63 22 l 63 685 q 74 711 63 700 q 100 722 85 722 l 349 722 q 375 711 364 722 q 386 685 386 700 l 386 38 q 375 11 386 22 q 349 0 364 0 l 100 0 z "},"ı":{"ha":449,"x_min":63,"x_max":386,"o":"m 100 0 q 74 11 85 0 q 63 38 63 22 l 63 685 q 74 711 63 700 q 100 722 85 722 l 349 722 q 375 711 364 722 q 386 685 386 700 l 386 38 q 375 11 386 22 q 349 0 364 0 l 100 0 z "},"í":{"ha":449,"x_min":63,"x_max":571,"o":"m 100 0 q 74 11 85 0 q 63 38 63 22 l 63 685 q 74 711 63 700 q 100 722 85 722 l 349 722 q 375 711 364 722 q 386 685 386 700 l 386 38 q 375 11 386 22 q 349 0 364 0 l 100 0 m 111 826 q 89 849 89 826 q 96 867 89 860 l 235 1036 q 260 1058 250 1053 q 286 1063 269 1063 l 544 1063 q 564 1055 557 1063 q 571 1035 571 1047 q 564 1018 571 1025 l 360 850 q 333 832 344 838 q 301 826 321 826 l 111 826 z "},"ĭ":{"ha":449,"x_min":-15,"x_max":463,"o":"m 100 0 q 74 11 85 0 q 63 38 63 22 l 63 685 q 74 711 63 700 q 100 722 85 722 l 349 722 q 375 711 364 722 q 386 685 386 700 l 386 38 q 375 11 386 22 q 349 0 364 0 l 100 0 m 224 819 q 48 880 111 819 q -15 1036 -15 940 q -8 1055 -15 1047 q 11 1063 -1 1063 l 142 1063 q 161 1055 154 1063 q 168 1036 168 1047 q 224 960 168 960 q 279 1036 279 960 q 286 1055 279 1047 q 306 1063 293 1063 l 436 1063 q 456 1055 449 1063 q 463 1036 463 1047 q 399 880 463 940 q 224 819 336 819 z "},"î":{"ha":449,"x_min":-74,"x_max":521,"o":"m 100 0 q 74 11 85 0 q 63 38 63 22 l 63 685 q 74 711 63 700 q 100 722 85 722 l 349 722 q 375 711 364 722 q 386 685 386 700 l 386 38 q 375 11 386 22 q 349 0 364 0 l 100 0 m -51 826 q -74 849 -74 826 q -67 867 -74 860 l 89 1036 q 114 1057 103 1051 q 140 1063 125 1063 l 307 1063 q 333 1057 322 1063 q 358 1036 344 1051 l 514 867 q 521 849 521 860 q 499 826 521 826 l 407 826 q 351 836 371 826 l 224 894 l 96 836 q 40 826 76 826 l -51 826 z "},"ï":{"ha":449,"x_min":-60,"x_max":508,"o":"m 100 0 q 74 11 85 0 q 63 38 63 22 l 63 685 q 74 711 63 700 q 100 722 85 722 l 349 722 q 375 711 364 722 q 386 685 386 700 l 386 38 q 375 11 386 22 q 349 0 364 0 l 100 0 m -28 826 q -51 835 -42 826 q -60 858 -60 844 l -60 1031 q -51 1053 -60 1044 q -28 1063 -42 1063 l 144 1063 q 167 1053 158 1063 q 176 1031 176 1044 l 176 858 q 167 835 176 844 q 144 826 158 826 l -28 826 m 304 826 q 281 835 290 826 q 272 858 272 844 l 272 1031 q 281 1053 272 1044 q 304 1063 290 1063 l 476 1063 q 499 1053 490 1063 q 508 1031 508 1044 l 508 858 q 499 835 508 844 q 476 826 490 826 l 304 826 z "},"ì":{"ha":449,"x_min":-121,"x_max":386,"o":"m 100 0 q 74 11 85 0 q 63 38 63 22 l 63 685 q 74 711 63 700 q 100 722 85 722 l 349 722 q 375 711 364 722 q 386 685 386 700 l 386 38 q 375 11 386 22 q 349 0 364 0 l 100 0 m 149 826 q 117 832 129 826 q 90 850 106 838 l -114 1018 q -121 1035 -121 1025 q -114 1055 -121 1047 q -94 1063 -107 1063 l 164 1063 q 190 1058 181 1063 q 215 1036 200 1053 l 354 867 q 361 849 361 860 q 339 826 361 826 l 149 826 z "},"ĳ":{"ha":928,"x_min":63,"x_max":865,"o":"m 107 799 q 81 810 92 799 q 69 836 69 821 l 69 1004 q 81 1031 69 1019 q 107 1042 92 1042 l 342 1042 q 368 1031 357 1042 q 379 1004 379 1019 l 379 836 q 368 810 379 821 q 342 799 357 799 l 107 799 m 100 0 q 74 11 85 0 q 63 38 63 22 l 63 685 q 74 711 63 700 q 100 722 85 722 l 349 722 q 375 711 364 722 q 386 685 386 700 l 386 38 q 375 11 386 22 q 349 0 364 0 l 100 0 m 574 799 q 547 810 558 799 q 536 836 536 821 l 536 1004 q 547 1031 536 1019 q 574 1042 558 1042 l 821 1042 q 847 1031 836 1042 q 858 1004 858 1019 l 858 836 q 847 810 858 821 q 821 799 836 799 l 574 799 m 389 -264 q 363 -253 374 -264 q 351 -226 351 -242 l 351 -58 q 363 -32 351 -43 q 389 -21 374 -21 l 469 -21 q 529 49 529 -21 l 529 685 q 540 711 529 700 q 567 722 551 722 l 828 722 q 854 711 843 722 q 865 685 865 700 l 865 40 q 767 -187 865 -110 q 511 -264 669 -264 l 389 -264 z "},"ī":{"ha":449,"x_min":-35,"x_max":483,"o":"m 100 0 q 74 11 85 0 q 63 38 63 22 l 63 685 q 74 711 63 700 q 100 722 85 722 l 349 722 q 375 711 364 722 q 386 685 386 700 l 386 38 q 375 11 386 22 q 349 0 364 0 l 100 0 m -3 826 q -26 835 -17 826 q -35 858 -35 844 l -35 1003 q -26 1026 -35 1017 q -3 1035 -17 1035 l 451 1035 q 474 1026 465 1035 q 483 1003 483 1017 l 483 858 q 474 835 483 844 q 451 826 465 826 l -3 826 z "},"į":{"ha":449,"x_min":63,"x_max":386,"o":"m 107 799 q 81 810 92 799 q 69 836 69 821 l 69 1004 q 81 1031 69 1019 q 107 1042 92 1042 l 342 1042 q 368 1031 357 1042 q 379 1004 379 1019 l 379 836 q 368 810 379 821 q 342 799 357 799 l 107 799 m 329 -267 q 161 -208 218 -267 q 104 -56 104 -149 q 110 0 104 -22 l 100 0 q 74 11 85 0 q 63 38 63 22 l 63 685 q 74 711 63 700 q 100 722 85 722 l 349 722 q 375 711 364 722 q 386 685 386 700 l 386 38 q 375 11 386 22 q 349 0 364 0 l 335 0 q 265 -56 265 0 q 335 -111 265 -111 l 349 -111 q 375 -122 364 -111 q 386 -149 386 -133 l 386 -229 q 375 -256 386 -244 q 349 -267 364 -267 l 329 -267 z "},"ĩ":{"ha":449,"x_min":-58,"x_max":507,"o":"m 100 0 q 74 11 85 0 q 63 38 63 22 l 63 685 q 74 711 63 700 q 100 722 85 722 l 349 722 q 375 711 364 722 q 386 685 386 700 l 386 38 q 375 11 386 22 q 349 0 364 0 l 100 0 m 318 819 q 265 827 288 819 q 218 849 243 835 q 184 864 199 858 q 154 869 169 869 q 130 863 139 869 q 113 846 121 857 q 85 826 100 826 l -32 826 q -51 834 -43 826 q -58 851 -58 842 q -41 942 -58 892 q 19 1031 -24 993 q 131 1069 61 1069 q 183 1062 161 1069 q 231 1040 206 1054 q 265 1025 250 1031 q 294 1019 279 1019 q 318 1026 310 1019 q 335 1043 326 1032 q 347 1056 340 1050 q 364 1063 354 1063 l 481 1063 q 500 1055 493 1063 q 507 1036 507 1047 q 490 945 507 996 q 430 857 472 894 q 318 819 388 819 z "},"j":{"ha":479,"x_min":-97,"x_max":417,"o":"m 125 799 q 99 810 110 799 q 88 836 88 821 l 88 1004 q 99 1031 88 1019 q 125 1042 110 1042 l 372 1042 q 399 1031 388 1042 q 410 1004 410 1019 l 410 836 q 399 810 410 821 q 372 799 388 799 l 125 799 m -60 -264 q -86 -253 -75 -264 q -97 -226 -97 -242 l -97 -58 q -86 -32 -97 -43 q -60 -21 -75 -21 l 21 -21 q 81 49 81 -21 l 81 685 q 92 711 81 700 q 118 722 103 722 l 379 722 q 406 711 394 722 q 417 685 417 700 l 417 40 q 319 -187 417 -110 q 63 -264 221 -264 l -60 -264 z "},"ȷ":{"ha":669,"x_min":31,"x_max":607,"o":"m 68 -264 q 42 -253 53 -264 q 31 -226 31 -242 l 31 -10 q 42 17 31 6 q 68 28 53 28 l 208 28 q 268 97 268 28 l 268 468 l 72 468 q 46 479 57 468 q 35 506 35 490 l 35 685 q 46 711 35 700 q 72 722 57 722 l 569 722 q 596 711 585 722 q 607 685 607 700 l 607 97 q 561 -96 607 -14 q 435 -221 515 -178 q 253 -264 354 -264 l 68 -264 z "},"ĵ":{"ha":669,"x_min":31,"x_max":628,"o":"m 68 -264 q 42 -253 53 -264 q 31 -226 31 -242 l 31 -10 q 42 17 31 6 q 68 28 53 28 l 208 28 q 268 97 268 28 l 268 468 l 72 468 q 46 479 57 468 q 35 506 35 490 l 35 685 q 46 711 35 700 q 72 722 57 722 l 569 722 q 596 711 585 722 q 607 685 607 700 l 607 97 q 561 -96 607 -14 q 435 -221 515 -178 q 253 -264 354 -264 l 68 -264 m 56 826 q 33 849 33 826 q 40 867 33 860 l 196 1036 q 221 1057 210 1051 q 247 1063 232 1063 l 414 1063 q 440 1057 429 1063 q 465 1036 451 1051 l 621 867 q 628 849 628 860 q 606 826 628 826 l 514 826 q 458 836 478 826 l 331 894 l 203 836 q 147 826 183 826 l 56 826 z "},"k":{"ha":893,"x_min":63,"x_max":890,"o":"m 100 0 q 74 11 85 0 q 63 38 63 22 l 63 949 q 74 975 63 964 q 100 986 85 986 l 343 986 q 369 975 358 986 q 381 949 381 964 l 381 499 l 503 699 q 543 722 517 722 l 824 722 q 847 713 838 722 q 857 689 857 703 q 850 668 857 679 l 660 397 l 885 51 q 890 33 890 43 q 881 10 890 19 q 857 0 871 0 l 565 0 q 522 24 538 0 l 381 260 l 381 38 q 369 11 381 22 q 343 0 358 0 l 100 0 z "},"ķ":{"ha":893,"x_min":63,"x_max":890,"o":"m 100 0 q 74 11 85 0 q 63 38 63 22 l 63 949 q 74 975 63 964 q 100 986 85 986 l 343 986 q 369 975 358 986 q 381 949 381 964 l 381 499 l 503 699 q 543 722 517 722 l 824 722 q 847 713 838 722 q 857 689 857 703 q 850 668 857 679 l 660 397 l 885 51 q 890 33 890 43 q 881 10 890 19 q 857 0 871 0 l 565 0 q 522 24 538 0 l 381 260 l 381 38 q 369 11 381 22 q 343 0 358 0 l 100 0 m 288 -347 q 266 -338 275 -347 q 257 -317 257 -329 l 286 -124 q 305 -85 290 -101 q 346 -69 319 -69 l 540 -69 q 562 -78 553 -69 q 571 -100 571 -87 q 569 -110 571 -106 l 493 -303 q 433 -347 476 -347 l 288 -347 z "},"ĸ":{"ha":893,"x_min":63,"x_max":890,"o":"m 100 0 q 74 11 85 0 q 63 38 63 22 l 63 685 q 74 711 63 700 q 100 722 85 722 l 343 722 q 369 711 358 722 q 381 685 381 700 l 381 457 l 517 699 q 557 722 531 722 l 824 722 q 847 713 838 722 q 857 689 857 703 q 850 668 857 679 l 674 369 l 885 51 q 890 33 890 43 q 881 10 890 19 q 857 0 871 0 l 565 0 q 522 24 538 0 l 381 260 l 381 38 q 369 11 381 22 q 343 0 358 0 l 100 0 z "},"l":{"ha":449,"x_min":63,"x_max":386,"o":"m 100 0 q 74 11 85 0 q 63 38 63 22 l 63 949 q 74 975 63 964 q 100 986 85 986 l 349 986 q 375 975 364 986 q 386 949 386 964 l 386 38 q 375 11 386 22 q 349 0 364 0 l 100 0 z "},"ĺ":{"ha":449,"x_min":63,"x_max":589,"o":"m 100 0 q 74 11 85 0 q 63 38 63 22 l 63 949 q 74 975 63 964 q 100 986 85 986 l 349 986 q 375 975 364 986 q 386 949 386 964 l 386 38 q 375 11 386 22 q 349 0 364 0 l 100 0 m 129 1042 q 107 1064 107 1042 q 114 1082 107 1075 l 253 1251 q 278 1273 268 1268 q 304 1278 288 1278 l 563 1278 q 582 1270 575 1278 q 589 1250 589 1263 q 582 1233 589 1240 l 378 1065 q 351 1047 363 1053 q 319 1042 339 1042 l 129 1042 z "},"ľ":{"ha":657,"x_min":63,"x_max":768,"o":"m 100 0 q 74 11 85 0 q 63 38 63 22 l 63 949 q 74 975 63 964 q 100 986 85 986 l 349 986 q 375 975 364 986 q 386 949 386 964 l 386 38 q 375 11 386 22 q 349 0 364 0 l 100 0 m 485 708 q 463 717 472 708 q 454 739 454 726 l 483 932 q 502 970 488 954 q 543 986 517 986 l 738 986 q 759 977 750 986 q 768 956 768 968 q 767 946 768 950 l 690 753 q 631 708 674 708 l 485 708 z "},"ļ":{"ha":449,"x_min":44,"x_max":386,"o":"m 100 0 q 74 11 85 0 q 63 38 63 22 l 63 949 q 74 975 63 964 q 100 986 85 986 l 349 986 q 375 975 364 986 q 386 949 386 964 l 386 38 q 375 11 386 22 q 349 0 364 0 l 100 0 m 75 -347 q 53 -338 63 -347 q 44 -317 44 -329 l 74 -124 q 92 -85 78 -101 q 133 -69 107 -69 l 328 -69 q 349 -78 340 -69 q 358 -100 358 -87 q 357 -110 358 -106 l 281 -303 q 221 -347 264 -347 l 75 -347 z "},"ŀ":{"ha":703,"x_min":63,"x_max":703,"o":"m 100 0 q 74 11 85 0 q 63 38 63 22 l 63 949 q 74 975 63 964 q 100 986 85 986 l 349 986 q 375 975 364 986 q 386 949 386 964 l 386 38 q 375 11 386 22 q 349 0 364 0 l 100 0 m 489 376 q 466 385 475 376 q 457 408 457 394 l 457 590 q 466 613 457 604 q 489 622 475 622 l 671 622 q 694 613 685 622 q 703 590 703 604 l 703 408 q 694 385 703 394 q 671 376 685 376 l 489 376 z "},"ł":{"ha":556,"x_min":33,"x_max":524,"o":"m 154 0 q 128 11 139 0 q 117 38 117 22 l 117 318 l 78 303 q 63 299 68 299 q 42 307 50 299 q 33 328 33 315 l 33 478 q 40 508 33 497 q 64 524 47 518 l 117 543 l 117 949 q 128 975 117 964 q 154 986 139 986 l 403 986 q 429 975 418 986 q 440 949 440 964 l 440 669 l 479 685 q 494 689 490 689 q 515 681 507 689 q 524 660 524 672 l 524 510 q 517 481 524 492 q 493 464 510 471 l 440 443 l 440 38 q 429 11 440 22 q 403 0 418 0 l 154 0 z "},"m":{"ha":1303,"x_min":63,"x_max":1247,"o":"m 100 0 q 74 11 85 0 q 63 38 63 22 l 63 685 q 74 711 63 700 q 100 722 85 722 l 329 722 q 356 711 344 722 q 367 685 367 700 l 367 639 q 451 707 396 678 q 576 736 507 736 q 779 622 725 736 q 871 703 813 671 q 992 736 929 736 q 1176 659 1104 736 q 1247 426 1247 582 l 1247 38 q 1236 11 1247 22 q 1210 0 1225 0 l 965 0 q 939 11 950 0 q 928 38 928 22 l 928 419 q 913 470 928 453 q 872 488 899 488 q 832 470 846 488 q 818 419 818 453 l 818 38 q 807 11 818 22 q 781 0 796 0 l 536 0 q 510 11 521 0 q 499 38 499 22 l 499 419 q 484 470 499 453 q 443 488 469 488 q 402 469 417 488 q 388 419 388 451 l 388 38 q 376 11 388 22 q 350 0 365 0 l 100 0 z "},"n":{"ha":936,"x_min":63,"x_max":881,"o":"m 100 0 q 74 11 85 0 q 63 38 63 22 l 63 685 q 74 711 63 700 q 100 722 85 722 l 343 722 q 369 711 358 722 q 381 685 381 700 l 381 639 q 478 709 417 682 q 611 736 540 736 q 746 702 685 736 q 844 597 807 668 q 881 421 881 526 l 881 38 q 869 11 881 22 q 843 0 858 0 l 578 0 q 551 11 563 0 q 540 38 540 22 l 540 411 q 522 468 540 449 q 471 488 504 488 q 419 468 438 488 q 401 411 401 449 l 401 38 q 390 11 401 22 q 364 0 379 0 l 100 0 z "},"ń":{"ha":936,"x_min":63,"x_max":881,"o":"m 100 0 q 74 11 85 0 q 63 38 63 22 l 63 685 q 74 711 63 700 q 100 722 85 722 l 343 722 q 369 711 358 722 q 381 685 381 700 l 381 639 q 478 709 417 682 q 611 736 540 736 q 746 702 685 736 q 844 597 807 668 q 881 421 881 526 l 881 38 q 869 11 881 22 q 843 0 858 0 l 578 0 q 551 11 563 0 q 540 38 540 22 l 540 411 q 522 468 540 449 q 471 488 504 488 q 419 468 438 488 q 401 411 401 449 l 401 38 q 390 11 401 22 q 364 0 379 0 l 100 0 m 358 826 q 336 849 336 826 q 343 867 336 860 l 482 1036 q 507 1058 497 1053 q 533 1063 517 1063 l 792 1063 q 811 1055 804 1063 q 818 1035 818 1047 q 811 1018 818 1025 l 607 850 q 580 832 592 838 q 549 826 568 826 l 358 826 z "},"ŉ":{"ha":936,"x_min":63,"x_max":881,"o":"m 100 0 q 74 11 85 0 q 63 38 63 22 l 63 685 q 74 711 63 700 q 100 722 85 722 l 343 722 q 369 711 358 722 q 381 685 381 700 l 381 639 q 478 709 417 682 q 611 736 540 736 q 746 702 685 736 q 844 597 807 668 q 881 421 881 526 l 881 38 q 869 11 881 22 q 843 0 858 0 l 578 0 q 551 11 563 0 q 540 38 540 22 l 540 411 q 522 468 540 449 q 471 488 504 488 q 419 468 438 488 q 401 411 401 449 l 401 38 q 390 11 401 22 q 364 0 379 0 l 100 0 m 147 826 q 126 835 135 826 q 117 857 117 844 l 146 1050 q 165 1088 150 1072 q 206 1104 179 1104 l 400 1104 q 422 1095 413 1104 q 431 1074 431 1086 q 429 1064 431 1068 l 353 871 q 293 826 336 826 l 147 826 z "},"ň":{"ha":936,"x_min":63,"x_max":881,"o":"m 100 0 q 74 11 85 0 q 63 38 63 22 l 63 685 q 74 711 63 700 q 100 722 85 722 l 343 722 q 369 711 358 722 q 381 685 381 700 l 381 639 q 478 709 417 682 q 611 736 540 736 q 746 702 685 736 q 844 597 807 668 q 881 421 881 526 l 881 38 q 869 11 881 22 q 843 0 858 0 l 578 0 q 551 11 563 0 q 540 38 540 22 l 540 411 q 522 468 540 449 q 471 488 504 488 q 419 468 438 488 q 401 411 401 449 l 401 38 q 390 11 401 22 q 364 0 379 0 l 100 0 m 388 826 q 361 832 372 826 q 336 853 350 838 l 181 1022 q 174 1040 174 1029 q 196 1063 174 1063 l 288 1063 q 343 1053 324 1063 l 471 994 l 599 1053 q 654 1063 618 1063 l 746 1063 q 768 1040 768 1063 q 761 1022 768 1029 l 606 853 q 581 832 592 838 q 554 826 569 826 l 388 826 z "},"ņ":{"ha":936,"x_min":63,"x_max":881,"o":"m 100 0 q 74 11 85 0 q 63 38 63 22 l 63 685 q 74 711 63 700 q 100 722 85 722 l 343 722 q 369 711 358 722 q 381 685 381 700 l 381 639 q 478 709 417 682 q 611 736 540 736 q 746 702 685 736 q 844 597 807 668 q 881 421 881 526 l 881 38 q 869 11 881 22 q 843 0 858 0 l 578 0 q 551 11 563 0 q 540 38 540 22 l 540 411 q 522 468 540 449 q 471 488 504 488 q 419 468 438 488 q 401 411 401 449 l 401 38 q 390 11 401 22 q 364 0 379 0 l 100 0 m 332 -347 q 310 -338 319 -347 q 301 -317 301 -329 l 331 -124 q 349 -85 335 -101 q 390 -69 364 -69 l 585 -69 q 606 -78 597 -69 q 615 -100 615 -87 q 614 -110 615 -106 l 538 -303 q 478 -347 521 -347 l 332 -347 z "},"ŋ":{"ha":936,"x_min":63,"x_max":881,"o":"m 393 -312 q 367 -301 378 -312 q 356 -275 356 -290 l 356 -68 q 367 -42 356 -53 q 393 -31 378 -31 l 447 -31 q 517 -5 494 -31 q 540 82 540 21 l 540 411 q 522 468 540 449 q 471 488 504 488 q 419 468 438 488 q 401 411 401 449 l 401 38 q 390 11 401 22 q 364 0 379 0 l 100 0 q 74 11 85 0 q 63 38 63 22 l 63 685 q 74 711 63 700 q 100 722 85 722 l 343 722 q 369 711 358 722 q 381 685 381 700 l 381 639 q 478 709 417 682 q 611 736 540 736 q 746 702 685 736 q 844 597 807 668 q 881 421 881 526 l 881 67 q 758 -217 881 -122 q 433 -312 635 -312 l 393 -312 z "},"ñ":{"ha":936,"x_min":63,"x_max":881,"o":"m 100 0 q 74 11 85 0 q 63 38 63 22 l 63 685 q 74 711 63 700 q 100 722 85 722 l 343 722 q 369 711 358 722 q 381 685 381 700 l 381 639 q 478 709 417 682 q 611 736 540 736 q 746 702 685 736 q 844 597 807 668 q 881 421 881 526 l 881 38 q 869 11 881 22 q 843 0 858 0 l 578 0 q 551 11 563 0 q 540 38 540 22 l 540 411 q 522 468 540 449 q 471 488 504 488 q 419 468 438 488 q 401 411 401 449 l 401 38 q 390 11 401 22 q 364 0 379 0 l 100 0 m 565 819 q 513 827 535 819 q 465 849 490 835 q 431 864 446 858 q 401 869 417 869 q 377 863 386 869 q 360 846 368 857 q 332 826 347 826 l 215 826 q 197 834 204 826 q 189 851 189 842 q 206 942 189 892 q 266 1031 224 993 q 378 1069 308 1069 q 431 1062 408 1069 q 478 1040 453 1054 q 512 1025 497 1031 q 542 1019 526 1019 q 565 1026 557 1019 q 582 1043 574 1032 q 594 1056 588 1050 q 611 1063 601 1063 l 728 1063 q 747 1055 740 1063 q 754 1036 754 1047 q 737 945 754 996 q 677 857 719 894 q 565 819 635 819 z "},"o":{"ha":892,"x_min":42,"x_max":851,"o":"m 446 -14 q 43 296 64 -14 q 42 361 42 317 q 43 426 42 406 q 158 657 53 578 q 446 736 264 736 q 733 657 628 736 q 849 426 839 578 q 851 361 851 385 q 849 296 851 338 q 446 -14 828 -14 m 446 208 q 494 228 483 208 q 508 303 506 249 q 510 361 510 317 q 508 419 510 406 q 493 493 504 472 q 446 514 482 514 q 399 493 410 514 q 383 419 388 472 l 382 361 l 383 303 q 397 228 386 249 q 446 208 408 208 z "},"ó":{"ha":892,"x_min":42,"x_max":851,"o":"m 446 -14 q 43 296 64 -14 q 42 361 42 317 q 43 426 42 406 q 158 657 53 578 q 446 736 264 736 q 733 657 628 736 q 849 426 839 578 q 851 361 851 385 q 849 296 851 338 q 446 -14 828 -14 m 446 208 q 494 228 483 208 q 508 303 506 249 q 510 361 510 317 q 508 419 510 406 q 493 493 504 472 q 446 514 482 514 q 399 493 410 514 q 383 419 388 472 l 382 361 l 383 303 q 397 228 386 249 q 446 208 408 208 m 329 826 q 307 849 307 826 q 314 867 307 860 l 453 1036 q 478 1058 468 1053 q 504 1063 488 1063 l 763 1063 q 782 1055 775 1063 q 789 1035 789 1047 q 782 1018 789 1025 l 578 850 q 551 832 563 838 q 519 826 539 826 l 329 826 z "},"ŏ":{"ha":892,"x_min":42,"x_max":851,"o":"m 446 -14 q 43 296 64 -14 q 42 361 42 317 q 43 426 42 406 q 158 657 53 578 q 446 736 264 736 q 733 657 628 736 q 849 426 839 578 q 851 361 851 385 q 849 296 851 338 q 446 -14 828 -14 m 446 208 q 494 228 483 208 q 508 303 506 249 q 510 361 510 317 q 508 419 510 406 q 493 493 504 472 q 446 514 482 514 q 399 493 410 514 q 383 419 388 472 l 382 361 l 383 303 q 397 228 386 249 q 446 208 408 208 m 446 819 q 270 880 333 819 q 207 1036 207 940 q 214 1055 207 1047 q 233 1063 221 1063 l 364 1063 q 383 1055 376 1063 q 390 1036 390 1047 q 446 960 390 960 q 501 1036 501 960 q 508 1055 501 1047 q 528 1063 515 1063 l 658 1063 q 678 1055 671 1063 q 685 1036 685 1047 q 622 880 685 940 q 446 819 558 819 z "},"ô":{"ha":892,"x_min":42,"x_max":851,"o":"m 446 -14 q 43 296 64 -14 q 42 361 42 317 q 43 426 42 406 q 158 657 53 578 q 446 736 264 736 q 733 657 628 736 q 849 426 839 578 q 851 361 851 385 q 849 296 851 338 q 446 -14 828 -14 m 446 208 q 494 228 483 208 q 508 303 506 249 q 510 361 510 317 q 508 419 510 406 q 493 493 504 472 q 446 514 482 514 q 399 493 410 514 q 383 419 388 472 l 382 361 l 383 303 q 397 228 386 249 q 446 208 408 208 m 171 826 q 149 849 149 826 q 156 867 149 860 l 311 1036 q 336 1057 325 1051 q 363 1063 347 1063 l 529 1063 q 556 1057 544 1063 q 581 1036 567 1051 l 736 867 q 743 849 743 860 q 721 826 743 826 l 629 826 q 574 836 593 826 l 446 894 l 318 836 q 263 826 299 826 l 171 826 z "},"ö":{"ha":892,"x_min":42,"x_max":851,"o":"m 446 -14 q 43 296 64 -14 q 42 361 42 317 q 43 426 42 406 q 158 657 53 578 q 446 736 264 736 q 733 657 628 736 q 849 426 839 578 q 851 361 851 385 q 849 296 851 338 q 446 -14 828 -14 m 446 208 q 494 228 483 208 q 508 303 506 249 q 510 361 510 317 q 508 419 510 406 q 493 493 504 472 q 446 514 482 514 q 399 493 410 514 q 383 419 388 472 l 382 361 l 383 303 q 397 228 386 249 q 446 208 408 208 m 194 826 q 172 835 181 826 q 163 858 163 844 l 163 1031 q 172 1053 163 1044 q 194 1063 181 1063 l 367 1063 q 390 1053 381 1063 q 399 1031 399 1044 l 399 858 q 390 835 399 844 q 367 826 381 826 l 194 826 m 526 826 q 503 835 513 826 q 494 858 494 844 l 494 1031 q 503 1053 494 1044 q 526 1063 513 1063 l 699 1063 q 722 1053 713 1063 q 731 1031 731 1044 l 731 858 q 722 835 731 844 q 699 826 713 826 l 526 826 z "},"ò":{"ha":892,"x_min":42,"x_max":851,"o":"m 446 -14 q 43 296 64 -14 q 42 361 42 317 q 43 426 42 406 q 158 657 53 578 q 446 736 264 736 q 733 657 628 736 q 849 426 839 578 q 851 361 851 385 q 849 296 851 338 q 446 -14 828 -14 m 446 208 q 494 228 483 208 q 508 303 506 249 q 510 361 510 317 q 508 419 510 406 q 493 493 504 472 q 446 514 482 514 q 399 493 410 514 q 383 419 388 472 l 382 361 l 383 303 q 397 228 386 249 q 446 208 408 208 m 372 826 q 341 832 353 826 q 314 850 329 838 l 110 1018 q 103 1035 103 1025 q 110 1055 103 1047 q 129 1063 117 1063 l 388 1063 q 414 1058 404 1063 q 439 1036 424 1053 l 578 867 q 585 849 585 860 q 563 826 585 826 l 372 826 z "},"ő":{"ha":892,"x_min":42,"x_max":875,"o":"m 446 -14 q 43 296 64 -14 q 42 361 42 317 q 43 426 42 406 q 158 657 53 578 q 446 736 264 736 q 733 657 628 736 q 849 426 839 578 q 851 361 851 385 q 849 296 851 338 q 446 -14 828 -14 m 446 208 q 494 228 483 208 q 508 303 506 249 q 510 361 510 317 q 508 419 510 406 q 493 493 504 472 q 446 514 482 514 q 399 493 410 514 q 383 419 388 472 l 382 361 l 383 303 q 397 228 386 249 q 446 208 408 208 m 176 826 q 154 849 154 826 q 161 869 154 856 l 236 1036 q 255 1056 243 1050 q 288 1063 267 1063 l 492 1063 q 512 1056 504 1063 q 519 1036 519 1049 q 511 1018 519 1026 l 353 846 q 306 826 336 826 l 176 826 m 532 826 q 510 849 510 826 q 517 869 510 856 l 592 1036 q 610 1056 599 1050 q 643 1063 622 1063 l 847 1063 q 867 1056 860 1063 q 875 1036 875 1049 q 867 1018 875 1026 l 708 846 q 661 826 692 826 l 532 826 z "},"ō":{"ha":892,"x_min":42,"x_max":851,"o":"m 446 -14 q 43 296 64 -14 q 42 361 42 317 q 43 426 42 406 q 158 657 53 578 q 446 736 264 736 q 733 657 628 736 q 849 426 839 578 q 851 361 851 385 q 849 296 851 338 q 446 -14 828 -14 m 446 208 q 494 228 483 208 q 508 303 506 249 q 510 361 510 317 q 508 419 510 406 q 493 493 504 472 q 446 514 482 514 q 399 493 410 514 q 383 419 388 472 l 382 361 l 383 303 q 397 228 386 249 q 446 208 408 208 m 219 826 q 197 835 206 826 q 188 858 188 844 l 188 1003 q 197 1026 188 1017 q 219 1035 206 1035 l 674 1035 q 697 1026 688 1035 q 706 1003 706 1017 l 706 858 q 697 835 706 844 q 674 826 688 826 l 219 826 z "},"ø":{"ha":926,"x_min":11,"x_max":914,"o":"m 465 -14 q 104 143 194 -14 l 56 125 q 40 121 46 121 q 19 129 28 121 q 11 150 11 138 l 11 244 q 18 274 11 264 q 42 290 25 285 l 63 297 q 61 363 61 318 q 63 426 61 406 q 178 657 72 578 q 465 736 283 736 q 818 590 724 736 l 869 611 q 885 615 881 615 q 906 607 897 615 q 914 586 914 599 l 914 492 q 907 463 914 474 q 883 446 900 453 l 867 439 q 869 360 869 415 q 868 296 869 314 q 465 -14 847 -14 m 519 475 q 501 504 514 494 q 465 514 489 514 q 419 496 432 514 q 403 438 407 478 l 403 429 l 519 475 m 465 208 q 514 228 503 208 q 528 303 525 249 l 528 308 l 407 261 q 424 221 411 233 q 465 208 436 208 z "},"ǿ":{"ha":926,"x_min":11,"x_max":914,"o":"m 339 826 q 317 849 317 826 q 324 867 317 860 l 463 1036 q 488 1058 478 1053 q 514 1063 497 1063 l 772 1063 q 792 1055 785 1063 q 799 1035 799 1047 q 792 1018 799 1025 l 588 850 q 560 832 572 838 q 529 826 549 826 l 339 826 m 465 -14 q 104 143 194 -14 l 56 125 q 40 121 46 121 q 19 129 28 121 q 11 150 11 138 l 11 244 q 18 274 11 264 q 42 290 25 285 l 63 297 q 61 363 61 318 q 63 426 61 406 q 178 657 72 578 q 465 736 283 736 q 818 590 724 736 l 869 611 q 885 615 881 615 q 906 607 897 615 q 914 586 914 599 l 914 492 q 907 463 914 474 q 883 446 900 453 l 867 439 q 869 360 869 415 q 868 296 869 314 q 465 -14 847 -14 m 519 475 q 501 504 514 494 q 465 514 489 514 q 419 496 432 514 q 403 438 407 478 l 403 429 l 519 475 m 465 208 q 514 228 503 208 q 528 303 525 249 l 528 308 l 407 261 q 424 221 411 233 q 465 208 436 208 z "},"õ":{"ha":892,"x_min":42,"x_max":851,"o":"m 446 -14 q 43 296 64 -14 q 42 361 42 317 q 43 426 42 406 q 158 657 53 578 q 446 736 264 736 q 733 657 628 736 q 849 426 839 578 q 851 361 851 385 q 849 296 851 338 q 446 -14 828 -14 m 446 208 q 494 228 483 208 q 508 303 506 249 q 510 361 510 317 q 508 419 510 406 q 493 493 504 472 q 446 514 482 514 q 399 493 410 514 q 383 419 388 472 l 382 361 l 383 303 q 397 228 386 249 q 446 208 408 208 m 540 819 q 488 827 510 819 q 440 849 465 835 q 406 864 421 858 q 376 869 392 869 q 352 863 361 869 q 335 846 343 857 q 307 826 322 826 l 190 826 q 172 834 179 826 q 164 851 164 842 q 181 942 164 892 q 241 1031 199 993 q 353 1069 283 1069 q 406 1062 383 1069 q 453 1040 428 1054 q 487 1025 472 1031 q 517 1019 501 1019 q 540 1026 532 1019 q 557 1043 549 1032 q 569 1056 563 1050 q 586 1063 576 1063 l 703 1063 q 722 1055 715 1063 q 729 1036 729 1047 q 712 945 729 996 q 652 857 694 894 q 540 819 610 819 z "},"œ":{"ha":1338,"x_min":42,"x_max":1303,"o":"m 446 -14 q 43 296 64 -14 q 42 361 42 317 q 43 426 42 406 q 158 657 53 578 q 446 736 264 736 q 686 686 590 736 q 907 736 778 736 q 1127 685 1038 736 q 1260 549 1217 635 q 1303 358 1303 464 l 1303 317 q 1292 290 1303 301 q 1265 279 1281 279 l 851 279 l 851 272 q 864 208 851 229 q 906 188 876 188 q 924 192 917 188 q 946 213 931 197 q 967 228 958 225 q 992 232 975 232 l 1254 232 q 1276 224 1267 232 q 1285 204 1285 217 q 1242 113 1285 165 q 1113 24 1199 61 q 908 -14 1028 -14 q 683 31 772 -14 q 446 -14 590 -14 m 963 453 l 963 454 q 907 542 963 542 q 851 454 851 542 l 851 453 l 963 453 m 446 208 q 494 228 483 208 q 508 303 506 249 q 510 361 510 317 q 508 419 510 406 q 493 493 504 472 q 446 514 482 514 q 399 493 410 514 q 383 419 388 472 l 382 361 l 383 303 q 397 228 386 249 q 446 208 408 208 z "},"p":{"ha":918,"x_min":63,"x_max":875,"o":"m 100 -264 q 74 -253 85 -264 q 63 -226 63 -242 l 63 685 q 74 711 63 700 q 100 722 85 722 l 336 722 q 363 711 351 722 q 374 685 374 700 l 374 643 q 459 711 407 686 q 579 736 511 736 q 788 658 708 736 q 874 415 867 581 q 875 361 875 394 q 874 306 875 326 q 787 67 868 149 q 579 -14 706 -14 q 394 69 453 -14 l 394 -226 q 383 -253 394 -242 q 357 -264 372 -264 l 100 -264 m 464 235 q 515 254 500 235 q 533 315 529 274 q 536 361 536 343 q 533 407 536 379 q 515 468 529 449 q 464 488 500 488 q 413 467 428 488 q 394 407 397 447 q 393 356 393 386 q 394 304 393 325 q 413 252 397 269 q 464 235 429 235 z "},"þ":{"ha":919,"x_min":64,"x_max":876,"o":"m 101 -264 q 75 -253 86 -264 q 64 -226 64 -242 l 64 949 q 75 975 64 964 q 101 986 86 986 l 358 986 q 385 975 374 986 q 396 949 396 964 l 396 657 q 469 717 428 699 q 581 736 511 736 q 789 658 710 736 q 875 415 868 581 q 876 361 876 394 q 875 306 876 326 q 788 67 869 149 q 581 -14 707 -14 q 396 69 454 -14 l 396 -226 q 385 -253 396 -242 q 358 -264 374 -264 l 101 -264 m 465 235 q 516 254 501 235 q 535 315 531 274 q 538 361 538 343 q 535 407 538 379 q 516 468 531 449 q 465 488 501 488 q 414 467 429 488 q 396 407 399 447 q 394 356 394 386 q 396 304 394 325 q 415 252 399 269 q 465 235 431 235 z "},"q":{"ha":918,"x_min":43,"x_max":856,"o":"m 561 -264 q 535 -253 546 -264 q 524 -226 524 -242 l 524 69 q 339 -14 465 -14 q 131 67 213 -14 q 44 306 50 149 l 43 361 l 44 415 q 131 658 51 581 q 339 736 210 736 q 459 711 407 736 q 544 643 511 686 l 544 685 q 556 711 544 700 q 582 722 567 722 l 818 722 q 844 711 833 722 q 856 685 856 700 l 856 -226 q 844 -253 856 -242 q 818 -264 833 -264 l 561 -264 m 454 235 q 505 252 489 235 q 524 304 521 269 q 526 356 526 346 q 524 407 526 365 q 506 467 521 447 q 454 488 490 488 q 403 468 418 488 q 385 407 389 449 q 383 361 383 393 q 385 315 383 329 q 403 254 389 274 q 454 235 418 235 z "},"r":{"ha":719,"x_min":63,"x_max":701,"o":"m 100 0 q 74 11 85 0 q 63 38 63 22 l 63 685 q 74 711 63 700 q 100 722 85 722 l 343 722 q 369 711 358 722 q 381 685 381 700 l 381 636 q 482 699 426 676 q 597 722 538 722 l 664 722 q 690 711 679 722 q 701 685 701 700 l 701 468 q 690 442 701 453 q 664 431 679 431 l 485 431 q 401 347 401 431 l 401 38 q 390 11 401 22 q 364 0 379 0 l 100 0 z "},"ŕ":{"ha":719,"x_min":63,"x_max":725,"o":"m 100 0 q 74 11 85 0 q 63 38 63 22 l 63 685 q 74 711 63 700 q 100 722 85 722 l 343 722 q 369 711 358 722 q 381 685 381 700 l 381 636 q 482 699 426 676 q 597 722 538 722 l 664 722 q 690 711 679 722 q 701 685 701 700 l 701 468 q 690 442 701 453 q 664 431 679 431 l 485 431 q 401 347 401 431 l 401 38 q 390 11 401 22 q 364 0 379 0 l 100 0 m 265 826 q 243 849 243 826 q 250 867 243 860 l 389 1036 q 414 1058 404 1053 q 440 1063 424 1063 l 699 1063 q 718 1055 711 1063 q 725 1035 725 1047 q 718 1018 725 1025 l 514 850 q 487 832 499 838 q 456 826 475 826 l 265 826 z "},"ř":{"ha":719,"x_min":63,"x_max":701,"o":"m 100 0 q 74 11 85 0 q 63 38 63 22 l 63 685 q 74 711 63 700 q 100 722 85 722 l 343 722 q 369 711 358 722 q 381 685 381 700 l 381 636 q 482 699 426 676 q 597 722 538 722 l 664 722 q 690 711 679 722 q 701 685 701 700 l 701 468 q 690 442 701 453 q 664 431 679 431 l 485 431 q 401 347 401 431 l 401 38 q 390 11 401 22 q 364 0 379 0 l 100 0 m 299 826 q 272 832 283 826 q 247 853 261 838 l 92 1022 q 85 1040 85 1029 q 107 1063 85 1063 l 199 1063 q 254 1053 235 1063 l 382 994 l 510 1053 q 565 1063 529 1063 l 657 1063 q 679 1040 679 1063 q 672 1022 679 1029 l 517 853 q 492 832 503 838 q 465 826 481 826 l 299 826 z "},"ŗ":{"ha":719,"x_min":50,"x_max":701,"o":"m 100 0 q 74 11 85 0 q 63 38 63 22 l 63 685 q 74 711 63 700 q 100 722 85 722 l 343 722 q 369 711 358 722 q 381 685 381 700 l 381 636 q 482 699 426 676 q 597 722 538 722 l 664 722 q 690 711 679 722 q 701 685 701 700 l 701 468 q 690 442 701 453 q 664 431 679 431 l 485 431 q 401 347 401 431 l 401 38 q 390 11 401 22 q 364 0 379 0 l 100 0 m 81 -347 q 59 -338 68 -347 q 50 -317 50 -329 l 79 -124 q 98 -85 83 -101 q 139 -69 113 -69 l 333 -69 q 355 -78 346 -69 q 364 -100 364 -87 q 363 -110 364 -106 l 286 -303 q 226 -347 269 -347 l 81 -347 z "},"s":{"ha":819,"x_min":31,"x_max":790,"o":"m 401 -14 q 193 19 276 -14 q 70 99 110 51 q 31 188 31 146 q 40 212 31 201 q 64 222 50 222 l 306 222 l 311 222 q 338 213 325 221 q 354 203 350 206 q 383 186 371 192 q 411 181 396 181 q 433 186 424 181 q 443 201 443 192 q 435 225 443 215 q 395 244 426 235 q 299 267 364 254 q 116 342 188 288 q 44 499 44 397 q 85 615 44 560 q 206 703 126 669 q 396 736 286 736 q 588 703 504 736 q 715 624 671 671 q 760 535 760 576 q 750 510 760 521 q 729 500 740 500 l 510 500 l 496 500 q 470 506 483 500 q 446 521 457 513 q 394 542 417 542 q 375 535 383 542 q 367 519 367 529 q 376 497 367 506 q 417 478 385 488 q 519 458 450 468 q 724 372 658 438 q 790 225 790 306 q 689 49 790 113 q 401 -14 588 -14 z "},"ś":{"ha":819,"x_min":31,"x_max":790,"o":"m 401 -14 q 193 19 276 -14 q 70 99 110 51 q 31 188 31 146 q 40 212 31 201 q 64 222 50 222 l 306 222 l 311 222 q 338 213 325 221 q 354 203 350 206 q 383 186 371 192 q 411 181 396 181 q 433 186 424 181 q 443 201 443 192 q 435 225 443 215 q 395 244 426 235 q 299 267 364 254 q 116 342 188 288 q 44 499 44 397 q 85 615 44 560 q 206 703 126 669 q 396 736 286 736 q 588 703 504 736 q 715 624 671 671 q 760 535 760 576 q 750 510 760 521 q 729 500 740 500 l 510 500 l 496 500 q 470 506 483 500 q 446 521 457 513 q 394 542 417 542 q 375 535 383 542 q 367 519 367 529 q 376 497 367 506 q 417 478 385 488 q 519 458 450 468 q 724 372 658 438 q 790 225 790 306 q 689 49 790 113 q 401 -14 588 -14 m 275 826 q 253 849 253 826 q 260 867 253 860 l 399 1036 q 424 1058 414 1053 q 450 1063 433 1063 l 708 1063 q 728 1055 721 1063 q 735 1035 735 1047 q 728 1018 735 1025 l 524 850 q 497 832 508 838 q 465 826 485 826 l 275 826 z "},"š":{"ha":819,"x_min":31,"x_max":790,"o":"m 401 -14 q 193 19 276 -14 q 70 99 110 51 q 31 188 31 146 q 40 212 31 201 q 64 222 50 222 l 306 222 l 311 222 q 338 213 325 221 q 354 203 350 206 q 383 186 371 192 q 411 181 396 181 q 433 186 424 181 q 443 201 443 192 q 435 225 443 215 q 395 244 426 235 q 299 267 364 254 q 116 342 188 288 q 44 499 44 397 q 85 615 44 560 q 206 703 126 669 q 396 736 286 736 q 588 703 504 736 q 715 624 671 671 q 760 535 760 576 q 750 510 760 521 q 729 500 740 500 l 510 500 l 496 500 q 470 506 483 500 q 446 521 457 513 q 394 542 417 542 q 375 535 383 542 q 367 519 367 529 q 376 497 367 506 q 417 478 385 488 q 519 458 450 468 q 724 372 658 438 q 790 225 790 306 q 689 49 790 113 q 401 -14 588 -14 m 326 826 q 300 832 311 826 q 275 853 289 838 l 119 1022 q 113 1040 113 1029 q 135 1063 113 1063 l 226 1063 q 282 1053 263 1063 l 410 994 l 538 1053 q 593 1063 557 1063 l 685 1063 q 707 1040 707 1063 q 700 1022 707 1029 l 544 853 q 519 832 531 838 q 493 826 508 826 l 326 826 z "},"ş":{"ha":819,"x_min":31,"x_max":790,"o":"m 401 -306 q 322 -288 357 -306 q 286 -251 286 -271 q 294 -235 286 -243 l 324 -210 q 342 -201 333 -201 q 363 -208 346 -201 q 401 -214 381 -214 q 430 -204 419 -214 q 440 -181 440 -194 q 431 -157 440 -167 q 401 -147 421 -147 q 375 -151 393 -147 q 349 -156 357 -156 q 326 -147 335 -156 l 297 -118 q 286 -99 286 -107 q 294 -72 286 -89 l 322 -10 q 158 33 224 0 q 61 108 92 67 q 31 188 31 150 q 40 212 31 201 q 64 222 50 222 l 294 222 l 306 222 q 354 203 326 222 q 383 186 371 192 q 411 181 396 181 q 433 186 424 181 q 443 201 443 192 q 435 225 443 215 q 395 244 426 235 q 299 267 364 254 q 116 342 188 288 q 44 499 44 397 q 85 615 44 560 q 206 703 126 669 q 396 736 286 736 q 588 703 504 736 q 715 624 671 671 q 760 535 760 576 q 750 510 760 521 q 729 500 740 500 l 507 500 l 496 500 q 470 506 483 500 q 446 521 457 513 q 394 542 417 542 q 375 535 383 542 q 367 519 367 529 q 376 497 367 506 q 417 478 385 488 q 519 458 450 468 q 724 372 658 438 q 790 225 790 306 q 691 51 790 114 q 410 -14 592 -12 l 385 -62 q 406 -58 392 -60 q 426 -56 419 -56 q 509 -90 479 -56 q 539 -181 539 -125 q 501 -271 539 -236 q 401 -306 464 -306 z "},"ŝ":{"ha":819,"x_min":31,"x_max":790,"o":"m 401 -14 q 193 19 276 -14 q 70 99 110 51 q 31 188 31 146 q 40 212 31 201 q 64 222 50 222 l 306 222 l 311 222 q 338 213 325 221 q 354 203 350 206 q 383 186 371 192 q 411 181 396 181 q 433 186 424 181 q 443 201 443 192 q 435 225 443 215 q 395 244 426 235 q 299 267 364 254 q 116 342 188 288 q 44 499 44 397 q 85 615 44 560 q 206 703 126 669 q 396 736 286 736 q 588 703 504 736 q 715 624 671 671 q 760 535 760 576 q 750 510 760 521 q 729 500 740 500 l 510 500 l 496 500 q 470 506 483 500 q 446 521 457 513 q 394 542 417 542 q 375 535 383 542 q 367 519 367 529 q 376 497 367 506 q 417 478 385 488 q 519 458 450 468 q 724 372 658 438 q 790 225 790 306 q 689 49 790 113 q 401 -14 588 -14 m 135 826 q 113 849 113 826 q 119 867 113 860 l 275 1036 q 300 1057 289 1051 q 326 1063 311 1063 l 493 1063 q 519 1057 508 1063 q 544 1036 531 1051 l 700 867 q 707 849 707 860 q 685 826 707 826 l 593 826 q 538 836 557 826 l 410 894 l 282 836 q 226 826 263 826 l 135 826 z "},"ș":{"ha":819,"x_min":31,"x_max":790,"o":"m 401 -14 q 193 19 276 -14 q 70 99 110 51 q 31 188 31 146 q 40 212 31 201 q 64 222 50 222 l 306 222 l 311 222 q 338 213 325 221 q 354 203 350 206 q 383 186 371 192 q 411 181 396 181 q 433 186 424 181 q 443 201 443 192 q 435 225 443 215 q 395 244 426 235 q 299 267 364 254 q 116 342 188 288 q 44 499 44 397 q 85 615 44 560 q 206 703 126 669 q 396 736 286 736 q 588 703 504 736 q 715 624 671 671 q 760 535 760 576 q 750 510 760 521 q 729 500 740 500 l 510 500 l 496 500 q 470 506 483 500 q 446 521 457 513 q 394 542 417 542 q 375 535 383 542 q 367 519 367 529 q 376 497 367 506 q 417 478 385 488 q 519 458 450 468 q 724 372 658 438 q 790 225 790 306 q 689 49 790 113 q 401 -14 588 -14 m 265 -347 q 244 -338 253 -347 q 235 -317 235 -329 l 264 -124 q 283 -85 268 -101 q 324 -69 297 -69 l 518 -69 q 540 -78 531 -69 q 549 -100 549 -87 q 547 -110 549 -106 l 471 -303 q 411 -347 454 -347 l 265 -347 z "},"ß":{"ha":947,"x_min":63,"x_max":910,"o":"m 100 0 q 74 11 85 0 q 63 38 63 22 l 63 628 q 165 887 63 789 q 472 986 267 985 q 697 946 608 986 q 827 840 786 906 q 868 697 868 775 q 849 597 868 640 q 786 521 829 554 q 878 438 846 490 q 910 300 910 386 q 867 156 910 225 q 736 44 824 88 q 521 0 649 0 l 472 0 q 439 10 451 0 q 426 38 426 21 l 426 196 q 439 224 426 213 q 472 233 451 235 l 475 233 q 542 256 515 233 q 568 315 568 278 q 542 375 568 353 q 469 397 517 397 l 467 397 q 426 435 426 397 l 426 571 q 435 599 426 589 q 467 608 443 608 l 471 608 q 535 629 510 610 q 560 679 560 649 q 536 731 560 710 q 472 751 513 751 q 385 638 385 751 l 385 38 q 374 11 385 22 q 347 0 363 0 l 100 0 z "},"ſ":{"ha":538,"x_min":22,"x_max":683,"o":"m 193 0 q 167 11 178 0 q 156 38 156 22 l 156 479 l 60 479 q 33 490 44 479 q 22 517 22 501 l 22 685 q 33 711 22 700 q 60 722 44 722 l 156 722 l 156 746 q 251 966 156 904 q 517 1028 347 1028 l 646 1028 q 672 1017 661 1028 q 683 990 683 1006 l 683 822 q 672 796 683 807 q 646 785 661 785 l 533 785 q 474 739 474 785 l 474 38 q 463 11 474 22 q 436 0 451 0 l 193 0 z "},"t":{"ha":739,"x_min":15,"x_max":704,"o":"m 510 0 q 254 69 346 0 q 163 299 163 138 l 163 479 l 53 479 q 26 490 38 479 q 15 517 15 501 l 15 685 q 26 711 15 700 q 53 722 38 722 l 163 722 l 163 949 q 174 975 163 964 q 200 986 185 986 l 443 986 q 469 975 458 986 q 481 949 481 964 l 481 722 l 656 722 q 682 711 671 722 q 693 685 693 700 l 693 517 q 682 490 693 501 q 656 479 671 479 l 481 479 l 481 326 q 540 257 481 257 l 667 257 q 693 246 682 257 q 704 219 704 235 l 704 38 q 693 11 704 22 q 667 0 682 0 l 510 0 z "},"ŧ":{"ha":740,"x_min":17,"x_max":706,"o":"m 511 0 q 256 69 347 0 q 164 299 164 138 l 164 368 l 54 368 q 28 379 39 368 q 17 406 17 390 l 17 476 q 28 503 17 492 q 54 514 39 514 l 164 514 l 164 576 l 54 576 q 28 588 39 576 q 17 614 17 599 l 17 685 q 28 711 17 700 q 54 722 39 722 l 164 722 l 164 949 q 175 975 164 964 q 201 986 186 986 l 444 986 q 471 975 460 986 q 482 949 482 964 l 482 722 l 657 722 q 683 711 672 722 q 694 685 694 700 l 694 614 q 683 588 694 599 q 657 576 672 576 l 482 576 l 482 514 l 657 514 q 683 503 672 514 q 694 476 694 492 l 694 406 q 683 379 694 390 q 657 368 672 368 l 482 368 l 482 326 q 542 257 482 257 l 668 257 q 694 246 683 257 q 706 219 706 235 l 706 38 q 694 11 706 22 q 668 0 683 0 l 511 0 z "},"ť":{"ha":729,"x_min":15,"x_max":868,"o":"m 510 0 q 254 69 346 0 q 163 299 163 138 l 163 479 l 53 479 q 26 490 38 479 q 15 517 15 501 l 15 685 q 26 711 15 700 q 53 722 38 722 l 163 722 l 163 949 q 174 975 163 964 q 200 986 185 986 l 443 986 q 469 975 458 986 q 481 949 481 964 l 481 722 l 656 722 q 682 711 671 722 q 693 685 693 700 l 693 517 q 682 490 693 501 q 656 479 671 479 l 481 479 l 481 326 q 540 257 481 257 l 667 257 q 693 246 682 257 q 704 219 704 235 l 704 38 q 693 11 704 22 q 667 0 682 0 l 510 0 m 585 847 q 563 856 572 847 q 554 878 554 865 l 583 1071 q 602 1109 588 1093 q 643 1125 617 1125 l 838 1125 q 859 1116 850 1125 q 868 1094 868 1107 q 867 1085 868 1089 l 790 892 q 731 847 774 847 l 585 847 z "},"ț":{"ha":739,"x_min":15,"x_max":704,"o":"m 510 0 q 254 69 346 0 q 163 299 163 138 l 163 479 l 53 479 q 26 490 38 479 q 15 517 15 501 l 15 685 q 26 711 15 700 q 53 722 38 722 l 163 722 l 163 949 q 174 975 163 964 q 200 986 185 986 l 443 986 q 469 975 458 986 q 481 949 481 964 l 481 722 l 656 722 q 682 711 671 722 q 693 685 693 700 l 693 517 q 682 490 693 501 q 656 479 671 479 l 481 479 l 481 326 q 540 257 481 257 l 667 257 q 693 246 682 257 q 704 219 704 235 l 704 38 q 693 11 704 22 q 667 0 682 0 l 510 0 m 258 -347 q 237 -338 246 -347 q 228 -317 228 -329 l 257 -124 q 276 -85 261 -101 q 317 -69 290 -69 l 511 -69 q 533 -78 524 -69 q 542 -100 542 -87 q 540 -110 542 -106 l 464 -303 q 404 -347 447 -347 l 258 -347 z "},"u":{"ha":936,"x_min":56,"x_max":874,"o":"m 325 -14 q 190 20 251 -14 q 92 125 129 54 q 56 301 56 196 l 56 685 q 67 711 56 700 q 93 722 78 722 l 358 722 q 385 711 374 722 q 396 685 396 700 l 396 311 q 414 254 396 274 q 465 235 432 235 q 517 254 499 235 q 535 311 535 274 l 535 685 q 546 711 535 700 q 572 722 557 722 l 836 722 q 863 711 851 722 q 874 685 874 700 l 874 38 q 863 11 874 22 q 836 0 851 0 l 593 0 q 567 11 578 0 q 556 38 556 22 l 556 83 q 463 10 522 35 q 325 -14 403 -14 z "},"ú":{"ha":936,"x_min":56,"x_max":874,"o":"m 325 -14 q 190 20 251 -14 q 92 125 129 54 q 56 301 56 196 l 56 685 q 67 711 56 700 q 93 722 78 722 l 358 722 q 385 711 374 722 q 396 685 396 700 l 396 311 q 414 254 396 274 q 465 235 432 235 q 517 254 499 235 q 535 311 535 274 l 535 685 q 546 711 535 700 q 572 722 557 722 l 836 722 q 863 711 851 722 q 874 685 874 700 l 874 38 q 863 11 874 22 q 836 0 851 0 l 593 0 q 567 11 578 0 q 556 38 556 22 l 556 83 q 463 10 522 35 q 325 -14 403 -14 m 353 826 q 331 849 331 826 q 338 867 331 860 l 476 1036 q 501 1058 492 1053 q 528 1063 511 1063 l 786 1063 q 806 1055 799 1063 q 813 1035 813 1047 q 806 1018 813 1025 l 601 850 q 574 832 586 838 q 543 826 563 826 l 353 826 z "},"ŭ":{"ha":936,"x_min":56,"x_max":874,"o":"m 325 -14 q 190 20 251 -14 q 92 125 129 54 q 56 301 56 196 l 56 685 q 67 711 56 700 q 93 722 78 722 l 358 722 q 385 711 374 722 q 396 685 396 700 l 396 311 q 414 254 396 274 q 465 235 432 235 q 517 254 499 235 q 535 311 535 274 l 535 685 q 546 711 535 700 q 572 722 557 722 l 836 722 q 863 711 851 722 q 874 685 874 700 l 874 38 q 863 11 874 22 q 836 0 851 0 l 593 0 q 567 11 578 0 q 556 38 556 22 l 556 83 q 463 10 522 35 q 325 -14 403 -14 m 464 819 q 288 880 351 819 q 225 1036 225 940 q 232 1055 225 1047 q 251 1063 239 1063 l 382 1063 q 401 1055 394 1063 q 408 1036 408 1047 q 464 960 408 960 q 519 1036 519 960 q 526 1055 519 1047 q 546 1063 533 1063 l 676 1063 q 696 1055 689 1063 q 703 1036 703 1047 q 640 880 703 940 q 464 819 576 819 z "},"û":{"ha":936,"x_min":56,"x_max":874,"o":"m 325 -14 q 190 20 251 -14 q 92 125 129 54 q 56 301 56 196 l 56 685 q 67 711 56 700 q 93 722 78 722 l 358 722 q 385 711 374 722 q 396 685 396 700 l 396 311 q 414 254 396 274 q 465 235 432 235 q 517 254 499 235 q 535 311 535 274 l 535 685 q 546 711 535 700 q 572 722 557 722 l 836 722 q 863 711 851 722 q 874 685 874 700 l 874 38 q 863 11 874 22 q 836 0 851 0 l 593 0 q 567 11 578 0 q 556 38 556 22 l 556 83 q 463 10 522 35 q 325 -14 403 -14 m 189 826 q 167 849 167 826 q 174 867 167 860 l 329 1036 q 354 1057 343 1051 q 381 1063 365 1063 l 547 1063 q 574 1057 563 1063 q 599 1036 585 1051 l 754 867 q 761 849 761 860 q 739 826 761 826 l 647 826 q 592 836 611 826 l 464 894 l 336 836 q 281 826 317 826 l 189 826 z "},"ü":{"ha":936,"x_min":56,"x_max":874,"o":"m 325 -14 q 190 20 251 -14 q 92 125 129 54 q 56 301 56 196 l 56 685 q 67 711 56 700 q 93 722 78 722 l 358 722 q 385 711 374 722 q 396 685 396 700 l 396 311 q 414 254 396 274 q 465 235 432 235 q 517 254 499 235 q 535 311 535 274 l 535 685 q 546 711 535 700 q 572 722 557 722 l 836 722 q 863 711 851 722 q 874 685 874 700 l 874 38 q 863 11 874 22 q 836 0 851 0 l 593 0 q 567 11 578 0 q 556 38 556 22 l 556 83 q 463 10 522 35 q 325 -14 403 -14 m 213 826 q 190 835 199 826 q 181 858 181 844 l 181 1031 q 190 1053 181 1044 q 213 1063 199 1063 l 385 1063 q 408 1053 399 1063 q 417 1031 417 1044 l 417 858 q 408 835 417 844 q 385 826 399 826 l 213 826 m 544 826 q 522 835 531 826 q 513 858 513 844 l 513 1031 q 522 1053 513 1044 q 544 1063 531 1063 l 717 1063 q 740 1053 731 1063 q 749 1031 749 1044 l 749 858 q 740 835 749 844 q 717 826 731 826 l 544 826 z "},"ù":{"ha":936,"x_min":56,"x_max":874,"o":"m 325 -14 q 190 20 251 -14 q 92 125 129 54 q 56 301 56 196 l 56 685 q 67 711 56 700 q 93 722 78 722 l 358 722 q 385 711 374 722 q 396 685 396 700 l 396 311 q 414 254 396 274 q 465 235 432 235 q 517 254 499 235 q 535 311 535 274 l 535 685 q 546 711 535 700 q 572 722 557 722 l 836 722 q 863 711 851 722 q 874 685 874 700 l 874 38 q 863 11 874 22 q 836 0 851 0 l 593 0 q 567 11 578 0 q 556 38 556 22 l 556 83 q 463 10 522 35 q 325 -14 403 -14 m 386 826 q 355 832 367 826 q 328 850 343 838 l 124 1018 q 117 1035 117 1025 q 124 1055 117 1047 q 143 1063 131 1063 l 401 1063 q 428 1058 418 1063 q 453 1036 438 1053 l 592 867 q 599 849 599 860 q 576 826 599 826 l 386 826 z "},"ű":{"ha":936,"x_min":56,"x_max":900,"o":"m 325 -14 q 190 20 251 -14 q 92 125 129 54 q 56 301 56 196 l 56 685 q 67 711 56 700 q 93 722 78 722 l 358 722 q 385 711 374 722 q 396 685 396 700 l 396 311 q 414 254 396 274 q 465 235 432 235 q 517 254 499 235 q 535 311 535 274 l 535 685 q 546 711 535 700 q 572 722 557 722 l 836 722 q 863 711 851 722 q 874 685 874 700 l 874 38 q 863 11 874 22 q 836 0 851 0 l 593 0 q 567 11 578 0 q 556 38 556 22 l 556 83 q 463 10 522 35 q 325 -14 403 -14 m 201 826 q 179 849 179 826 q 186 869 179 856 l 261 1036 q 280 1056 268 1050 q 313 1063 292 1063 l 517 1063 q 537 1056 529 1063 q 544 1036 544 1049 q 536 1018 544 1026 l 378 846 q 331 826 361 826 l 201 826 m 557 826 q 535 849 535 826 q 542 869 535 856 l 617 1036 q 635 1056 624 1050 q 668 1063 647 1063 l 872 1063 q 892 1056 885 1063 q 900 1036 900 1049 q 892 1018 900 1026 l 733 846 q 686 826 717 826 l 557 826 z "},"ū":{"ha":936,"x_min":56,"x_max":874,"o":"m 325 -14 q 190 20 251 -14 q 92 125 129 54 q 56 301 56 196 l 56 685 q 67 711 56 700 q 93 722 78 722 l 358 722 q 385 711 374 722 q 396 685 396 700 l 396 311 q 414 254 396 274 q 465 235 432 235 q 517 254 499 235 q 535 311 535 274 l 535 685 q 546 711 535 700 q 572 722 557 722 l 836 722 q 863 711 851 722 q 874 685 874 700 l 874 38 q 863 11 874 22 q 836 0 851 0 l 593 0 q 567 11 578 0 q 556 38 556 22 l 556 83 q 463 10 522 35 q 325 -14 403 -14 m 238 826 q 215 835 224 826 q 206 858 206 844 l 206 1003 q 215 1026 206 1017 q 238 1035 224 1035 l 692 1035 q 715 1026 706 1035 q 724 1003 724 1017 l 724 858 q 715 835 724 844 q 692 826 706 826 l 238 826 z "},"ų":{"ha":936,"x_min":56,"x_max":874,"o":"m 817 -306 q 638 -240 697 -306 q 578 -68 578 -174 q 585 0 578 -35 q 564 13 572 3 q 556 38 556 24 l 556 83 q 463 10 522 35 q 325 -14 403 -14 q 190 20 251 -14 q 92 125 129 54 q 56 301 56 196 l 56 685 q 67 711 56 700 q 93 722 78 722 l 358 722 q 385 711 374 722 q 396 685 396 700 l 396 311 q 414 254 396 274 q 465 235 432 235 q 517 254 499 235 q 535 311 535 274 l 535 685 q 546 711 535 700 q 572 722 557 722 l 836 722 q 863 711 851 722 q 874 685 874 700 l 874 38 q 863 11 874 22 q 836 0 851 0 l 814 0 q 767 -22 782 -1 q 753 -68 753 -43 q 769 -115 753 -94 q 822 -136 786 -136 l 836 -136 q 863 -147 851 -136 q 874 -174 874 -158 l 874 -268 q 863 -294 874 -283 q 836 -306 851 -306 l 817 -306 z "},"ů":{"ha":936,"x_min":56,"x_max":874,"o":"m 325 -14 q 190 20 251 -14 q 92 125 129 54 q 56 301 56 196 l 56 685 q 67 711 56 700 q 93 722 78 722 l 358 722 q 385 711 374 722 q 396 685 396 700 l 396 311 q 414 254 396 274 q 465 235 432 235 q 517 254 499 235 q 535 311 535 274 l 535 685 q 546 711 535 700 q 572 722 557 722 l 836 722 q 863 711 851 722 q 874 685 874 700 l 874 38 q 863 11 874 22 q 836 0 851 0 l 593 0 q 567 11 578 0 q 556 38 556 22 l 556 83 q 463 10 522 35 q 325 -14 403 -14 m 464 819 q 365 857 406 819 q 325 951 325 894 q 365 1046 325 1008 q 464 1083 406 1083 q 563 1046 522 1083 q 603 951 603 1008 q 563 857 603 894 q 464 819 522 819 m 464 910 q 494 922 482 910 q 506 951 506 933 q 494 981 506 969 q 464 993 482 993 q 434 981 446 993 q 422 951 422 969 q 434 922 422 933 q 464 910 446 910 z "},"ũ":{"ha":936,"x_min":56,"x_max":874,"o":"m 325 -14 q 190 20 251 -14 q 92 125 129 54 q 56 301 56 196 l 56 685 q 67 711 56 700 q 93 722 78 722 l 358 722 q 385 711 374 722 q 396 685 396 700 l 396 311 q 414 254 396 274 q 465 235 432 235 q 517 254 499 235 q 535 311 535 274 l 535 685 q 546 711 535 700 q 572 722 557 722 l 836 722 q 863 711 851 722 q 874 685 874 700 l 874 38 q 863 11 874 22 q 836 0 851 0 l 593 0 q 567 11 578 0 q 556 38 556 22 l 556 83 q 463 10 522 35 q 325 -14 403 -14 m 558 819 q 506 827 528 819 q 458 849 483 835 q 424 864 439 858 q 394 869 410 869 q 370 863 379 869 q 353 846 361 857 q 325 826 340 826 l 208 826 q 190 834 197 826 q 182 851 182 842 q 199 942 182 892 q 259 1031 217 993 q 371 1069 301 1069 q 424 1062 401 1069 q 471 1040 446 1054 q 505 1025 490 1031 q 535 1019 519 1019 q 558 1026 550 1019 q 575 1043 567 1032 q 588 1056 581 1050 q 604 1063 594 1063 l 721 1063 q 740 1055 733 1063 q 747 1036 747 1047 q 730 945 747 996 q 670 857 713 894 q 558 819 628 819 z "},"v":{"ha":875,"x_min":13,"x_max":863,"o":"m 326 0 q 299 9 308 0 q 281 35 289 18 l 14 679 q 13 689 13 683 q 22 713 13 703 q 46 722 32 722 l 281 722 q 326 689 314 722 l 438 365 l 549 689 q 594 722 561 722 l 829 722 q 853 713 843 722 q 863 689 863 703 q 861 679 863 683 l 594 35 q 576 9 586 18 q 549 0 567 0 l 326 0 z "},"w":{"ha":1207,"x_min":22,"x_max":1185,"o":"m 272 0 q 226 35 238 0 l 24 678 l 22 689 q 32 713 22 703 q 56 722 42 722 l 269 722 q 301 713 289 722 q 317 689 313 703 l 401 400 l 492 689 q 508 713 496 703 q 539 722 519 722 l 668 722 q 699 713 688 722 q 715 689 711 703 l 806 400 l 890 689 q 906 713 894 703 q 938 722 918 722 l 1151 722 q 1175 713 1165 722 q 1185 689 1185 703 l 1183 678 l 981 35 q 935 0 969 0 l 749 0 q 703 35 714 0 l 604 315 l 504 35 q 458 0 493 0 l 272 0 z "},"ẃ":{"ha":1207,"x_min":22,"x_max":1185,"o":"m 272 0 q 226 35 238 0 l 24 678 l 22 689 q 32 713 22 703 q 56 722 42 722 l 269 722 q 301 713 289 722 q 317 689 313 703 l 401 400 l 492 689 q 508 713 496 703 q 539 722 519 722 l 668 722 q 699 713 688 722 q 715 689 711 703 l 806 400 l 890 689 q 906 713 894 703 q 938 722 918 722 l 1151 722 q 1175 713 1165 722 q 1185 689 1185 703 l 1183 678 l 981 35 q 935 0 969 0 l 749 0 q 703 35 714 0 l 604 315 l 504 35 q 458 0 493 0 l 272 0 m 499 826 q 476 849 476 826 q 483 867 476 860 l 622 1036 q 647 1058 638 1053 q 674 1063 657 1063 l 932 1063 q 951 1055 944 1063 q 958 1035 958 1047 q 951 1018 958 1025 l 747 850 q 720 832 732 838 q 689 826 708 826 l 499 826 z "},"ŵ":{"ha":1207,"x_min":22,"x_max":1185,"o":"m 272 0 q 226 35 238 0 l 24 678 l 22 689 q 32 713 22 703 q 56 722 42 722 l 269 722 q 301 713 289 722 q 317 689 313 703 l 401 400 l 492 689 q 508 713 496 703 q 539 722 519 722 l 668 722 q 699 713 688 722 q 715 689 711 703 l 806 400 l 890 689 q 906 713 894 703 q 938 722 918 722 l 1151 722 q 1175 713 1165 722 q 1185 689 1185 703 l 1183 678 l 981 35 q 935 0 969 0 l 749 0 q 703 35 714 0 l 604 315 l 504 35 q 458 0 493 0 l 272 0 m 329 826 q 307 849 307 826 q 314 867 307 860 l 469 1036 q 494 1057 483 1051 q 521 1063 506 1063 l 688 1063 q 714 1057 703 1063 q 739 1036 725 1051 l 894 867 q 901 849 901 860 q 879 826 901 826 l 788 826 q 732 836 751 826 l 604 894 l 476 836 q 421 826 457 826 l 329 826 z "},"ẅ":{"ha":1207,"x_min":22,"x_max":1185,"o":"m 272 0 q 226 35 238 0 l 24 678 l 22 689 q 32 713 22 703 q 56 722 42 722 l 269 722 q 301 713 289 722 q 317 689 313 703 l 401 400 l 492 689 q 508 713 496 703 q 539 722 519 722 l 668 722 q 699 713 688 722 q 715 689 711 703 l 806 400 l 890 689 q 906 713 894 703 q 938 722 918 722 l 1151 722 q 1175 713 1165 722 q 1185 689 1185 703 l 1183 678 l 981 35 q 935 0 969 0 l 749 0 q 703 35 714 0 l 604 315 l 504 35 q 458 0 493 0 l 272 0 m 353 826 q 330 835 339 826 q 321 858 321 844 l 321 1031 q 330 1053 321 1044 q 353 1063 339 1063 l 525 1063 q 548 1053 539 1063 q 557 1031 557 1044 l 557 858 q 548 835 557 844 q 525 826 539 826 l 353 826 m 685 826 q 662 835 671 826 q 653 858 653 844 l 653 1031 q 662 1053 653 1044 q 685 1063 671 1063 l 857 1063 q 880 1053 871 1063 q 889 1031 889 1044 l 889 858 q 880 835 889 844 q 857 826 871 826 l 685 826 z "},"ẁ":{"ha":1207,"x_min":22,"x_max":1185,"o":"m 272 0 q 226 35 238 0 l 24 678 l 22 689 q 32 713 22 703 q 56 722 42 722 l 269 722 q 301 713 289 722 q 317 689 313 703 l 401 400 l 492 689 q 508 713 496 703 q 539 722 519 722 l 668 722 q 699 713 688 722 q 715 689 711 703 l 806 400 l 890 689 q 906 713 894 703 q 938 722 918 722 l 1151 722 q 1175 713 1165 722 q 1185 689 1185 703 l 1183 678 l 981 35 q 935 0 969 0 l 749 0 q 703 35 714 0 l 604 315 l 504 35 q 458 0 493 0 l 272 0 m 529 826 q 498 832 510 826 q 471 850 486 838 l 267 1018 q 260 1035 260 1025 q 267 1055 260 1047 q 286 1063 274 1063 l 544 1063 q 571 1058 561 1063 q 596 1036 581 1053 l 735 867 q 742 849 742 860 q 719 826 742 826 l 529 826 z "},"x":{"ha":875,"x_min":6,"x_max":869,"o":"m 39 0 q 15 10 25 0 q 6 33 6 19 q 11 51 6 44 l 236 372 l 36 671 q 31 689 31 679 q 40 713 31 703 q 64 722 50 722 l 318 722 q 346 715 336 722 q 363 696 356 707 l 443 572 l 524 696 q 540 715 531 707 q 568 722 550 722 l 811 722 q 835 713 825 722 q 844 690 844 703 q 839 671 844 679 l 635 374 l 864 51 q 869 33 869 44 q 860 10 869 19 q 836 0 850 0 l 569 0 q 544 6 553 0 q 528 24 536 13 l 436 158 l 340 24 q 299 0 325 0 l 39 0 z "},"y":{"ha":883,"x_min":18,"x_max":875,"o":"m 206 -264 q 184 -256 193 -264 q 175 -235 175 -247 q 174 -229 175 -233 q 176 -221 174 -225 l 288 46 l 19 679 q 18 689 18 683 q 31 713 21 703 q 53 722 40 722 l 288 722 q 332 689 319 722 l 446 372 l 564 689 q 611 722 578 722 l 843 722 q 865 713 856 722 q 875 693 875 704 q 874 679 875 685 l 482 -231 q 433 -264 468 -264 l 206 -264 z "},"ý":{"ha":883,"x_min":18,"x_max":875,"o":"m 206 -264 q 184 -256 193 -264 q 175 -235 175 -247 q 174 -229 175 -233 q 176 -221 174 -225 l 288 46 l 19 679 q 18 689 18 683 q 31 713 21 703 q 53 722 40 722 l 288 722 q 332 689 319 722 l 446 372 l 564 689 q 611 722 578 722 l 843 722 q 865 713 856 722 q 875 693 875 704 q 874 679 875 685 l 482 -231 q 433 -264 468 -264 l 206 -264 m 339 826 q 317 849 317 826 q 324 867 317 860 l 463 1036 q 488 1058 478 1053 q 514 1063 497 1063 l 772 1063 q 792 1055 785 1063 q 799 1035 799 1047 q 792 1018 799 1025 l 588 850 q 560 832 572 838 q 529 826 549 826 l 339 826 z "},"ŷ":{"ha":883,"x_min":18,"x_max":875,"o":"m 206 -264 q 184 -256 193 -264 q 175 -235 175 -247 q 174 -229 175 -233 q 176 -221 174 -225 l 288 46 l 19 679 q 18 689 18 683 q 31 713 21 703 q 53 722 40 722 l 288 722 q 332 689 319 722 l 446 372 l 564 689 q 611 722 578 722 l 843 722 q 865 713 856 722 q 875 693 875 704 q 874 679 875 685 l 482 -231 q 433 -264 468 -264 l 206 -264 m 171 826 q 149 849 149 826 q 156 867 149 860 l 311 1036 q 336 1057 325 1051 q 363 1063 347 1063 l 529 1063 q 556 1057 544 1063 q 581 1036 567 1051 l 736 867 q 743 849 743 860 q 721 826 743 826 l 629 826 q 574 836 593 826 l 446 894 l 318 836 q 263 826 299 826 l 171 826 z "},"ÿ":{"ha":883,"x_min":18,"x_max":875,"o":"m 206 -264 q 184 -256 193 -264 q 175 -235 175 -247 q 174 -229 175 -233 q 176 -221 174 -225 l 288 46 l 19 679 q 18 689 18 683 q 31 713 21 703 q 53 722 40 722 l 288 722 q 332 689 319 722 l 446 372 l 564 689 q 611 722 578 722 l 843 722 q 865 713 856 722 q 875 693 875 704 q 874 679 875 685 l 482 -231 q 433 -264 468 -264 l 206 -264 m 196 826 q 173 835 182 826 q 164 858 164 844 l 164 1031 q 173 1053 164 1044 q 196 1063 182 1063 l 368 1063 q 391 1053 382 1063 q 400 1031 400 1044 l 400 858 q 391 835 400 844 q 368 826 382 826 l 196 826 m 528 826 q 505 835 514 826 q 496 858 496 844 l 496 1031 q 505 1053 496 1044 q 528 1063 514 1063 l 700 1063 q 723 1053 714 1063 q 732 1031 732 1044 l 732 858 q 723 835 732 844 q 700 826 714 826 l 528 826 z "},"ỳ":{"ha":883,"x_min":18,"x_max":875,"o":"m 206 -264 q 184 -256 193 -264 q 175 -235 175 -247 q 174 -229 175 -233 q 176 -221 174 -225 l 288 46 l 19 679 q 18 689 18 683 q 31 713 21 703 q 53 722 40 722 l 288 722 q 332 689 319 722 l 446 372 l 564 689 q 611 722 578 722 l 843 722 q 865 713 856 722 q 875 693 875 704 q 874 679 875 685 l 482 -231 q 433 -264 468 -264 l 206 -264 m 372 826 q 341 832 353 826 q 314 850 329 838 l 110 1018 q 103 1035 103 1025 q 110 1055 103 1047 q 129 1063 117 1063 l 388 1063 q 414 1058 404 1063 q 439 1036 424 1053 l 578 867 q 585 849 585 860 q 563 826 585 826 l 372 826 z "},"z":{"ha":819,"x_min":50,"x_max":778,"o":"m 88 0 q 61 11 72 0 q 50 38 50 22 l 50 197 q 72 246 50 226 l 349 483 l 97 483 q 71 494 82 483 q 60 521 60 506 l 60 685 q 71 711 60 700 q 97 722 82 722 l 711 722 q 738 711 726 722 q 749 685 749 700 l 749 510 q 729 469 749 486 l 465 239 l 740 239 q 767 228 756 239 q 778 201 778 217 l 778 38 q 767 11 778 22 q 740 0 756 0 l 88 0 z "},"ź":{"ha":819,"x_min":50,"x_max":778,"o":"m 88 0 q 61 11 72 0 q 50 38 50 22 l 50 197 q 72 246 50 226 l 349 483 l 97 483 q 71 494 82 483 q 60 521 60 506 l 60 685 q 71 711 60 700 q 97 722 82 722 l 711 722 q 738 711 726 722 q 749 685 749 700 l 749 510 q 729 469 749 486 l 465 239 l 740 239 q 767 228 756 239 q 778 201 778 217 l 778 38 q 767 11 778 22 q 740 0 756 0 l 88 0 m 304 826 q 282 849 282 826 q 289 867 282 860 l 428 1036 q 453 1058 443 1053 q 479 1063 463 1063 l 738 1063 q 757 1055 750 1063 q 764 1035 764 1047 q 757 1018 764 1025 l 553 850 q 526 832 538 838 q 494 826 514 826 l 304 826 z "},"ž":{"ha":819,"x_min":50,"x_max":778,"o":"m 88 0 q 61 11 72 0 q 50 38 50 22 l 50 197 q 72 246 50 226 l 349 483 l 97 483 q 71 494 82 483 q 60 521 60 506 l 60 685 q 71 711 60 700 q 97 722 82 722 l 711 722 q 738 711 726 722 q 749 685 749 700 l 749 510 q 729 469 749 486 l 465 239 l 740 239 q 767 228 756 239 q 778 201 778 217 l 778 38 q 767 11 778 22 q 740 0 756 0 l 88 0 m 331 826 q 304 832 315 826 q 279 853 293 838 l 124 1022 q 117 1040 117 1029 q 139 1063 117 1063 l 231 1063 q 286 1053 267 1063 l 414 994 l 542 1053 q 597 1063 561 1063 l 689 1063 q 711 1040 711 1063 q 704 1022 711 1029 l 549 853 q 524 832 535 838 q 497 826 513 826 l 331 826 z "},"ż":{"ha":819,"x_min":50,"x_max":778,"o":"m 88 0 q 61 11 72 0 q 50 38 50 22 l 50 197 q 72 246 50 226 l 349 483 l 97 483 q 71 494 82 483 q 60 521 60 506 l 60 685 q 71 711 60 700 q 97 722 82 722 l 711 722 q 738 711 726 722 q 749 685 749 700 l 749 510 q 729 469 749 486 l 465 239 l 740 239 q 767 228 756 239 q 778 201 778 217 l 778 38 q 767 11 778 22 q 740 0 756 0 l 88 0 m 324 826 q 301 835 310 826 q 292 858 292 844 l 292 1040 q 301 1063 292 1054 q 324 1072 310 1072 l 506 1072 q 528 1063 519 1072 q 538 1040 538 1054 l 538 858 q 528 835 538 844 q 506 826 519 826 l 324 826 z "},"ﬁ":{"ha":1090,"x_min":21,"x_max":1028,"o":"m 192 0 q 165 11 176 0 q 154 38 154 22 l 154 479 l 58 479 q 32 490 43 479 q 21 517 21 501 l 21 685 q 32 711 21 700 q 58 722 43 722 l 154 722 l 154 746 q 250 966 154 904 q 515 1028 346 1028 l 990 1028 q 1017 1017 1006 1028 q 1028 990 1028 1006 l 1028 822 q 1017 796 1028 807 q 990 785 1006 785 l 532 785 q 472 739 472 785 l 472 722 l 990 722 q 1017 711 1006 722 q 1028 685 1028 700 l 1028 38 q 1017 11 1028 22 q 990 0 1006 0 l 747 0 q 721 11 732 0 q 710 38 710 22 l 710 479 l 472 479 l 472 38 q 461 11 472 22 q 435 0 450 0 l 192 0 z "},"ﬂ":{"ha":1107,"x_min":21,"x_max":1044,"o":"m 192 0 q 165 11 176 0 q 154 38 154 22 l 154 479 l 58 479 q 32 490 43 479 q 21 517 21 501 l 21 685 q 32 711 21 700 q 58 722 43 722 l 154 722 l 154 746 q 250 966 154 904 q 515 1028 346 1028 l 617 1028 q 643 1017 632 1028 q 654 990 654 1006 l 654 822 q 643 796 654 807 q 617 785 632 785 l 532 785 q 472 739 472 785 l 472 722 l 726 722 l 726 990 q 738 1017 726 1006 q 764 1028 749 1028 l 1007 1028 q 1033 1017 1022 1028 q 1044 990 1044 1006 l 1044 38 q 1033 11 1044 22 q 1007 0 1022 0 l 764 0 q 738 11 749 0 q 726 38 726 22 l 726 479 l 472 479 l 472 38 q 461 11 472 22 q 435 0 450 0 l 192 0 z "},"ª":{"ha":488,"x_min":31,"x_max":433,"o":"m 169 596 q 69 628 108 596 q 31 708 31 660 q 188 831 31 803 l 263 843 q 259 872 263 865 q 240 879 256 879 q 217 868 229 879 q 192 857 204 857 l 71 857 q 60 862 64 857 q 57 874 56 867 q 78 919 58 894 q 140 962 99 944 q 243 979 182 979 q 387 942 340 979 q 433 825 433 904 l 433 622 q 428 609 433 615 q 414 603 422 603 l 290 603 q 276 609 282 603 q 269 622 269 615 l 269 642 q 228 608 256 619 q 169 596 201 596 m 218 701 q 263 756 263 701 l 224 746 q 190 719 190 736 q 198 706 190 711 q 218 701 206 701 z "},"º":{"ha":486,"x_min":35,"x_max":451,"o":"m 243 596 q 36 750 44 596 l 35 788 l 36 825 q 94 939 40 899 q 243 979 147 979 q 392 939 339 979 q 450 825 446 899 q 451 788 451 818 q 450 750 451 757 q 243 596 442 596 m 243 710 q 267 719 261 710 q 275 757 272 728 q 276 788 276 764 q 275 818 276 811 q 267 855 274 844 q 243 865 261 865 q 219 855 225 865 q 211 818 213 844 l 210 788 q 215 724 210 738 q 243 710 221 710 z "},"А":{"ha":1049,"x_min":0,"x_max":1049,"o":"m 31 0 q 9 9 18 0 q 0 31 0 18 q 1 40 0 36 l 311 926 q 332 958 317 944 q 374 972 347 972 l 675 972 q 717 958 701 972 q 738 926 732 944 l 1047 40 q 1049 31 1049 36 q 1040 9 1049 18 q 1018 0 1031 0 l 761 0 q 707 35 719 0 l 674 126 l 375 126 l 342 35 q 288 0 329 0 l 31 0 m 446 397 l 603 397 l 524 656 l 446 397 z "},"Б":{"ha":933,"x_min":76,"x_max":946,"o":"m 114 0 q 88 11 99 0 q 76 38 76 22 l 76 935 q 88 961 76 950 q 114 972 99 972 l 833 972 q 860 961 849 972 q 871 935 871 950 l 871 725 q 860 699 871 710 q 833 688 849 688 l 424 688 l 424 621 l 549 621 q 839 540 732 621 q 946 314 946 458 q 841 83 946 167 q 549 0 736 0 l 114 0 m 521 239 q 568 261 551 239 q 585 314 585 283 q 567 366 585 343 q 521 389 549 389 l 424 389 l 424 239 l 521 239 z "},"В":{"ha":1019,"x_min":76,"x_max":981,"o":"m 114 0 q 88 11 99 0 q 76 38 76 22 l 76 935 q 88 961 76 950 q 114 972 99 972 l 575 972 q 866 900 772 972 q 960 681 960 828 q 925 574 960 621 q 849 507 890 528 q 942 428 904 485 q 981 306 981 372 q 881 76 981 151 q 589 0 781 0 l 114 0 m 540 607 q 583 626 568 607 q 597 669 597 644 q 583 714 597 694 q 540 733 568 733 l 424 733 l 424 607 l 540 607 m 553 239 q 601 260 585 239 q 617 307 617 281 q 599 354 617 333 q 553 375 582 375 l 424 375 l 424 239 l 553 239 z "},"Г":{"ha":832,"x_min":76,"x_max":804,"o":"m 114 0 q 88 11 99 0 q 76 38 76 22 l 76 935 q 88 961 76 950 q 114 972 99 972 l 767 972 q 793 961 782 972 q 804 935 804 950 l 804 725 q 793 699 804 710 q 767 688 782 688 l 424 688 l 424 38 q 413 11 424 22 q 386 0 401 0 l 114 0 z "},"Ѓ":{"ha":832,"x_min":76,"x_max":833,"o":"m 114 0 q 88 11 99 0 q 76 38 76 22 l 76 935 q 88 961 76 950 q 114 972 99 972 l 767 972 q 793 961 782 972 q 804 935 804 950 l 804 725 q 793 699 804 710 q 767 688 782 688 l 424 688 l 424 38 q 413 11 424 22 q 386 0 401 0 l 114 0 m 360 1042 q 338 1064 338 1042 q 344 1082 338 1075 l 483 1251 q 508 1273 499 1268 q 535 1278 518 1278 l 807 1278 q 826 1270 819 1278 q 833 1250 833 1263 q 826 1233 833 1240 l 622 1065 q 595 1047 607 1053 q 564 1042 583 1042 l 360 1042 z "},"Ґ":{"ha":832,"x_min":76,"x_max":804,"o":"m 767 1167 q 793 1156 782 1167 q 804 1129 804 1144 l 804 725 q 793 699 804 710 q 767 688 782 688 l 424 688 l 424 38 q 413 11 424 22 q 386 0 401 0 l 114 0 q 88 11 99 0 q 76 38 76 22 l 76 935 q 88 961 76 950 q 114 972 99 972 l 457 972 l 457 1129 q 468 1156 457 1144 q 494 1167 479 1167 l 767 1167 z "},"Д":{"ha":1174,"x_min":49,"x_max":1132,"o":"m 86 -194 q 60 -184 71 -194 q 49 -157 49 -174 l 49 268 q 60 294 49 283 q 86 306 71 306 l 107 306 q 189 408 168 306 q 210 668 210 510 l 210 935 q 221 961 210 950 q 247 972 232 972 l 994 972 q 1021 961 1010 972 q 1032 935 1032 950 l 1032 306 l 1094 306 q 1121 294 1110 306 q 1132 268 1132 283 l 1132 -157 q 1121 -183 1132 -172 q 1094 -194 1110 -194 l 822 -194 q 796 -183 807 -194 q 785 -157 785 -172 l 785 0 l 396 0 l 396 -157 q 385 -183 396 -172 q 358 -194 374 -194 l 86 -194 m 685 306 l 685 667 l 543 667 l 543 624 q 503 306 543 419 l 685 306 z "},"Е":{"ha":926,"x_min":76,"x_max":875,"o":"m 114 0 q 88 11 99 0 q 76 38 76 22 l 76 935 q 88 961 76 950 q 114 972 99 972 l 826 972 q 853 961 842 972 q 864 935 864 950 l 864 739 q 853 713 864 724 q 826 701 842 701 l 410 701 l 410 614 l 796 614 q 822 603 811 614 q 833 576 833 592 l 833 396 q 822 369 833 381 q 796 358 811 358 l 410 358 l 410 271 l 838 271 q 864 260 853 271 q 875 233 875 249 l 875 38 q 864 11 875 22 q 838 0 853 0 l 114 0 z "},"Ѐ":{"ha":926,"x_min":76,"x_max":875,"o":"m 114 0 q 88 11 99 0 q 76 38 76 22 l 76 935 q 88 961 76 950 q 114 972 99 972 l 826 972 q 853 961 842 972 q 864 935 864 950 l 864 739 q 853 713 864 724 q 826 701 842 701 l 410 701 l 410 614 l 796 614 q 822 603 811 614 q 833 576 833 592 l 833 396 q 822 369 833 381 q 796 358 811 358 l 410 358 l 410 271 l 838 271 q 864 260 853 271 q 875 233 875 249 l 875 38 q 864 11 875 22 q 838 0 853 0 l 114 0 m 414 1042 q 383 1047 394 1042 q 356 1065 371 1053 l 151 1233 q 144 1250 144 1240 q 151 1270 144 1263 q 171 1278 158 1278 l 443 1278 q 469 1273 460 1278 q 494 1251 479 1268 l 633 1082 q 640 1064 640 1075 q 618 1042 640 1042 l 414 1042 z "},"Ё":{"ha":926,"x_min":76,"x_max":875,"o":"m 114 0 q 88 11 99 0 q 76 38 76 22 l 76 935 q 88 961 76 950 q 114 972 99 972 l 826 972 q 853 961 842 972 q 864 935 864 950 l 864 739 q 853 713 864 724 q 826 701 842 701 l 410 701 l 410 614 l 796 614 q 822 603 811 614 q 833 576 833 592 l 833 396 q 822 369 833 381 q 796 358 811 358 l 410 358 l 410 271 l 838 271 q 864 260 853 271 q 875 233 875 249 l 875 38 q 864 11 875 22 q 838 0 853 0 l 114 0 m 239 1076 q 216 1085 225 1076 q 207 1108 207 1094 l 207 1281 q 216 1303 207 1294 q 239 1313 225 1313 l 411 1313 q 434 1303 425 1313 q 443 1281 443 1294 l 443 1108 q 434 1085 443 1094 q 411 1076 425 1076 l 239 1076 m 571 1076 q 548 1085 557 1076 q 539 1108 539 1094 l 539 1281 q 548 1303 539 1294 q 571 1313 557 1313 l 743 1313 q 766 1303 757 1313 q 775 1281 775 1294 l 775 1108 q 766 1085 775 1094 q 743 1076 757 1076 l 571 1076 z "},"Ж":{"ha":1578,"x_min":14,"x_max":1564,"o":"m 1560 46 q 1564 31 1564 40 q 1555 9 1564 18 q 1533 0 1546 0 l 1217 0 q 1181 10 1193 0 q 1160 32 1168 19 l 989 338 l 956 338 l 956 38 q 944 10 956 21 q 918 0 933 0 l 660 0 q 633 10 644 0 q 622 38 622 21 l 622 338 l 589 338 l 418 32 q 397 10 410 19 q 361 0 385 0 l 44 0 q 23 9 32 0 q 14 31 14 18 q 18 46 14 40 l 292 507 l 42 926 q 38 942 38 933 q 47 963 38 954 q 68 972 56 972 l 375 972 q 431 942 414 972 l 600 643 l 622 643 l 622 935 q 633 961 622 950 q 660 972 644 972 l 918 972 q 944 961 933 972 q 956 935 956 950 l 956 643 l 978 643 l 1147 942 q 1203 972 1164 972 l 1510 972 q 1531 963 1522 972 q 1540 942 1540 954 q 1536 926 1540 933 l 1286 507 l 1560 46 z "},"З":{"ha":993,"x_min":47,"x_max":954,"o":"m 500 -14 q 246 30 344 -14 q 102 138 147 74 q 49 274 57 203 q 57 295 47 286 q 79 304 67 304 l 351 304 q 378 299 368 304 q 399 282 388 293 q 434 261 413 268 q 492 254 456 254 q 569 267 546 254 q 593 307 593 281 q 569 349 593 336 q 496 361 546 361 l 392 361 q 365 374 376 361 q 354 401 354 386 l 354 568 q 365 596 354 583 q 392 608 376 608 l 496 608 q 572 658 572 608 q 492 715 572 715 q 434 706 456 715 q 406 688 413 697 q 388 670 396 675 q 361 665 379 665 l 86 665 q 64 674 74 665 q 56 696 54 683 q 107 832 64 767 q 247 942 150 897 q 500 986 344 986 q 721 948 624 986 q 873 843 818 910 q 928 696 928 776 q 904 594 928 643 q 819 511 881 544 q 924 415 893 475 q 954 290 954 354 q 899 130 954 199 q 742 24 844 61 q 500 -14 639 -14 z "},"И":{"ha":1125,"x_min":76,"x_max":1049,"o":"m 114 0 q 88 11 99 0 q 76 38 76 22 l 76 935 q 88 961 76 950 q 114 972 99 972 l 386 972 q 413 961 401 972 q 424 935 424 950 l 424 514 l 714 940 q 771 972 733 972 l 1011 972 q 1038 961 1026 972 q 1049 935 1049 950 l 1049 38 q 1038 11 1049 22 q 1011 0 1026 0 l 739 0 q 713 11 724 0 q 701 38 701 22 l 701 428 l 411 32 q 389 8 401 17 q 354 0 376 0 l 114 0 z "},"Й":{"ha":1125,"x_min":76,"x_max":1049,"o":"m 114 0 q 88 11 99 0 q 76 38 76 22 l 76 935 q 88 961 76 950 q 114 972 99 972 l 386 972 q 413 961 401 972 q 424 935 424 950 l 424 514 l 714 940 q 771 972 733 972 l 1011 972 q 1038 961 1026 972 q 1049 935 1049 950 l 1049 38 q 1038 11 1049 22 q 1011 0 1026 0 l 739 0 q 713 11 724 0 q 701 38 701 22 l 701 428 l 411 32 q 389 8 401 17 q 354 0 376 0 l 114 0 m 576 1029 q 372 1090 442 1029 q 303 1251 303 1151 q 310 1270 303 1263 q 329 1278 317 1278 l 494 1278 q 514 1270 507 1278 q 521 1251 521 1263 q 576 1189 521 1189 q 632 1251 632 1189 q 639 1270 632 1263 q 658 1278 646 1278 l 824 1278 q 843 1270 836 1278 q 850 1251 850 1263 q 781 1090 850 1151 q 576 1029 711 1029 z "},"Ѝ":{"ha":1125,"x_min":76,"x_max":1049,"o":"m 114 0 q 88 11 99 0 q 76 38 76 22 l 76 935 q 88 961 76 950 q 114 972 99 972 l 386 972 q 413 961 401 972 q 424 935 424 950 l 424 514 l 714 940 q 771 972 733 972 l 1011 972 q 1038 961 1026 972 q 1049 935 1049 950 l 1049 38 q 1038 11 1049 22 q 1011 0 1026 0 l 739 0 q 713 11 724 0 q 701 38 701 22 l 701 428 l 411 32 q 389 8 401 17 q 354 0 376 0 l 114 0 m 499 1042 q 467 1047 479 1042 q 440 1065 456 1053 l 236 1233 q 229 1250 229 1240 q 236 1270 229 1263 q 256 1278 243 1278 l 528 1278 q 554 1273 544 1278 q 579 1251 564 1268 l 718 1082 q 725 1064 725 1075 q 703 1042 725 1042 l 499 1042 z "},"К":{"ha":1046,"x_min":76,"x_max":1032,"o":"m 1028 46 q 1032 31 1032 40 q 1023 9 1032 18 q 1001 0 1014 0 l 685 0 q 649 10 661 0 q 628 32 636 19 l 457 338 l 424 338 l 424 38 q 413 11 424 22 q 386 0 401 0 l 114 0 q 88 10 99 0 q 76 38 76 21 l 76 935 q 88 961 76 950 q 114 972 99 972 l 386 972 q 413 961 401 972 q 424 935 424 950 l 424 643 l 446 643 l 615 942 q 671 972 632 972 l 978 972 q 999 963 990 972 q 1008 942 1008 954 q 1004 926 1008 933 l 754 507 l 1028 46 z "},"Ќ":{"ha":1046,"x_min":76,"x_max":1032,"o":"m 1028 46 q 1032 31 1032 40 q 1023 9 1032 18 q 1001 0 1014 0 l 685 0 q 649 10 661 0 q 628 32 636 19 l 457 338 l 424 338 l 424 38 q 413 11 424 22 q 386 0 401 0 l 114 0 q 88 10 99 0 q 76 38 76 21 l 76 935 q 88 961 76 950 q 114 972 99 972 l 386 972 q 413 961 401 972 q 424 935 424 950 l 424 643 l 446 643 l 615 942 q 671 972 632 972 l 978 972 q 999 963 990 972 q 1008 942 1008 954 q 1004 926 1008 933 l 754 507 l 1028 46 m 374 1042 q 351 1064 351 1042 q 358 1082 351 1075 l 497 1251 q 522 1273 513 1268 q 549 1278 532 1278 l 821 1278 q 840 1270 833 1278 q 847 1250 847 1263 q 840 1233 847 1240 l 636 1065 q 609 1047 621 1053 q 578 1042 597 1042 l 374 1042 z "},"Л":{"ha":1129,"x_min":49,"x_max":1053,"o":"m 743 0 q 717 11 728 0 q 706 38 706 22 l 706 667 l 522 667 l 522 624 q 492 251 522 379 q 370 61 463 122 q 88 0 278 0 q 60 11 72 0 q 49 38 49 22 l 49 257 q 86 294 49 288 q 169 406 150 307 q 189 668 189 504 l 189 935 q 200 961 189 950 q 226 972 211 972 l 1015 972 q 1042 961 1031 972 q 1053 935 1053 950 l 1053 38 q 1042 11 1053 22 q 1015 0 1031 0 l 743 0 z "},"М":{"ha":1189,"x_min":76,"x_max":1113,"o":"m 114 0 q 88 11 99 0 q 76 38 76 22 l 76 935 q 88 961 76 950 q 114 972 99 972 l 333 972 q 393 935 372 972 l 594 601 l 796 935 q 856 972 817 972 l 1075 972 q 1101 961 1090 972 q 1113 935 1113 950 l 1113 38 q 1101 11 1113 22 q 1075 0 1090 0 l 824 0 q 797 11 808 0 q 786 38 786 22 l 786 418 l 694 268 q 673 243 685 253 q 643 233 661 233 l 546 233 q 516 243 528 233 q 494 268 504 253 l 403 418 l 403 38 q 392 11 403 22 q 365 0 381 0 l 114 0 z "},"Н":{"ha":1072,"x_min":76,"x_max":996,"o":"m 114 0 q 88 10 99 0 q 76 38 76 21 l 76 935 q 88 961 76 950 q 114 972 99 972 l 386 972 q 413 961 401 972 q 424 935 424 950 l 424 643 l 649 643 l 649 935 q 660 961 649 950 q 686 972 671 972 l 958 972 q 985 961 974 972 q 996 935 996 950 l 996 38 q 985 11 996 22 q 958 0 974 0 l 686 0 q 660 11 671 0 q 649 38 649 22 l 649 338 l 424 338 l 424 38 q 413 11 424 22 q 386 0 401 0 l 114 0 z "},"О":{"ha":1031,"x_min":50,"x_max":982,"o":"m 515 -14 q 183 82 307 -14 q 51 361 60 178 q 50 482 50 399 q 51 606 50 567 q 115 811 56 725 q 276 942 174 897 q 515 986 379 986 q 754 942 651 986 q 916 811 857 897 q 979 606 975 725 q 982 482 982 528 q 979 361 982 436 q 847 82 971 178 q 515 -14 724 -14 m 515 257 q 590 285 563 257 q 618 369 617 313 q 621 488 621 450 q 618 603 621 528 q 589 688 617 660 q 515 715 561 715 q 442 688 469 715 q 413 603 414 660 q 411 488 411 565 q 413 369 411 410 q 441 285 414 313 q 515 257 468 257 z "},"П":{"ha":1072,"x_min":76,"x_max":996,"o":"m 114 0 q 88 10 99 0 q 76 38 76 21 l 76 935 q 88 961 76 950 q 114 972 99 972 l 958 972 q 985 961 974 972 q 996 935 996 950 l 996 38 q 985 11 996 22 q 958 0 974 0 l 686 0 q 660 11 671 0 q 649 38 649 22 l 649 667 l 424 667 l 424 38 q 413 11 424 22 q 386 0 401 0 l 114 0 z "},"Р":{"ha":979,"x_min":76,"x_max":953,"o":"m 114 0 q 88 11 99 0 q 76 38 76 22 l 76 935 q 88 961 76 950 q 114 972 99 972 l 535 972 q 841 886 729 972 q 953 632 953 800 q 842 384 953 465 q 535 303 731 303 l 438 303 l 438 38 q 426 11 438 22 q 400 0 415 0 l 114 0 m 528 560 q 572 578 553 560 q 592 635 592 597 q 576 690 592 667 q 528 714 561 714 l 431 714 l 431 560 l 528 560 z "},"С":{"ha":1018,"x_min":50,"x_max":985,"o":"m 517 -14 q 183 78 307 -14 q 51 363 60 171 q 50 485 50 400 q 51 610 50 571 q 186 891 60 796 q 517 986 313 986 q 747 949 642 986 q 917 831 851 911 q 985 631 983 751 q 976 609 985 618 q 954 600 967 600 l 671 600 q 638 608 649 600 q 619 640 628 617 q 579 699 604 682 q 515 715 554 715 q 440 690 467 715 q 413 603 414 664 q 411 488 411 565 q 413 369 411 410 q 440 283 414 308 q 515 257 467 257 q 619 332 594 257 q 637 364 626 356 q 671 372 647 372 l 954 372 q 976 363 967 372 q 985 342 985 354 q 917 141 983 221 q 747 24 851 61 q 517 -14 642 -14 z "},"Т":{"ha":936,"x_min":24,"x_max":913,"o":"m 329 0 q 303 11 314 0 q 292 38 292 22 l 292 674 l 61 674 q 35 685 46 674 q 24 711 24 696 l 24 935 q 35 961 24 950 q 61 972 46 972 l 875 972 q 901 961 890 972 q 913 935 913 950 l 913 711 q 901 685 913 696 q 875 674 890 674 l 644 674 l 644 38 q 633 11 644 22 q 607 0 622 0 l 329 0 z "},"У":{"ha":974,"x_min":7,"x_max":976,"o":"m 944 972 q 967 963 958 972 q 976 943 976 954 q 968 911 976 931 l 699 283 q 601 108 649 167 q 482 24 553 49 q 292 0 411 0 l 201 0 q 175 11 186 0 q 164 38 164 22 l 164 260 q 175 286 164 275 q 201 297 186 297 l 258 297 q 332 315 306 297 l 10 929 q 7 939 7 935 q 18 962 7 951 q 43 972 29 972 l 333 972 q 360 964 350 972 q 378 939 369 956 l 504 665 l 624 939 q 671 972 636 972 l 944 972 z "},"Ў":{"ha":974,"x_min":7,"x_max":976,"o":"m 944 972 q 967 963 958 972 q 976 943 976 954 q 968 911 976 931 l 699 283 q 601 108 649 167 q 482 24 553 49 q 292 0 411 0 l 201 0 q 175 11 186 0 q 164 38 164 22 l 164 260 q 175 286 164 275 q 201 297 186 297 l 258 297 q 332 315 306 297 l 10 929 q 7 939 7 935 q 18 962 7 951 q 43 972 29 972 l 333 972 q 360 964 350 972 q 378 939 369 956 l 504 665 l 624 939 q 671 972 636 972 l 944 972 m 513 1029 q 308 1090 378 1029 q 239 1251 239 1151 q 246 1270 239 1263 q 265 1278 253 1278 l 431 1278 q 450 1270 443 1278 q 457 1251 457 1263 q 513 1189 457 1189 q 568 1251 568 1189 q 575 1270 568 1263 q 594 1278 582 1278 l 760 1278 q 779 1270 772 1278 q 786 1251 786 1263 q 717 1090 786 1151 q 513 1029 647 1029 z "},"Ф":{"ha":1374,"x_min":49,"x_max":1325,"o":"m 550 -44 q 524 -33 535 -44 q 513 -7 513 -22 l 513 76 q 182 172 303 76 q 50 451 61 268 l 49 506 l 50 560 q 183 840 60 739 q 513 940 306 940 l 513 1006 q 524 1032 513 1021 q 550 1043 535 1043 l 822 1043 q 849 1032 838 1043 q 860 1006 860 1021 l 860 940 q 1190 840 1067 940 q 1322 560 1313 739 q 1325 506 1325 513 q 1322 451 1325 499 q 1190 172 1311 268 q 860 76 1069 76 l 860 -7 q 849 -33 860 -22 q 822 -44 838 -44 l 550 -44 m 515 669 q 410 557 417 669 l 410 460 q 438 375 413 403 q 515 347 464 347 l 515 669 m 857 347 q 934 375 908 347 q 963 460 960 403 q 964 508 964 467 q 963 557 964 551 q 857 669 957 669 l 857 347 z "},"Х":{"ha":1026,"x_min":0,"x_max":1026,"o":"m 31 0 q 9 9 18 0 q 0 31 0 18 q 4 46 0 39 l 296 497 l 33 926 q 29 942 29 935 q 38 963 29 954 q 60 972 47 972 l 361 972 q 419 938 400 972 l 517 768 l 622 938 q 681 972 642 972 l 968 972 q 990 963 981 972 q 999 942 999 954 q 994 926 999 933 l 726 501 l 1022 46 q 1026 31 1026 39 q 1017 9 1026 18 q 996 0 1008 0 l 683 0 q 626 32 646 0 l 506 218 l 390 32 q 333 0 371 0 l 31 0 z "},"Ч":{"ha":1024,"x_min":51,"x_max":935,"o":"m 625 0 q 599 11 610 0 q 588 38 588 22 l 588 286 q 418 244 521 244 q 142 341 233 244 q 53 640 51 438 l 53 935 q 64 961 53 950 q 90 972 75 972 l 363 972 q 389 961 378 972 q 400 935 400 950 l 400 654 q 422 583 400 606 q 493 561 444 561 q 557 572 526 561 q 588 597 588 583 l 588 935 q 599 961 588 950 q 625 972 610 972 l 897 972 q 924 961 913 972 q 935 935 935 950 l 935 38 q 924 11 935 22 q 897 0 913 0 l 625 0 z "},"Ц":{"ha":1138,"x_min":76,"x_max":1096,"o":"m 786 -194 q 760 -183 771 -194 q 749 -157 749 -172 l 749 0 l 114 0 q 88 11 99 0 q 76 38 76 22 l 76 935 q 88 962 76 951 q 114 972 99 972 l 386 972 q 413 961 401 972 q 424 935 424 950 l 424 306 l 649 306 l 649 935 q 660 961 649 950 q 686 972 671 972 l 958 972 q 985 961 974 972 q 996 935 996 950 l 996 306 l 1058 306 q 1085 294 1074 306 q 1096 268 1096 283 l 1096 -157 q 1085 -183 1096 -172 q 1058 -194 1074 -194 l 786 -194 z "},"Ш":{"ha":1407,"x_min":76,"x_max":1331,"o":"m 114 0 q 88 11 99 0 q 76 38 76 22 l 76 935 q 88 962 76 951 q 114 972 99 972 l 386 972 q 413 961 401 972 q 424 935 424 950 l 424 306 l 531 306 l 531 935 q 542 961 531 950 q 568 972 553 972 l 840 972 q 867 961 856 972 q 878 935 878 950 l 878 306 l 983 306 l 983 935 q 994 961 983 950 q 1021 972 1006 972 l 1293 972 q 1319 961 1308 972 q 1331 935 1331 950 l 1331 38 q 1319 11 1331 22 q 1293 0 1308 0 l 114 0 z "},"Щ":{"ha":1472,"x_min":76,"x_max":1431,"o":"m 1121 -194 q 1094 -183 1106 -194 q 1083 -157 1083 -172 l 1083 0 l 114 0 q 88 11 99 0 q 76 38 76 22 l 76 935 q 88 962 76 951 q 114 972 99 972 l 386 972 q 413 961 401 972 q 424 935 424 950 l 424 306 l 531 306 l 531 935 q 542 961 531 950 q 568 972 553 972 l 840 972 q 867 961 856 972 q 878 935 878 950 l 878 306 l 983 306 l 983 935 q 994 961 983 950 q 1021 972 1006 972 l 1293 972 q 1319 961 1308 972 q 1331 935 1331 950 l 1331 306 l 1393 306 q 1419 294 1408 306 q 1431 268 1431 283 l 1431 -157 q 1419 -183 1431 -172 q 1393 -194 1408 -194 l 1121 -194 z "},"Џ":{"ha":1072,"x_min":76,"x_max":996,"o":"m 400 -194 q 374 -183 385 -194 q 363 -157 363 -172 l 363 0 l 114 0 q 88 11 99 0 q 76 38 76 22 l 76 935 q 88 962 76 951 q 114 972 99 972 l 386 972 q 413 961 401 972 q 424 935 424 950 l 424 306 l 649 306 l 649 935 q 660 961 649 950 q 686 972 671 972 l 958 972 q 985 961 974 972 q 996 935 996 950 l 996 38 q 985 11 996 22 q 958 0 974 0 l 710 0 l 710 -157 q 699 -183 710 -172 q 672 -194 688 -194 l 400 -194 z "},"Ь":{"ha":979,"x_min":76,"x_max":939,"o":"m 114 0 q 88 11 99 0 q 76 38 76 22 l 76 935 q 88 961 76 950 q 114 972 99 972 l 386 972 q 413 961 401 972 q 424 935 424 950 l 424 669 l 514 669 q 829 588 719 669 q 939 340 939 506 q 828 88 939 175 q 514 0 717 0 l 114 0 m 514 258 q 562 281 546 258 q 578 338 578 303 q 559 393 578 374 q 514 413 540 413 l 424 413 l 424 258 l 514 258 z "},"Ъ":{"ha":1121,"x_min":24,"x_max":1081,"o":"m 256 0 q 229 11 240 0 q 218 38 218 22 l 218 701 l 61 701 q 35 713 46 701 q 24 739 24 724 l 24 935 q 35 961 24 950 q 61 972 46 972 l 528 972 q 554 961 543 972 q 565 935 565 950 l 565 669 l 656 669 q 971 588 861 669 q 1081 340 1081 506 q 969 88 1081 175 q 656 0 858 0 l 256 0 m 656 258 q 703 281 688 258 q 719 338 719 303 q 701 393 719 374 q 656 413 682 413 l 565 413 l 565 258 l 656 258 z "}}}
